<svg xmlns="http://www.w3.org/2000/svg" width="184.968" height="200.748" viewBox="0 0 184.968 200.748">
  <g id="Afro" transform="translate(-218.401 -197.264)">
    <g id="Frame">
      <path id="Path_94" data-name="Path 94" d="M310.885,392.271l-86.7-95.1,86.7-94.159,86.695,94.159Zm-85.689-95.1,85.689,94,85.69-94L310.885,204.1Z" fill="#040505"/>
      <rect id="Rectangle_5" data-name="Rectangle 5" width="8.897" height="8.897" transform="translate(310.885 197.264) rotate(45)" fill="#040505"/>
      <rect id="Rectangle_6" data-name="Rectangle 6" width="8.897" height="8.897" transform="translate(310.885 385.429) rotate(45)" fill="#040505"/>
      <rect id="Rectangle_7" data-name="Rectangle 7" width="8.897" height="8.897" transform="translate(397.078 290.877) rotate(45)" fill="#040505"/>
      <rect id="Rectangle_8" data-name="Rectangle 8" width="8.897" height="8.897" transform="translate(224.693 290.877) rotate(45)" fill="#040505"/>
    </g>
    <g id="Afro_Final" data-name="Afro Final">
      <g id="Group_55" data-name="Group 55">
        <g id="Group_54" data-name="Group 54">
          <g id="Group_47" data-name="Group 47">
            <path id="Path_95" data-name="Path 95" d="M287.832,283.325c.037.185.045.407.171.467-.074-.03-.148-.067-.223-.1" fill="none" stroke="#040505" stroke-miterlimit="10" stroke-width="1"/>
            <path id="Path_96" data-name="Path 96" d="M287.766,283.873a.961.961,0,0,1-.015.579" fill="none" stroke="#040505" stroke-miterlimit="10" stroke-width="1"/>
            <path id="Path_97" data-name="Path 97" d="M287.766,285.023c.022.059.059.111.081.17a.893.893,0,0,0-.074.1" fill="none" stroke="#040505" stroke-miterlimit="10" stroke-width="1"/>
            <path id="Path_98" data-name="Path 98" d="M287.8,285.616a.257.257,0,0,0,.17.134.068.068,0,0,1,.037.007" fill="none" stroke="#040505" stroke-miterlimit="10" stroke-width="1"/>
            <path id="Path_99" data-name="Path 99" d="M292.49,300.2c.007-.008.022-.008.037-.015a5.788,5.788,0,0,1-.786-2.01.622.622,0,0,1-.171-.356l-.267-.979a.614.614,0,0,1-.089-.653.5.5,0,0,1-.2-.652.1.1,0,0,1-.074-.03.109.109,0,0,1-.052-.111.4.4,0,0,0-.111-.579,2.864,2.864,0,0,1-.149-.652.534.534,0,0,1-.015-.1c-.081-.074-.155-.141-.237-.208" fill="none" stroke="#040505" stroke-miterlimit="10" stroke-width="1"/>
            <path id="Path_100" data-name="Path 100" d="M290.146,293.21l.163.164c.1.111.164.333.045.415" fill="none" stroke="#040505" stroke-miterlimit="10" stroke-width="1"/>
            <path id="Path_101" data-name="Path 101" d="M289.827,292.469c.06.081.164.119.2.215a.6.6,0,0,1-.008.23" fill="none" stroke="#040505" stroke-miterlimit="10" stroke-width="1"/>
            <path id="Path_102" data-name="Path 102" d="M289.827,292.461a.151.151,0,0,1,.045-.2.046.046,0,0,1,.052.008.118.118,0,0,1-.052-.008c-.193-.022-.237-.319-.289-.534a.987.987,0,0,0-.349-.563" fill="none" stroke="#040505" stroke-miterlimit="10" stroke-width="1"/>
            <path id="Path_103" data-name="Path 103" d="M289,290.615a.468.468,0,0,0,.178.126.349.349,0,0,0-.081.1" fill="none" stroke="#040505" stroke-miterlimit="10" stroke-width="1"/>
            <path id="Path_104" data-name="Path 104" d="M288.989,290.585a.221.221,0,0,1,.134.074,1.2,1.2,0,0,1-.23-.689.59.59,0,0,0-.022-.23c-.045-.06-.141-.1-.193-.045a5.687,5.687,0,0,0-.423-1.372c.089-.015.1-.156.052-.237s-.141-.148-.156-.245c-.022-.141.112-.289.052-.423-.029-.066-.111-.1-.148-.155s.015-.178.081-.141l-.178-.245c.119.037.1-.171.03-.267-.03-.037-.059-.074-.089-.119" fill="none" stroke="#040505" stroke-miterlimit="10" stroke-width="1"/>
            <path id="Path_105" data-name="Path 105" d="M287.832,285.913h.023a.132.132,0,0,1,.118-.163" fill="none" stroke="#040505" stroke-miterlimit="10" stroke-width="1"/>
            <path id="Path_106" data-name="Path 106" d="M287.7,286.269c-.008-.008-.008-.008-.008-.015s0,.007.008.015" fill="none" stroke="#040505" stroke-miterlimit="10" stroke-width="1"/>
            <path id="Path_107" data-name="Path 107" d="M287.654,286.2a.831.831,0,0,0-.074-.1" fill="none" stroke="#040505" stroke-miterlimit="10" stroke-width="1"/>
            <g id="Group_26" data-name="Group 26">
              <path id="Path_110" data-name="Path 110" d="M296.852,280.277a2.881,2.881,0,0,0,.665.671.735.735,0,0,0,.225.141,1.445,1.445,0,0,0,.273.037,4.044,4.044,0,0,1,.529.165,2.281,2.281,0,0,0,1.157-.069,1.59,1.59,0,0,0,.435-.16,1.412,1.412,0,0,0,.4-.409,2.814,2.814,0,0,0,.57-1.772.15.15,0,0,0-.019-.073.143.143,0,0,0-.1-.044l-1.463-.218a2.817,2.817,0,0,0-.666-.046,2.756,2.756,0,0,0-.346.06l-.912.2c-.211.045-.664.053-.83.193C296.453,279.216,296.675,280,296.852,280.277Z" fill="none" stroke="#040505" stroke-miterlimit="10" stroke-width="0.75"/>
              <path id="Path_111" data-name="Path 111" d="M298.528,278.757v.214a.83.83,0,0,0-.482.069,1.838,1.838,0,0,0,.046.479l.47.107.06.253a.189.189,0,0,0,.021.056.233.233,0,0,0,.3.059,2.974,2.974,0,0,0,.028-1c0-.287.066-.168.123-.435C298.885,278.71,298.79,278.674,298.528,278.757Z" fill="none" stroke="#040505" stroke-miterlimit="10" stroke-width="0.75"/>
              <g id="Group_19" data-name="Group 19">
                <path id="Path_112" data-name="Path 112" d="M302.076,280.9c-.013-.025.114-.125.356-.284l.447-.281a2.624,2.624,0,0,0,.254-.163c.041-.045.04-.068-.009-.161a2.873,2.873,0,0,0-1.376-.942,6.51,6.51,0,0,0-2.119-.3,7.264,7.264,0,0,0-3.79.838,9.583,9.583,0,0,0-1.275,1.026c-.043-.014.232-.657,1.116-1.274a6.8,6.8,0,0,1,3.95-1.007,6.341,6.341,0,0,1,2.25.36,2.982,2.982,0,0,1,1.5,1.163.392.392,0,0,1-.081.505,2.061,2.061,0,0,1-.314.164l-.479.219C302.244,280.87,302.09,280.922,302.076,280.9Z" fill="#040505"/>
              </g>
              <g id="Group_20" data-name="Group 20">
                <path id="Path_113" data-name="Path 113" d="M294.583,280.339c.059-.035.276.4.9.766a4.711,4.711,0,0,0,2.746.488,13.736,13.736,0,0,0,2.871-.35c.707-.2,1.089-.469,1.129-.415.033.034-.3.409-1.035.7a9.829,9.829,0,0,1-2.945.487,6.357,6.357,0,0,1-1.664-.1,3.377,3.377,0,0,1-1.266-.555C294.668,280.869,294.537,280.347,294.583,280.339Z" fill="#040505"/>
              </g>
              <g id="Group_21" data-name="Group 21">
                <path id="Path_114" data-name="Path 114" d="M301.072,278.8c.022-.021.12.087.118.3a3.945,3.945,0,0,1-.093.836,2.37,2.37,0,0,1-.58,1.155,2.062,2.062,0,0,1-1.5.551,2.933,2.933,0,0,1-1.533-.373,2,2,0,0,1-.858-.977c-.28-.723,0-1.19.032-1.154a2.908,2.908,0,0,0,.236,1.03,2.231,2.231,0,0,0,2.116,1.056,1.759,1.759,0,0,0,1.239-.408,2.317,2.317,0,0,0,.565-.96c.106-.316.168-.59.216-.773S301.046,278.82,301.072,278.8Z" fill="#040505"/>
              </g>
              <g id="Group_22" data-name="Group 22">
                <path id="Path_115" data-name="Path 115" d="M296.72,277.146c-.005.063-.29.073-.694.25a8.7,8.7,0,0,0-1.5.912,2.24,2.24,0,0,0-.626.684c-.162.242-.313.468-.435.67-.252.393-.433.622-.484.6s.038-.3.223-.733a6.041,6.041,0,0,1,.378-.747,2.264,2.264,0,0,1,.689-.8,5.228,5.228,0,0,1,1.659-.862C296.418,276.994,296.73,277.1,296.72,277.146Z" fill="#040505"/>
              </g>
              <g id="Group_23" data-name="Group 23">
                <path id="Path_116" data-name="Path 116" d="M294.971,277.249c.005.117-.652.255-1.169.943-.551.659-1.075,1.143-1.171,1.078s.288-.674.862-1.359c.165-.162.319-.317.477-.444a1.643,1.643,0,0,1,.5-.235C294.772,277.152,294.966,277.2,294.971,277.249Z" fill="#040505"/>
              </g>
              <g id="Group_24" data-name="Group 24">
                <path id="Path_117" data-name="Path 117" d="M300.8,275.375c-.017.06-.389-.014-.98.078s-1.418.318-2.342.495a17.864,17.864,0,0,0-2.312.554c-.573.185-.862.421-.9.381s.207-.382.792-.653a9.782,9.782,0,0,1,2.342-.691,17.7,17.7,0,0,1,2.4-.38C300.442,275.139,300.82,275.326,300.8,275.375Z" fill="#040505"/>
              </g>
              <g id="Group_25" data-name="Group 25">
                <path id="Path_118" data-name="Path 118" d="M296.209,284.2a3.69,3.69,0,0,1,1.168-.312c.725-.148,1.729-.331,2.8-.646a11.283,11.283,0,0,0,2.609-1.114c.623-.4,1.078-.573,1.1-.511a7.045,7.045,0,0,1-.937.757,8.538,8.538,0,0,1-2.654,1.268,15.808,15.808,0,0,1-2.874.538A3.406,3.406,0,0,1,296.209,284.2Z" fill="#040505"/>
              </g>
            </g>
            <g id="Group_32" data-name="Group 32">
              <g id="Group_27" data-name="Group 27">
                <path id="Path_119" data-name="Path 119" d="M315.715,286.709c.086,0,.123.507.392,1.249a6.094,6.094,0,0,0,.631,1.228,5.7,5.7,0,0,1,.815,1.642,2.261,2.261,0,0,1,.033,1.025,1.859,1.859,0,0,1-.451.863,2.651,2.651,0,0,1-1.346.76,2.412,2.412,0,0,1-1.358.061c-.017-.089.5-.177,1.241-.437a2.514,2.514,0,0,0,1.076-.72,1.526,1.526,0,0,0,.265-1.419,6.339,6.339,0,0,0-.715-1.513,5.056,5.056,0,0,1-.568-1.377C315.54,287.233,315.649,286.7,315.715,286.709Z" fill="#040505"/>
              </g>
              <g id="Group_28" data-name="Group 28">
                <path id="Path_120" data-name="Path 120" d="M311.7,292.443c.012-.084.4-.067.986-.185a4.456,4.456,0,0,0,.982-.317,1.6,1.6,0,0,0,.349-.192c0,.018-.011-.079-.187-.087a3.31,3.31,0,0,0-1.19.137,1.663,1.663,0,0,0-.722.6c-.329.475-.415.866-.5.849-.063,0-.129-.427.161-1.049a1.877,1.877,0,0,1,.853-.872,2.253,2.253,0,0,1,.7-.191,4.393,4.393,0,0,1,.751-.03.674.674,0,0,1,.664.785.53.53,0,0,1-.179.268.924.924,0,0,1-.194.118c-.1.05-.208.1-.311.134a3.605,3.605,0,0,1-1.134.235C312.074,292.672,311.691,292.51,311.7,292.443Z" fill="#040505"/>
              </g>
              <g id="Group_29" data-name="Group 29">
                <path id="Path_121" data-name="Path 121" d="M308.406,292.4c0-.03.208.01.234.318l.007.07-.1.027a4.649,4.649,0,0,1-1.628.056c-.356-.039-.742-.109-1.147-.194a2.26,2.26,0,0,1-.694-.212.706.706,0,0,1-.307-.428.871.871,0,0,1,.031-.488.981.981,0,0,1,.372-.489,1.333,1.333,0,0,1,.507-.195,3.82,3.82,0,0,1,.885-.009,1.444,1.444,0,0,1,.8.27,5.5,5.5,0,0,1,.544.392c.3.223.613.5.648.774s-.079.393-.1.371-.011-.137-.1-.3-.308-.316-.665-.517c-.167-.1-.364-.231-.543-.312a1.026,1.026,0,0,0-.6-.163c-.5-.02-1.117-.006-1.21.365-.044.145-.02.225.05.27a2.316,2.316,0,0,0,.514.156c.4.1.765.19,1.1.256a9.152,9.152,0,0,0,1.534.184l-.1.1C308.471,292.542,308.377,292.43,308.406,292.4Z" fill="#040505"/>
              </g>
              <g id="Group_30" data-name="Group 30">
                <path id="Path_122" data-name="Path 122" d="M304.1,293.727c0,.066-.21.161-.56.064a1.686,1.686,0,0,1-.957-2.269c.174-.318.391-.4.436-.356.061.058-.025.23-.066.489a1.876,1.876,0,0,0,.75,1.778C303.915,293.585,304.1,293.642,304.1,293.727Z" fill="#040505"/>
              </g>
              <g id="Group_31" data-name="Group 31">
                <path id="Path_123" data-name="Path 123" d="M305.408,285.675a7.356,7.356,0,0,1-1,2.27c-.621,1.2-1.123,2.186-1.27,2.131a4.759,4.759,0,0,1,.776-2.386C304.55,286.455,305.284,285.59,305.408,285.675Z" fill="#040505"/>
              </g>
            </g>
            <g id="Group_36" data-name="Group 36">
              <path id="Path_124" data-name="Path 124" d="M317.925,277.744a.1.1,0,0,0-.013.039.722.722,0,0,0-.026.344v.02a1.294,1.294,0,0,0,.019.172v.027a.048.048,0,0,0,.007.033c.007.073.02.132.026.185a6.165,6.165,0,0,0,.232.913c.027.073.053.152.073.219a.006.006,0,0,1,.006.006.024.024,0,0,0,.007.02.887.887,0,0,0,.053.119.056.056,0,0,0,.013.027v.006c.013.027.033.053.047.08a2.085,2.085,0,0,0,.423.483.711.711,0,0,0,.152.125.347.347,0,0,0,.159.04.47.47,0,0,0,.1.007c.45.033.9.059,1.35.092l.351.02c.092,0,.178,0,.264-.006.007.006.007.006.014,0a.08.08,0,0,0,.053,0c.006.006.006.006.013,0" fill="none" stroke="#040505" stroke-miterlimit="10" stroke-width="0.75"/>
              <path id="Path_125" data-name="Path 125" d="M319.1,280.615l-.006-.006-.006-.007c-.154-.185-.349-.317-.515-.49a1.287,1.287,0,0,1-.183-.244.054.054,0,0,1-.012-.027,2.42,2.42,0,0,1-.379-1.7v-.014l.018-.039a.576.576,0,0,1,.272-.311.774.774,0,0,1,.16-.066.3.3,0,0,1,.1-.04.016.016,0,0,1,.024,0,.315.315,0,0,1,.107-.033,3.319,3.319,0,0,1,1.3.039.056.056,0,0,1,.029.007l.249.06a.062.062,0,0,1,.029.006c.136.033.273.073.4.106a2.338,2.338,0,0,0,.266.08c.118.039.237.072.343.1.373.106.746.212,1.119.325.053.013.112.033.165.046l.006.007a.152.152,0,0,1,.054.013c0,.013.006.02.006.033s.005.026.005.04a1.436,1.436,0,0,1-.005.476V279a1.349,1.349,0,0,1-.048.212,1.693,1.693,0,0,1-.278.575.049.049,0,0,1-.024.04,2.071,2.071,0,0,1-.674.629,2.448,2.448,0,0,1-.687.258" fill="none" stroke="#040505" stroke-miterlimit="10" stroke-width="0.75"/>
              <g id="Group_33" data-name="Group 33">
                <path id="Path_126" data-name="Path 126" d="M315.515,279.565c-.045.007.094-.722.983-1.358a3.974,3.974,0,0,1,1.728-.677,7.552,7.552,0,0,1,2.247.051,10.674,10.674,0,0,1,3.863,1.166c.911.552,1.231,1.164,1.193,1.179a11.5,11.5,0,0,0-1.337-.922,12.686,12.686,0,0,0-3.78-1.01,8.006,8.006,0,0,0-2.134-.083,4.009,4.009,0,0,0-1.618.542A4.547,4.547,0,0,0,315.515,279.565Z" fill="#040505"/>
              </g>
              <g id="Group_34" data-name="Group 34">
                <path id="Path_127" data-name="Path 127" d="M325.107,279.717a2.439,2.439,0,0,1-1.267.788,9.9,9.9,0,0,1-3.565.412,13.568,13.568,0,0,1-3.529-.6c-.906-.271-1.308-.772-1.253-.8a5.82,5.82,0,0,0,1.334.52,18.8,18.8,0,0,0,3.464.472,12.211,12.211,0,0,0,3.461-.276C324.61,280,325.067,279.661,325.107,279.717Z" fill="#040505"/>
              </g>
              <g id="Group_35" data-name="Group 35">
                <path id="Path_128" data-name="Path 128" d="M316.092,275.332c-.043-.023.093-.369.559-.707a3.519,3.519,0,0,1,2.084-.581,9.192,9.192,0,0,1,2.957.422,12.76,12.76,0,0,1-2.954-.005,4.045,4.045,0,0,0-1.931.414C316.356,275.112,316.144,275.371,316.092,275.332Z" fill="#040505"/>
              </g>
              <path id="Path_129" data-name="Path 129" d="M314.275,270.5" fill="none" stroke="#040505" stroke-miterlimit="10" stroke-width="0.75"/>
            </g>
            <g id="Group_37" data-name="Group 37">
              <path id="Path_130" data-name="Path 130" d="M297.318,322.1c-.015-.007-.015-.015-.015-.022s.015.015.015.022.015.015.022.023" fill="#040505" stroke="#040505" stroke-miterlimit="10" stroke-width="1"/>
              <line id="Line_1" data-name="Line 1" y1="0.007" transform="translate(295.671 320.324)" fill="#040505" stroke="#040505" stroke-miterlimit="10" stroke-width="1"/>
              <path id="Path_131" data-name="Path 131" d="M295.293,320.413c-.03-.037.008-.126.037-.089a.106.106,0,0,1-.037.089.016.016,0,0,0,.015.015c.059.015.119-.037.178-.059a.271.271,0,0,1,.185-.045v.008" fill="#040505" stroke="#040505" stroke-miterlimit="10" stroke-width="1"/>
              <path id="Path_132" data-name="Path 132" d="M294.27,301.242c-.023.06-.037.074-.067.052v-.007A.138.138,0,0,1,294.27,301.242Z" fill="#040505" stroke="#040505" stroke-miterlimit="10" stroke-width="1"/>
              <path id="Path_133" data-name="Path 133" d="M296.7,320.977a1,1,0,0,1,.334-.586.3.3,0,0,1,.074.067C297.288,320.7,296.977,321.088,296.7,320.977Z" fill="#040505" stroke="#040505" stroke-miterlimit="10" stroke-width="1"/>
              <path id="Path_134" data-name="Path 134" d="M328.118,297.675a.535.535,0,0,0-.023-.282c-.066-.178-.326-.289-.459-.178a7.518,7.518,0,0,0,1.164-1.357,14.589,14.589,0,0,0,1.023-1.713" fill="#040505" stroke="#040505" stroke-miterlimit="10" stroke-width="1"/>
              <path id="Path_135" data-name="Path 135" d="M330.216,290.86a16.14,16.14,0,0,1,.164-3.62" fill="#040505" stroke="#040505" stroke-miterlimit="10" stroke-width="1"/>
              <path id="Path_136" data-name="Path 136" d="M332.026,281.8a16.891,16.891,0,0,0-1.276,3.56" fill="#040505" stroke="#040505" stroke-miterlimit="10" stroke-width="1"/>
              <path id="Path_137" data-name="Path 137" d="M320.219,301.2c-.007-.008-.015-.008-.015-.015" fill="#040505" stroke="#040505" stroke-miterlimit="10" stroke-width="1"/>
              <path id="Path_138" data-name="Path 138" d="M313.226,297.267c-.215.015-.453.037-.683.067" fill="#040505" stroke="#040505" stroke-miterlimit="10" stroke-width="1"/>
              <path id="Path_139" data-name="Path 139" d="M311.4,296.941c-.044.222-.1.46-.155.7-.008.015.007.023.014.015a1.891,1.891,0,0,1,.609-.215" fill="#040505" stroke="#040505" stroke-miterlimit="10" stroke-width="1"/>
              <path id="Path_140" data-name="Path 140" d="M311.468,296.281a1.261,1.261,0,0,0-.022-.237,1.349,1.349,0,0,0-.03-.164" fill="#040505" stroke="#040505" stroke-miterlimit="10" stroke-width="1"/>
              <path id="Path_141" data-name="Path 141" d="M312.514,295.584c-.126,0-.238-.008-.356-.015" fill="#040505" stroke="#040505" stroke-miterlimit="10" stroke-width="1"/>
              <line id="Line_2" data-name="Line 2" y1="0.007" transform="translate(287.892 282.338)" fill="#040505" stroke="#040505" stroke-miterlimit="10" stroke-width="1"/>
              <path id="Path_142" data-name="Path 142" d="M287.78,283.688a1.394,1.394,0,0,0-.014.171" fill="#040505" stroke="#040505" stroke-miterlimit="10" stroke-width="1"/>
              <path id="Path_143" data-name="Path 143" d="M287.751,284.467a4.457,4.457,0,0,0,.015.556" fill="#040505" stroke="#040505" stroke-miterlimit="10" stroke-width="1"/>
              <path id="Path_144" data-name="Path 144" d="M287.8,285.616c-.015-.111-.023-.207-.03-.319" fill="#040505" stroke="#040505" stroke-miterlimit="10" stroke-width="1"/>
              <path id="Path_145" data-name="Path 145" d="M287.832,285.913a1.02,1.02,0,0,0,.008.156c.015.141.037.281.059.422" fill="#040505" stroke="#040505" stroke-miterlimit="10" stroke-width="1"/>
              <path id="Path_146" data-name="Path 146" d="M289,290.615c0-.015-.007-.015-.015-.03" fill="#040505" stroke="#040505" stroke-miterlimit="10" stroke-width="1"/>
              <path id="Path_147" data-name="Path 147" d="M289.234,291.156a2.307,2.307,0,0,1-.133-.311" fill="#040505" stroke="#040505" stroke-miterlimit="10" stroke-width="1"/>
              <path id="Path_148" data-name="Path 148" d="M290.146,293.21c-.037-.1-.081-.185-.126-.281" fill="#040505" stroke="#040505" stroke-miterlimit="10" stroke-width="1"/>
              <path id="Path_149" data-name="Path 149" d="M290.376,293.848a.1.1,0,0,1-.022-.059" fill="#040505" stroke="#040505" stroke-miterlimit="10" stroke-width="1"/>
              <path id="Path_150" data-name="Path 150" d="M303.177,298.966h-.008" fill="#040505" stroke="#040505" stroke-miterlimit="10" stroke-width="1"/>
              <path id="Path_151" data-name="Path 151" d="M333.413,290.845c-.178.074-.356.163-.534.244.549-2.054-.386-7.208-.853-9.285-.067.371-.119.683-.163.868a6.656,6.656,0,0,1-1.113,2.692v.007c-.148.594-.274,1.224-.37,1.855a.01.01,0,0,1,0,.014c-.03.586-.06,1.306-.1,2.262-.015.49-.03.9-.06,1.357.008.008.008.015,0,.015a8.678,8.678,0,0,0,.327,1.81c-.23.489-.467.979-.72,1.454v.007a10.791,10.791,0,0,1-.311,1.053,8.814,8.814,0,0,1-.712,1.535,6.5,6.5,0,0,1-.682.942v.007h-.008a4.4,4.4,0,0,1-.645.623,5.129,5.129,0,0,1-1.468.846,3.088,3.088,0,0,1-1.521.3,3.021,3.021,0,0,1-.615-.141,1.22,1.22,0,0,0-.349-.052,3.073,3.073,0,0,0-1.683.534,1.925,1.925,0,0,1-1.142-.594,9.513,9.513,0,0,0-1.343-1.438,6.949,6.949,0,0,0-1.683-.623,4.633,4.633,0,0,1-2.27-1.751c-.919-.059-1.935.2-2.877.2-.119,0-.238-.008-.356-.015a2.305,2.305,0,0,1-.23-.022,1.624,1.624,0,0,1-.26-.06.288.288,0,0,1-.081-.015.174.174,0,0,0-.208.223v.015a1.588,1.588,0,0,1,.037.17.7.7,0,0,1,.03.163,1.279,1.279,0,0,1,.022.238,3.292,3.292,0,0,1-.067.66.42.42,0,0,0,.468.5c.014.008.029,0,.044,0,.193-.044.408-.081.63-.111a5.729,5.729,0,0,1,.683-.067,1.628,1.628,0,0,1,.853.082c.089.074.408.067.415.074,1.023.482.727.044,2.069.979,1.469,1.038,2.544,1.149,3.627,2.759.007.007.014.015.014.022h.008c0,.007,0,.015.007.015a1.393,1.393,0,0,0,.4.415.435.435,0,0,1,.133.1,1.022,1.022,0,0,1,.238.511c.267,1.024.541,2.062.8,3.085a4.427,4.427,0,0,1,.222,1.721,3.666,3.666,0,0,1-1.046,1.9,7.511,7.511,0,0,0-1.891,2.491c-.586-.163-.957.623-1.5.9a2,2,0,0,1-.786.149c-2.818.17-5.644.341-8.462.5a2.836,2.836,0,0,1-2.41-.616,4.054,4.054,0,0,1-2.374-.141.278.278,0,0,0-.222-.385.271.271,0,0,0-.252.252c-.037-.252-.074-.5-.1-.742a1.1,1.1,0,0,1-.875-1.09c-.029.393-.793.252-.682-.126-.5.415-1.15-.334-1.224-.971s-.044-1.439-.63-1.714c-.3.238-.794-.222-.579-.541-.348.074-.007-.163-.363-.1-.348-1.046-.356-.3-.423-1.41.334.364-.029-.1.26-.615.245-.43.467-1.209.749-1.609.26-.379.794-1.194,1.083-1.543.882-1.068.274-.185,1.357-1.276.074-.333.712-.3.786-.637.838-.646.289-.327.757-.75h-.015c.074-.059,1.327-.578,1.379-.763a18.363,18.363,0,0,1,3.026-.779c.527.067,1.216.475,1.8.534a.178.178,0,0,0,.17-.252,2.891,2.891,0,0,1,.052-2.025.146.146,0,0,0-.1-.193l-1.513-.341a3.754,3.754,0,0,0-2.262.415,15.377,15.377,0,0,0-4.464,2.982l-.008.007c-.259.238-.5.49-.749.757l-1.772.378c-.579.43-.43.549-1.009.979-.052-.2-.43,1.275-.482,1.068.008.452-.207.452-.63.556s-.49-.03-.749-.393c-.186.208-.467-.223-.475-.067-.067-.638-.118.327-.452-.334.015.282-.052-.1-.289.052-.223.126-.534-.1-.438-.252v-.007c-.1-.067-.23-.534-.289-.289-.252-.594-.838.237-.875-.408a4.133,4.133,0,0,0-.549-.393h-.008c-.014-.008-.022-.015-.029-.015-.178-.037-.3-.416-.371-.579a21.749,21.749,0,0,1-1.179-3.834v-.007c-.119-.5-.245-.987-.386-1.461v-.008c-.044-.148-.1-.3-.141-.445l-.044-.044a.081.081,0,0,1,.022-.015c-.03-.1-.067-.193-.1-.289s-.075-.2-.112-.29a.423.423,0,0,1-.126-.237v-.059c-.037-.1-.074-.178-.111-.275-.03-.059-.052-.111-.082-.17v-.008l-.014-.014c-.193-.423-.386-.853-.579-1.283v-.008a1.289,1.289,0,0,0-.133-.089.236.236,0,0,1,0-.222v-.008c-.037-.074-.067-.148-.1-.222a.155.155,0,0,1-.059-.045.11.11,0,0,1,.044.015c-.1-.245-.193-.5-.289-.749a13.636,13.636,0,0,1-.445-1.513,11.992,11.992,0,0,1-.3-1.446,3.674,3.674,0,0,1-.059-.386c-.067-.081-.141-.178-.215-.259,0,.007.007.015.007.022a.416.416,0,0,1-.037-.052.106.106,0,0,1,.03.03,1.564,1.564,0,0,1-.052-.3,1.765,1.765,0,0,0,.2-.015c-.014-.1-.022-.2-.029-.3a.375.375,0,0,1-.03-.319v-.007c0-.089-.007-.171-.007-.267-.052-.089-.1-.193-.149-.289a1.115,1.115,0,0,0,.134-.267v-.015c-.008-.1-.008-.208-.008-.312a1.765,1.765,0,0,1,.023-.267v-.014a.961.961,0,0,0-.1-.223.734.734,0,0,1,.111.052c.015-.119.038-.237.052-.363v-.008c0-.007,0-.022.008-.022a3.054,3.054,0,0,0,.052-.949,3.516,3.516,0,0,1-.141.326l-.223-.757c-.015.03-.029.052-.052.089-.029.089-.074.2-.111.342a9.875,9.875,0,0,0-.252,2.024,18.569,18.569,0,0,0,.134,3.909c.163,1.2.363,2.64-.557,3.426.223-.022.438-.052.653-.074-.03,1.728-.059,3.448-.082,5.169.512.074.252.868-.126,1.224.49-.119.586.652.505,1.142a5.631,5.631,0,0,0-.075.793,5.941,5.941,0,0,0,.075.964,5.075,5.075,0,0,0,.526,1.625c-.148.237-.311.482-.46.719.215.037.438.067.66.1a1.455,1.455,0,0,0,.838,1.647c-.133.207-.267.423-.4.623a1.987,1.987,0,0,1,.63,2.4,3.35,3.35,0,0,1,1.558,2.247c-.171.208-.334.408-.512.616a3.627,3.627,0,0,1,1.958,3.686l1.112,2.269c.453.467.89.927,1.328,1.38.1.111.2.207.3.311a.333.333,0,0,0,.037.052c.015,0,.03.022.045.037v.007l.007.008a4.29,4.29,0,0,0,.89.734.709.709,0,0,1,.2.134.5.5,0,0,1,.037.563.03.03,0,0,1-.007.023,1,1,0,0,1-.5.37.308.308,0,0,0-.223-.133c.008.007.008.007.008.015a.323.323,0,0,0,.111.215c.1.066.23.007.349.029a.586.586,0,0,1,.348.29c.267.408.549.8.816,1.2,0-.074.171-.156.23-.074.1.1.074.259.126.386.067.148.237.222.378.3a2.99,2.99,0,0,1,1.521,1.995,2.235,2.235,0,0,1,.318-.994.383.383,0,0,0,.653-.1.836.836,0,0,1,.964.616.933.933,0,0,1,.252-.468c.074.1.141.208.208.312a1.776,1.776,0,0,1,1.164-.1c.7.1,1.409.2,2.107.3a6.655,6.655,0,0,0,2.736.007c.119.164.23.342.349.505.267-.393.845-.289,1.312-.223a3.927,3.927,0,0,0,1.966-.222c.3-.1.6-.208.9-.312a9.068,9.068,0,0,1,1.773.527c.081-.037.155-.082.244-.119a2.4,2.4,0,0,1,1.039.371c.141-.252.526-.1.726.111s.431.49.705.4c.326-.1.3-.638.586-.831a.424.424,0,0,0,.274.393,1.166,1.166,0,0,1,1.276-.638c.356-.333.7-.667,1.068-.993a1.068,1.068,0,0,1,.675-.371,3.7,3.7,0,0,1,.741-1.165,2.735,2.735,0,0,0,.408-.126,5.941,5.941,0,0,1,1.661-.712c1.209-1.92,3.167-3.27,4.443-5.154,2.44-3.567,2.01-8.291,3.07-12.489a6.079,6.079,0,0,0,1.5-3.767,2.952,2.952,0,0,0,.015-.364c-.007-.385-.044-.808-.074-1.224v-.014a.008.008,0,0,0-.008-.008c-.081-1.186-.111-2.388.764-3.1A7.152,7.152,0,0,0,333.413,290.845ZM296.7,320.977a1,1,0,0,1,.334-.586.3.3,0,0,1,.074.067C297.288,320.7,296.977,321.088,296.7,320.977Z" fill="#040505" stroke="#040505" stroke-miterlimit="10" stroke-width="1"/>
              <path id="Path_152" data-name="Path 152" d="M297.036,320.391a.365.365,0,0,0-.541.312c-.03-.208-.067-.416-.1-.631v-.015c-.022-.1-.029-.192-.044-.3a.022.022,0,0,1-.015-.008q-.546-.555-1.068-1.112" fill="#040505" stroke="#040505" stroke-miterlimit="10" stroke-width="1"/>
              <path id="Path_153" data-name="Path 153" d="M295.263,318.634l-.044-.045" fill="#040505" stroke="#040505" stroke-miterlimit="10" stroke-width="1"/>
              <path id="Path_154" data-name="Path 154" d="M311.379,295.71c-.022-.067-.044-.141-.074-.215a.067.067,0,0,1,.089-.089,1.666,1.666,0,0,0,.274.081,2.527,2.527,0,0,0,.26.06" fill="#040505" stroke="#040505" stroke-miterlimit="10" stroke-width="1"/>
              <path id="Path_155" data-name="Path 155" d="M292.706,298.986a.344.344,0,0,1-.013-.165A1.544,1.544,0,0,1,292.706,298.986Z" fill="#040505" stroke="#040505" stroke-miterlimit="10" stroke-width="1"/>
              <path id="Path_156" data-name="Path 156" d="M291.133,294.271c-.171-.037-.342-.067-.505-.111a1.63,1.63,0,0,1-.111.133" fill="#040505" stroke="#040505" stroke-miterlimit="10" stroke-width="1"/>
            </g>
            <g id="Mouth">
              <g id="Group_38" data-name="Group 38">
                <path id="Path_168" data-name="Path 168" d="M318.293,303.9c.027.013-.1.274-.538.459a5.805,5.805,0,0,1-1.869.262c-1.569.082-3.74.156-6.139.2l-1.75.029a9.219,9.219,0,0,0-1.572.06,3.832,3.832,0,0,0-.692.2,1.164,1.164,0,0,1-.447.067,1.938,1.938,0,0,1-.39-.081c-.359-.139-.759.039-1.187.06a4.36,4.36,0,0,1-1.892-.252c-.421-.162-.621-.315-.606-.345a7.3,7.3,0,0,0,2.453.206c.189-.026.368-.071.59-.121a1.536,1.536,0,0,1,.756.005.773.773,0,0,0,.565,0,4.076,4.076,0,0,1,.754-.243,8.9,8.9,0,0,1,1.673-.1l1.744-.04c2.39-.047,4.553-.059,6.122-.039a7.606,7.606,0,0,0,1.818-.075C318.09,304.055,318.26,303.869,318.293,303.9Z" fill="#040505"/>
              </g>
              <g id="Group_39" data-name="Group 39">
                <path id="Path_169" data-name="Path 169" d="M300.3,304.257a1.185,1.185,0,0,1,.4.248,6.6,6.6,0,0,1,.954.944,8.512,8.512,0,0,0,6.7,4.047,21.908,21.908,0,0,0,3.827,0,5.03,5.03,0,0,0,1.938-.426,7.825,7.825,0,0,0,1.726-1.209,11.74,11.74,0,0,0,2.868-3.418c.043-.085.087-.169.125-.256l.1-.215.021-.055-.033-.016a9.257,9.257,0,0,1-2.847-2.049c-.532-.56-.935-1.171-1.438-1.612a1.648,1.648,0,0,0-2.47-.127,2.231,2.231,0,0,1-1.02.393,6.4,6.4,0,0,1-1.939-.182,5.993,5.993,0,0,0-3.223.168,6.146,6.146,0,0,0-2.3,1.384,18.27,18.27,0,0,0-1.322,1.61,2.746,2.746,0,0,1-1.055.848.853.853,0,0,1-.464.089,2.736,2.736,0,0,0,1.35-1.071,15.506,15.506,0,0,1,1.271-1.7,6.383,6.383,0,0,1,5.825-1.785,6.086,6.086,0,0,0,1.791.152,1.742,1.742,0,0,0,.794-.317,2.455,2.455,0,0,1,.959-.54,2.514,2.514,0,0,1,2.153.676c.577.5.987,1.125,1.483,1.637a8.806,8.806,0,0,0,1.7,1.385,8.916,8.916,0,0,0,.987.534l.5.22a3.241,3.241,0,0,1-.173.482c-.036.1-.057.14-.077.183l-.063.139c-.04.093-.087.184-.133.275a12.11,12.11,0,0,1-3.009,3.578,8.251,8.251,0,0,1-1.855,1.277,5.52,5.52,0,0,1-2.131.456,21.577,21.577,0,0,1-3.913-.054A10.026,10.026,0,0,1,305,309a6.986,6.986,0,0,1-2.241-1.737c-.539-.638-.924-1.229-1.276-1.682A15.117,15.117,0,0,0,300.3,304.257Z" fill="#040505"/>
              </g>
              <g id="Group_40" data-name="Group 40">
                <path id="Path_170" data-name="Path 170" d="M309.217,308.537c-.056.052-.258-.1-.332-.441a5.607,5.607,0,0,1-.088-1.189c.007-.929.269-1.671.422-1.635s.141.751.135,1.647a10.6,10.6,0,0,1-.078,1.143C309.244,308.328,309.28,308.489,309.217,308.537Z" fill="#040505"/>
              </g>
              <g id="Group_41" data-name="Group 41">
                <path id="Path_171" data-name="Path 171" d="M311.36,307.479c-.148.037-.337-.222-.339-.583s.185-.622.333-.587.22.293.223.584S311.511,307.443,311.36,307.479Z" fill="#040505"/>
              </g>
              <g id="Group_42" data-name="Group 42">
                <path id="Path_172" data-name="Path 172" d="M310.654,307.69c-.152.018-.282-.178-.287-.438s.115-.461.268-.449.283.207.288.437S310.807,307.671,310.654,307.69Z" fill="#040505"/>
              </g>
              <g id="Group_43" data-name="Group 43">
                <path id="Path_173" data-name="Path 173" d="M306.944,302.868c.155-.016.319.351.487.786s.284.821.157.912-.484-.2-.677-.714S306.794,302.881,306.944,302.868Z" fill="#040505"/>
              </g>
              <g id="Group_44" data-name="Group 44">
                <path id="Path_174" data-name="Path 174" d="M308.394,301.332c.12.089.045.521.244,1.108s.312,1.157.158,1.209c-.136.046-.475-.372-.693-1.057a1.578,1.578,0,0,1-.008-.953C308.187,301.394,308.331,301.3,308.394,301.332Z" fill="#040505"/>
              </g>
              <g id="Group_45" data-name="Group 45">
                <ellipse id="Ellipse_3" data-name="Ellipse 3" cx="0.278" cy="0.292" rx="0.278" ry="0.292" transform="translate(309.379 302.655)" fill="#040505"/>
              </g>
              <g id="Group_46" data-name="Group 46">
                <path id="Path_175" data-name="Path 175" d="M310.6,301.322c.143.057.143.391,0,.745s-.373.6-.516.537-.142-.391,0-.745S310.462,301.264,310.6,301.322Z" fill="#040505"/>
              </g>
            </g>
            <path id="Path_176" data-name="Path 176" d="M310.652,252.584c-.17-.044-.333-.1-.5-.133" fill="none" stroke="#040505" stroke-miterlimit="10" stroke-width="1"/>
            <line id="Line_3" data-name="Line 3" y1="0.007" transform="translate(287.892 282.338)" fill="none" stroke="#040505" stroke-miterlimit="10" stroke-width="1"/>
            <path id="Path_177" data-name="Path 177" d="M287.224,275.4a16.843,16.843,0,0,1,.675,3.151,20.432,20.432,0,0,1,.178,2.359" fill="none" stroke="#040505" stroke-miterlimit="10" stroke-width="1"/>
            <path id="Path_178" data-name="Path 178" d="M287.462,274.158c.029.23.066.438.1.66a.614.614,0,0,1-.23.008" fill="none" stroke="#040505" stroke-miterlimit="10" stroke-width="1"/>
            <path id="Path_179" data-name="Path 179" d="M287.973,262.44c0,.023-.007.045-.007.06" fill="none" stroke="#040505" stroke-miterlimit="10" stroke-width="1"/>
            <path id="Path_180" data-name="Path 180" d="M314.151,251.882a8.111,8.111,0,0,0-.9.1h-.007" fill="none" stroke="#040505" stroke-miterlimit="10" stroke-width="1"/>
            <path id="Path_181" data-name="Path 181" d="M326.6,254.627a5.855,5.855,0,0,0-.49-.4" fill="none" stroke="#040505" stroke-miterlimit="10" stroke-width="1"/>
            <path id="Path_182" data-name="Path 182" d="M304.6,271.031l-.3,1.637-.463-.911-.22.381c-.065-.587-.779-.823-1.361-.926l-2.995-.529a4.094,4.094,0,0,0-1.171-.092c-1.18.135-2.193,1.276-3.352,1.017a2.106,2.106,0,0,1,.536-1.092c-1.045.5-2.236,1.214-2.31,2.371a2.728,2.728,0,0,0-2.419,1.907l.775-.81a1.052,1.052,0,0,1,.044.809l4.626-.774a2.082,2.082,0,0,0,1.143-.437,1.136,1.136,0,0,1,.229-.2.738.738,0,0,1,.3-.065,15.837,15.837,0,0,1,7.762,1.431C305.6,273.543,304.413,272.086,304.6,271.031Z" fill="#040505" stroke="#040505" stroke-miterlimit="10" stroke-width="1"/>
            <path id="Path_183" data-name="Path 183" d="M317.154,278.469a4.065,4.065,0,0,1,1.58-.534,8.123,8.123,0,0,1,4.278.5,2.423,2.423,0,0,1,.572.306,1.451,1.451,0,0,1,.424.533c.108.234.173.518.4.646.286.163.636-.031.906-.218a3.045,3.045,0,0,0-1.512-1.125,11.913,11.913,0,0,0-4.46-.942,4.513,4.513,0,0,0-3.5,1.176.915.915,0,0,0-.227.384.553.553,0,0,0,.269.581c.294.136.238.027.371-.18A2.993,2.993,0,0,1,317.154,278.469Z" fill="none" stroke="#040505" stroke-miterlimit="10" stroke-width="0.75"/>
            <path id="Path_184" data-name="Path 184" d="M314.982,279.764c-.057-.024-.124-.065-.116-.127a.148.148,0,0,1,.035-.068l.193-.25a5.337,5.337,0,0,1,1.01-1.084,2.683,2.683,0,0,1,1.471-.517,6.517,6.517,0,0,0-1.6,1.727.327.327,0,0,0-.049.3.337.337,0,0,0,.114.111c.233.162.492.3.718.463A5.584,5.584,0,0,1,314.982,279.764Z" fill="none" stroke="#040505" stroke-miterlimit="10" stroke-width="0.75"/>
            <path id="Path_185" data-name="Path 185" d="M300.222,278.417l-.517-.027a12.107,12.107,0,0,0-2.355.03,6.1,6.1,0,0,0-2.565,1c-.28.192-1.773,1.294-1.3,1.741.322.306,1.283-.465,1.511-.651a9.654,9.654,0,0,1,2.222-1.547A6.652,6.652,0,0,1,300.222,278.417Z" fill="none" stroke="#040505" stroke-miterlimit="10" stroke-width="0.75"/>
            <path id="Path_186" data-name="Path 186" d="M303,280.46q.429-.183.868-.337a2.088,2.088,0,0,0-.507-.442l-.508-.355a2.332,2.332,0,0,0,.265.543.467.467,0,0,1-.047.56Z" fill="none" stroke="#040505" stroke-miterlimit="10" stroke-width="0.75"/>
            <path id="Path_187" data-name="Path 187" d="M314.373,270.824l.3,1.636.463-.91.221.38c.065-.587.779-.822,1.361-.925l2.994-.53a4.1,4.1,0,0,1,1.171-.092c1.18.135,2.194,1.276,3.352,1.017a2.112,2.112,0,0,0-.535-1.092c1.044.5,2.235,1.214,2.309,2.372a2.725,2.725,0,0,1,2.419,1.907l-.774-.81a1.043,1.043,0,0,0-.044.809l-4.627-.774a2.084,2.084,0,0,1-1.142-.438,1.143,1.143,0,0,0-.23-.2.72.72,0,0,0-.3-.064,15.814,15.814,0,0,0-7.762,1.431C313.38,273.336,314.564,271.878,314.373,270.824Z" fill="#040505" stroke="#040505" stroke-miterlimit="10" stroke-width="1"/>
          </g>
          <g id="Group_48" data-name="Group 48">
            <path id="Path_188" data-name="Path 188" d="M331.029,285.525c.125.1.072.4.023.831-.048.45-.2.932-.356.9a1.266,1.266,0,0,1-.49-.324.882.882,0,0,1-.335-.736.856.856,0,0,1,.576-.646A.9.9,0,0,1,331.029,285.525Z" fill="#040505"/>
          </g>
          <g id="Group_49" data-name="Group 49">
            <path id="Path_189" data-name="Path 189" d="M329.515,294.059c-.151-.044-.088-.745-.027-1.63.109-.871.25-1.585.411-1.569a1.822,1.822,0,0,1,.771,1.724A1.71,1.71,0,0,1,329.515,294.059Z" fill="#040505"/>
          </g>
          <g id="Group_50" data-name="Group 50">
            <path id="Path_190" data-name="Path 190" d="M290.586,295.73c-.082-.008-.141-.122-.165-.307l-.007.086,0-.007,0-.072a1.685,1.685,0,0,1,.011-.5c.065-.418.241-.736.392-.71s.849.484.786.887a.686.686,0,0,1-.411.432l0-.035-.01.007,0,.041A1.878,1.878,0,0,1,290.586,295.73Z" fill="#040505"/>
          </g>
          <g id="Group_51" data-name="Group 51">
            <path id="Path_191" data-name="Path 191" d="M291.221,295.769a1.532,1.532,0,0,1,.164,1.108,2.907,2.907,0,0,1-.141.666,1.065,1.065,0,0,1-.1.218c-.035.078-.076.157-.112.168l.006-.068a.071.071,0,0,1-.032.007.14.14,0,0,1-.04-.007l-.006.054a3.627,3.627,0,0,1-.479-.407,1.018,1.018,0,0,1-.281-.749,1.052,1.052,0,0,1,.475-.713,1.882,1.882,0,0,1,.327-.181A.865.865,0,0,1,291.221,295.769Z" fill="#040505"/>
          </g>
          <g id="Group_52" data-name="Group 52">
            <path id="Path_192" data-name="Path 192" d="M287.335,274.833l.226.225.009.007.021.012a.136.136,0,0,0,.051.012.175.175,0,0,0,.126-.06l.019-.076a.277.277,0,0,1,.076.243.291.291,0,0,1-.324.238c-.152-.021-.883-.256-.855-.417.017-.1.307-.139.567-.149l0-.01a.3.3,0,0,1,.2.084.783.783,0,0,1,.058.063l.021.026.009.01.005.005Z" fill="#040505"/>
          </g>
          <path id="Path_193" data-name="Path 193" d="M353.333,258.784a.516.516,0,0,0-.1.512.954.954,0,0,0,.949.482c.43-.022.5-.289.92-.3a1.361,1.361,0,0,1,.9.364,1.567,1.567,0,0,1,.3,1.4c-.038.141-.178.831-.646,1.016-.178.06-.341.045-.452.2a.544.544,0,0,0-.074.422c.1.408.578.371.875.794a1.71,1.71,0,0,1,.119,1.3,2.186,2.186,0,0,1-.468.993c-.348.408-.6.4-.749.772-.052.126-.037.17-.044.793-.015,1-.06,1.105-.126,1.194-.156.223-.275.134-.779.519-.274.223-.549.438-.512.675.008.1.06.156.252.319.631.594.764.594.838.8.112.327-.118.519.045.749.111.149.267.111.475.223a1.245,1.245,0,0,1,.6.993c.023.616-.593,1.061-.971,1.335a5.974,5.974,0,0,1-1.647.8c-.467.164-.786.208-.942.5a.83.83,0,0,0,0,.712c.127.281.312.3.987.8.437.326.615.5.578.667-.022.1-.074.111-.148.312-.059.133-.119.311-.045.415s.282.111.49.022a2.593,2.593,0,0,1-.623,2.2,3.341,3.341,0,0,1-2.158.616.988.988,0,0,0-.727.126.614.614,0,0,0-.17.578c.1.408.719.52.823.534.378.075.474-.066.89,0,.052.015.7.134.749.408.022.134-.119.245-.423.5-1.031.861-1.12.95-1.142,1.1-.082.393.341.519.3,1.038a1.473,1.473,0,0,1-.7.994,1.689,1.689,0,0,1-1.142.222,4.067,4.067,0,0,1-1.246-.37c-.363-.149-.586-.275-.667-.2s-.008.3.074.482a3.149,3.149,0,0,1,.816,1.1,1.534,1.534,0,0,1,.222,1.239c-.23.5-.993.585-1.542.645a4.315,4.315,0,0,1-1.884-.223,1.742,1.742,0,0,1,.267,1.357,1.594,1.594,0,0,1-.393.7,2.376,2.376,0,0,1-1.29.919,2.737,2.737,0,0,1-1.573-.163c-.727-.215-1.149-.334-1.416-.727a1.157,1.157,0,0,0-.453-.5.565.565,0,0,0-.541,0c-.2.186-.052.646.1.927.178.312.319.275.8.742a9.464,9.464,0,0,0,.92.949,2.062,2.062,0,0,0,.519.327,1.5,1.5,0,0,0,1.216-.238,1.118,1.118,0,0,1,.06.927,1.157,1.157,0,0,1-.92.668c-.549.022-1.1.029-1.646.052a4.621,4.621,0,0,1-1.1.37,2.876,2.876,0,0,1-1.721.06,1.618,1.618,0,0,0-.741-.178c-.126,0-.364,0-.43.118s.089.29.185.431a1.83,1.83,0,0,1,.223,1.609c-.127.252-.364.386-.846.623a4.558,4.558,0,0,1-1.327.43,2.614,2.614,0,0,1-1.736-.059c-.059-.03-.126-.074-.185-.1a2.467,2.467,0,0,1-.638-.712c-.045-.074-.089-.148-.126-.223v-.014a.008.008,0,0,0-.008-.008c-.081-1.186-.111-2.388.764-3.1a7.152,7.152,0,0,0,.045-3.893c-.178.074-.356.163-.534.244.549-2.054-.386-7.208-.853-9.285a9.683,9.683,0,0,1,.927-2.959.007.007,0,0,1,.007-.007v-.008c.1-1.52.423-3.033.542-4.561a32.638,32.638,0,0,0-1.276-9.8c-.415-1.8-.949-3.782-2.492-4.821a2.324,2.324,0,0,1-.652-.519,2,2,0,0,1-.29-.816,5.806,5.806,0,0,0-.163-.6V257.7a5.308,5.308,0,0,0-1.55-1.127,4.9,4.9,0,0,1-.474-1.943v-.215a1.093,1.093,0,0,1,.007-.148.917.917,0,0,0-.148-.008c-.119-.015-.23-.022-.349-.037-.823-.074-1.639-.119-2.469-.133a1.476,1.476,0,0,0-1.024-1.039,4.576,4.576,0,0,0-1.52-.126,5.847,5.847,0,0,0-2.477.445c-.282-.489-.994-.46-1.55-.348-.564.1-1.254.141-1.565-.334a2.008,2.008,0,0,1-1.357-.808,1.914,1.914,0,0,1-.23-.394c-.23.164-.445.327-.675.505-.215.155-.43.311-.638.474a1.264,1.264,0,0,1-1.431.267c-.171-.044-.341-.1-.519-.148h-.008a6.96,6.96,0,0,1-2.618.156,1.045,1.045,0,0,1-.489-.171c-.134-.089-.23-.23-.371-.311a1.067,1.067,0,0,0-.92.067q-1.3.5-2.58,1a.943.943,0,0,1-.794.059,2.071,2.071,0,0,1-.371-.393,1.347,1.347,0,0,0-1.513-.111c-.5.23-.9.615-1.379.86a7.048,7.048,0,0,1-1.743.46,13.922,13.922,0,0,0-7.743,4.472,6.229,6.229,0,0,0-1.72,3.493c-.022.259-.43.5-.445.334-.067.9.727,1.661.882,2.558.178,1.046-.548,2.01-.993,2.982a8.167,8.167,0,0,0-.631,3.6,21.833,21.833,0,0,0,.238,2.507v.007c-.045.208-.089.423-.134.667a.608.608,0,0,1-.4-.252c.111.267.207.542.3.816v.008a5.2,5.2,0,0,0-.081.845,9.086,9.086,0,0,0,.141,1.691,14.786,14.786,0,0,0,.482,1.817.1.1,0,0,1,.007.044c.156.52.237.846.3,1.113v.007a4.649,4.649,0,0,1-.185,1.424v-.022a.294.294,0,0,0-.023-.111c-.133-.445-.229-.5-.341-.3v.007c-.015.03-.029.052-.052.089-.029.089-.074.2-.111.342a9.875,9.875,0,0,0-.252,2.024,18.569,18.569,0,0,0,.134,3.909c.163,1.2.363,2.64-.557,3.426.223-.022.438-.052.653-.074-.03,1.728-.059,3.448-.082,5.169.512.074.252.868-.126,1.224.49-.119.586.652.505,1.142a5.631,5.631,0,0,0-.075.793,1.182,1.182,0,0,1-.467-.534c-.163-.393.03-.667-.2-.9a1.011,1.011,0,0,0-.653-.178c-.252.037-.3.133-.519.133a.791.791,0,0,1-.578-.274c-.238-.349,0-.92.074-1.105.156-.326.319-.482.252-.69-.044-.148-.2-.23-.267-.274-.222-.1-.5-.126-1.239.1a4.151,4.151,0,0,0-1.349.556,4.874,4.874,0,0,0-.95.92c-.489.534-.571.7-.875.808a.884.884,0,0,1-1.216-1.194c.141-.326.363-.282.668-.719a2.283,2.283,0,0,0,.385-.9,2.368,2.368,0,0,0-.03-1.008c-.051-.216-.111-.534-.252-.549-.089-.022-.178.111-.3.267a6.266,6.266,0,0,1-.727.667,2.2,2.2,0,0,1-1.009.653.829.829,0,0,1-.749-.1.711.711,0,0,1-.2-.593,1.384,1.384,0,0,1,.326-.772c.312-.467.505-.534.519-.793a.756.756,0,0,0-.2-.5,1.026,1.026,0,0,0-.793-.326.691.691,0,0,0-.571.1c-.164.149-.045.327-.178.7-.03.074-.186.548-.445.563-.238.03-.438-.333-.571-.563a3.4,3.4,0,0,1-.386-1.2,6.321,6.321,0,0,1,0-1.513A2.733,2.733,0,0,0,276.2,289.3c.067-.23.208-.675-.022-.92a.837.837,0,0,0-.556-.178,1.966,1.966,0,0,0-.786.149c-.69.274-.727.423-1.194.578a2.112,2.112,0,0,1-1.1.1,1.884,1.884,0,0,1-1.068-.794c-.148-.215-.289-.408-.222-.593.074-.23.363-.178.8-.43a1.934,1.934,0,0,0,.786-.816,1.232,1.232,0,0,0,.074-1.075,1.208,1.208,0,0,0-.638-.468,1.238,1.238,0,0,0-.727-.148c-.185.022-.326.119-.652.415-.683.638-.727.838-1.113,1.053a1.1,1.1,0,0,1-.831.178c-.266-.126-.37-.437-.489-.83a4.521,4.521,0,0,1-.148-1.32,2.922,2.922,0,0,1,.052-.957,5.84,5.84,0,0,1,.511-.853,2.139,2.139,0,0,0,.364-.771,1.508,1.508,0,0,0-.29-.846c-.185-.333-.244-.281-.667-.793-.371-.467-.423-.645-.719-.8a4.054,4.054,0,0,0-.49-.186,2.129,2.129,0,0,1-.9-.467,1.538,1.538,0,0,1-.37-.845,1.5,1.5,0,0,1,.126-1.113c.215-.326.474-.3.675-.7a.789.789,0,0,0,.1-.49.911.911,0,0,0-.452-.549,1.848,1.848,0,0,0-.712-.318c-.468-.134-.549-.037-.846-.164a1.8,1.8,0,0,1-.7-.534c-.438-.437-.705-.7-.705-1.075a.94.94,0,0,1,.23-.571c.319-.4.757-.378,2.107-.793.348-.1.586-.2.7-.416a.885.885,0,0,0-.045-.712.978.978,0,0,0-.549-.445c-.207-.059-.289.008-.623.03a1.856,1.856,0,0,1-.9-.126,1.791,1.791,0,0,1-.675-.771,3.468,3.468,0,0,1-.3-.646c-.008-.059-.015-.133-.023-.215a3.7,3.7,0,0,0,.275-1.194,2.4,2.4,0,0,1,.949-.816c.549-.259.667-.074,1.609-.445a3.8,3.8,0,0,0,.9-.519c.326-.237.415-.393.422-.541a.519.519,0,0,0-.148-.378c-1.12-.03-2.232-.06-3.359-.1a1.411,1.411,0,0,1-.868-.526,1.393,1.393,0,0,1-.252-.875,2.17,2.17,0,0,1,.422-1.165,2.077,2.077,0,0,1,.549-.623,1.787,1.787,0,0,1,.9-.267,14.234,14.234,0,0,1,1.861-.074,2.032,2.032,0,0,0,.542-.5,1.2,1.2,0,0,0,.348-.846.486.486,0,0,0-.793-.474,1.893,1.893,0,0,1-1.291.029,2.1,2.1,0,0,0-.2-.267,3.591,3.591,0,0,0-1.149-1.023c-.49-.26-.668-.156-.942-.445a1.009,1.009,0,0,1,0-1.454,1.666,1.666,0,0,1,1.046-.563c.541-.089.682.148,1.09,0a1.244,1.244,0,0,0,.675-.653,1.335,1.335,0,0,0-.023-.994,1.3,1.3,0,0,0-.348-.571,1.442,1.442,0,0,0-.653-.326c-.645-.185-1.053-.986-1.364-1.617a4.978,4.978,0,0,1-.475-2.684.853.853,0,0,1,.43-.349c.386-.141.653.156,1.142.022a.771.771,0,0,0,.519-.319c.171-.281-.022-.541.052-.993a1.457,1.457,0,0,1,.3-.646c.764,0,1.528.008,2.284.023a1.252,1.252,0,0,0,.549-.2,1.377,1.377,0,0,0,.526-.793.987.987,0,0,0,.023-.772.921.921,0,0,0-.252-.3,4.816,4.816,0,0,1-1.766-.118,4.759,4.759,0,0,1-1.757-.853,1.522,1.522,0,0,1-.178-.69,2,2,0,0,1,.645-1.3,2.367,2.367,0,0,1,1.29-.919,3.292,3.292,0,0,1,1.973.549c.534.274.853.526,1.068.4s.178-.549.178-.623a1.556,1.556,0,0,0-.326-.727,4.545,4.545,0,0,0-.683-.689,3.4,3.4,0,0,1-.838-1.269,2.14,2.14,0,0,1,.052-1.468c.4-.92,1.558-1.446,1.936-1.172.274.186.111.727.393.846.223.089.5-.134.549-.178.208-.149.386-.438.311-.571-.059-.082-.2-.06-.385-.075a2.5,2.5,0,0,1-1.061-.415,2.3,2.3,0,0,1-.875-.653,1.1,1.1,0,0,1-.245-.749c.037-.422.431-.682.846-.971a2.631,2.631,0,0,1,1.468-.623,2.44,2.44,0,0,1,1.795.92c.3.4.311.711.7.875a1,1,0,0,0,.86,0c.1-.045.075-.067.356-.267.2-.164.282-.193.3-.282.015-.119-.156-.237-.274-.326-.876-.579-1.113-.638-1.194-.89a.862.862,0,0,1,.118-.668c.156-.252.364-.3.349-.423-.008-.052-.052-.178-.72-.326-.867-.193-1.1-.037-1.542-.274a1.022,1.022,0,0,1-.571-.616,1.011,1.011,0,0,1,.126-.653,4.019,4.019,0,0,1,1.112-1.32,5.28,5.28,0,0,1,1.083-.815,2.307,2.307,0,0,1,1.862-.045,2.8,2.8,0,0,1,1.082,1.113c.253.385.327.682.623.771a.666.666,0,0,0,.653-.178.64.64,0,0,0,.148-.475.808.808,0,0,0-.222-.423,6.642,6.642,0,0,1-.623-.808,1.309,1.309,0,0,1-.149-1.127,1.056,1.056,0,0,1,.6-.505c.423-.007.838-.022,1.268-.044a1.289,1.289,0,0,0-.022-.623c-.081-.222-.185-.252-.252-.415-.185-.43.126-.964.3-1.246a1.9,1.9,0,0,1,.719-.772,1.413,1.413,0,0,1,1.216-.207c.6.274.712,1.194.72,1.372.066.593-.141.749.037,1.09a1.388,1.388,0,0,0,1.038.608c.148.008.6.06.757-.178.1-.163.007-.408-.038-.549a.988.988,0,0,0-.2-.37,11.158,11.158,0,0,0-.741-.994,7.659,7.659,0,0,1-1.187-1.6,2.7,2.7,0,0,1-.43-1.246,1.762,1.762,0,0,1,.178-1.016,1.169,1.169,0,0,1,.7-.638c.141-.044.252-.007.868.223.912.341,1.038.393,1.268.37.341-.044.356-.215.719-.252a1.485,1.485,0,0,1,.9.252,2.661,2.661,0,0,1,1.016,1.639c.111.468.066.757.326.964a1.019,1.019,0,0,0,.653.208,1.856,1.856,0,0,0,1.016-.3,2.147,2.147,0,0,0,.793-.793,1.205,1.205,0,0,0,.178-.593c-.007-.238-.1-.282-.148-.534a1.3,1.3,0,0,1,.1-.794c.141-.348.3-.289.6-.7a9.8,9.8,0,0,0,.467-.972,2.243,2.243,0,0,1,.527-.689,2.271,2.271,0,0,1,2.232-.111,1.526,1.526,0,0,1,.823.652,2.151,2.151,0,0,1,.052,1.142,2.27,2.27,0,0,0-.074.7.838.838,0,0,0,.319.623.925.925,0,0,0,.793-.074,1.726,1.726,0,0,0,.831-.571,2,2,0,0,0,.312-.793c.163-.586.051-.69.207-.92a1.334,1.334,0,0,1,.875-.475c.453-.1.594.06.89-.1a1.25,1.25,0,0,0,.5-.564,2.5,2.5,0,0,0,.171-.949,2.172,2.172,0,0,1,.623-1.4,1.957,1.957,0,0,1,2.291.653c.364.467.215.786.594,1.268a2.434,2.434,0,0,0,1.446.764c.608.415.741.771.741,1.016s-.133.43-.022.623a.6.6,0,0,0,.579.252.68.68,0,0,0,.519-.371c.067-.141.052-.259.029-.6a6.091,6.091,0,0,1-.074-.824,1.352,1.352,0,0,1,.861-1.164,3.313,3.313,0,0,1,1.246.074.654.654,0,0,0,.5-.044c.06-.045.126-.111.23-.4.163-.489.082-.593.223-.771a.887.887,0,0,1,.541-.3.824.824,0,0,1,.579,0c.2.1.178.275.385.371a.507.507,0,0,0,.482-.03c.156-.118.082-.318.178-.623a1.372,1.372,0,0,1,.468-.637c.356-.275.793-.186,1.512-.052a2.9,2.9,0,0,1,1.543.549c.1.074.111.1.757,1.06a7.549,7.549,0,0,0,1.134,1.394.805.805,0,0,0,.579.3c.17,0,.274-.1.526-.267a3.908,3.908,0,0,1,.942-.571,5.245,5.245,0,0,1,.942-.1,1.617,1.617,0,0,0,.719-.134,1.262,1.262,0,0,0,.453-.437c.163-.267.1-.342.252-.675a1.489,1.489,0,0,1,.541-.749,1.365,1.365,0,0,1,.653-.2,1.292,1.292,0,0,1,.786.178,1.243,1.243,0,0,1,.5.549,1.6,1.6,0,0,1,.119.712,6,6,0,0,0,.052.92c.1.333.386.541.957.949a6.437,6.437,0,0,0,1.112.668c.742.363,1.253.6,1.669.385a1.349,1.349,0,0,0,.267-.252c.408-.46.356-.808.593-1.172a1.866,1.866,0,0,1,1.172-.667,2.609,2.609,0,0,1,1.572.148c.415.148.92.334,1.038.742a1.961,1.961,0,0,1,0,.771,1.616,1.616,0,0,0-.014.593c.044.23.14.23.326.549.237.445.215.705.371.72.133.022.267-.179.37-.319a1.746,1.746,0,0,0,.267-.623,2.069,2.069,0,0,1,1.083-1.113,1.959,1.959,0,0,1,1.929,0c.5.334.622.883.852,1.958a1.812,1.812,0,0,1,.052.794,1.771,1.771,0,0,1-1,1.127.609.609,0,0,0-.349.2.647.647,0,0,0-.074.571c.119.371.482.3.972.771.356.342.363.564.712.75a1.408,1.408,0,0,0,.549.118,2.858,2.858,0,0,1,2.625-1.639,1.455,1.455,0,0,1,1.038.6c.089.163.208.489-.3,2.084-.356,1.09-.557,1.394-.371,1.646.23.319.942.252,1.409.074.623-.244.653-.608,1.491-1.275.615-.482,1.053-.823,1.579-.742a1.261,1.261,0,0,1,1.039,1.113c0,.141-.06.281-.9,1.127-.66.667-.779.734-.816.964-.1.5.327.675.223,1.2-.074.348-.3.407-.6.889a2.976,2.976,0,0,0-.371,1.046,1.8,1.8,0,0,1,1.172-.1c.341.1.356.252.794.467a2.34,2.34,0,0,0,1.3.274,8.794,8.794,0,0,0,1.268-.445c.778-.252.9-.2.964-.155.289.237.007,1.016-.022,1.1-.267.727-.7.816-1.291,1.765-.43.7-.393.95-.378,1.024.126.549.882.8,1.023.845,1.142.378,1.706-.4,3.108-.1a1.674,1.674,0,0,1,1.09.579,1.75,1.75,0,0,1,.059,1.535c-.437.757-.867,1.52-1.3,2.269a6.523,6.523,0,0,1,.082,1.024c-.015.571-.1.845.089,1.038a.616.616,0,0,0,.6.148c.326-.081.341-.415.667-.726a1.466,1.466,0,0,1,1.15-.371c.689.178,1.112,1.387.838,2.269a2.977,2.977,0,0,1-1.387,1.513c-.534.341-1.031.482-1.409,1.076-.082.111-.319.459-.208.6s.542.037.875-.155c.482-.282.445-.609.964-.972a1.039,1.039,0,0,1,.749-.274c.542.111.779,1.082.794,1.7a2.4,2.4,0,0,1-.3,1.268c-.363.638-.756.542-1.246,1.246a1.707,1.707,0,0,0-.422,1.32,1.223,1.223,0,0,0,.667.838c.156.067.312.074,1.253-.067.831-.14.979-.192,1.165-.074.385.23.378.861.378.942a1.354,1.354,0,0,1-.749,1.165c-.415.178-.6-.06-1.046.1a1.629,1.629,0,0,0-.875.89,1.851,1.851,0,0,0,.208,1.921c.311.341.742.438,1.565.593.927.186,1.216.052,1.409.3a1.553,1.553,0,0,1-.393,1.795,4.97,4.97,0,0,1-3.108.816A.67.67,0,0,0,353.333,258.784Z" fill="#040505" stroke="#040505" stroke-miterlimit="10" stroke-width="1"/>
          <g id="Group_53" data-name="Group 53">
            <path id="Path_194" data-name="Path 194" d="M326.69,254.032c.108-.109.233-.155.279-.1s-.01.177-.126.277a5.228,5.228,0,0,1-.744.537A5.422,5.422,0,0,1,326.69,254.032Z" fill="#040505"/>
          </g>
        </g>
        <path id="Path_195" data-name="Path 195" d="M318.839,278.033c-.127.169-.023.451.134.873a1.81,1.81,0,0,0,.548.894,1.438,1.438,0,0,0,1.521.168,1.884,1.884,0,0,0,.917-1.018c.158-.358.253-.575.156-.749-.179-.321-.767-.052-2.091-.179C319.334,277.956,318.989,277.835,318.839,278.033Z" fill="#040505"/>
        <path id="Path_196" data-name="Path 196" d="M297.411,278.7c-.113.15-.02.4.119.773a1.6,1.6,0,0,0,.485.792,1.274,1.274,0,0,0,1.347.148,1.656,1.656,0,0,0,.811-.9c.14-.317.225-.509.139-.663-.159-.285-.679-.046-1.851-.158C297.849,278.633,297.543,278.526,297.411,278.7Z" fill="#040505"/>
      </g>
      <g id="Group_56" data-name="Group 56">
        <path id="Path_197" data-name="Path 197" d="M277.791,364.479h-5.933l0-9.232V334.028l6.273-5.726h-7.056V317.211h5.933v5.158h16.424l-15.642,14.276v18.6Z" fill="#040505"/>
        <path id="Path_198" data-name="Path 198" d="M295.9,364.479h-5.933V341.868H278.38v-5.933H295.9Z" fill="#040505"/>
        <path id="Path_199" data-name="Path 199" d="M321.227,365.175H296.849V331.557h24.677v9.96h-5.933V337.49H302.782v21.753h12.512v-3.858h5.933Z" fill="#040505"/>
        <path id="Path_200" data-name="Path 200" d="M313.954,370.927h-5.933V356.07l.075-.306a.791.791,0,0,0-.085-.123,4.1,4.1,0,0,0-1.651-1.014,2.313,2.313,0,0,0-.763-.117h-2.16v-5.933h2.16a8.169,8.169,0,0,1,2.87.5,9.611,9.611,0,0,1,4.142,2.811,6.019,6.019,0,0,1,1.345,4.84Zm-5.844-15.218Z" fill="#040505"/>
        <path id="Path_201" data-name="Path 201" d="M346.219,365.135H321.842V331.516h24.677v11.127h-5.933v-5.194h-12.81V359.2h12.511v-3.858h5.933Z" fill="#040505"/>
        <path id="Path_202" data-name="Path 202" d="M343.552,350.962h-11.9V338.281h5.933v6.748l8.934,0,.005,5.929Z" fill="#040505"/>
      </g>
      <g id="ayawekem">
        <g id="Group_57" data-name="Group 57">
          <path id="Path_203" data-name="Path 203" d="M285.861,383.331h-1.483V374.9l2.279-1.643H284.1v-2.988h1.483v1.5h5.663l-5.388,3.886Z" fill="#040505"/>
          <path id="Path_204" data-name="Path 204" d="M292.2,383.331h-1.483V377h-4.351V375.52H292.2Z" fill="#040505"/>
        </g>
        <g id="Group_58" data-name="Group 58">
          <path id="Path_205" data-name="Path 205" d="M294.942,384.1l-1-1.094,1.481-1.358-2.308-3.668V373.6H294.6v3.951l2.739,4.353Z" fill="#040505"/>
          <path id="Path_206" data-name="Path 206" d="M299.987,378.028H294.9v-1.483H298.5v-3.288c-.356,0-.715,0-1.074,0q-2.167.011-4.29.069l-.04-1.484q2.139-.057,4.324-.068.918,0,1.825,0l.739,0Z" fill="#040505"/>
        </g>
        <g id="Group_59" data-name="Group 59">
          <path id="Path_207" data-name="Path 207" d="M311.005,383.823H300.621V371.81l10.384-.04Zm-8.9-1.483h7.417v-9.081l-7.417.029Z" fill="#040505"/>
          <rect id="Rectangle_9" data-name="Rectangle 9" width="1.483" height="10.549" transform="translate(305.071 372.76)" fill="#040505"/>
          <rect id="Rectangle_10" data-name="Rectangle 10" width="2.491" height="1.483" transform="translate(310.306 376.782)" fill="#040505"/>
        </g>
        <g id="Group_60" data-name="Group 60">
          <path id="Path_208" data-name="Path 208" d="M317.782,384.033H316.3v-9H313.29v-3.2h1.483v1.721h3.009Z" fill="#040505"/>
          <path id="Path_209" data-name="Path 209" d="M320.933,381.262H313.16v-5.39h7.773Zm-6.29-1.484h4.806v-2.422h-4.806Z" fill="#040505"/>
        </g>
        <g id="Group_61" data-name="Group 61">
          <path id="Path_210" data-name="Path 210" d="M326.94,376.937h-5.617v-5.456h5.617Zm-4.134-1.483h2.65v-2.489h-2.65Z" fill="#040505"/>
          <path id="Path_211" data-name="Path 211" d="M334.647,376.937H329.03v-5.456h5.617Zm-4.133-1.483h2.65v-2.489h-2.65Z" fill="#040505"/>
          <rect id="Rectangle_11" data-name="Rectangle 11" width="8.701" height="1.484" transform="matrix(0.518, -0.855, 0.855, 0.518, 321.052, 383.251)" fill="#040505"/>
          <rect id="Rectangle_12" data-name="Rectangle 12" width="4.453" height="1.483" transform="translate(325.758 371.481)" fill="#040505"/>
        </g>
      </g>
    </g>
  </g>
</svg>
