<svg xmlns="http://www.w3.org/2000/svg" width="131.968" height="121.269" viewBox="0 0 131.968 121.269">
  <g id="Ermyas" transform="translate(-482.535 -259.936)">
    <g id="Logo">
      <path id="Path_212" data-name="Path 212" d="M520.694,270.989l25.936,30.938-25.365,18.219,38.194,34.841L540.575,319.53l26.152-21.193-31-38.4Z" fill="#fe0"/>
      <path id="Path_213" data-name="Path 213" d="M545.037,271.288a41.552,41.552,0,1,0,41.551,41.551A41.554,41.554,0,0,0,545.037,271.288Zm0,72.8a31.244,31.244,0,1,1,31.244-31.244A31.243,31.243,0,0,1,545.037,344.083Z" fill="#e50019"/>
    </g>
    <g id="Group_62" data-name="Group 62">
      <path id="Path_214" data-name="Path 214" d="M482.535,368.879v-5.3h5.105v.712h-4.218v1.475H486v.7h-2.578v1.685h4.258v.727Z" fill="#ffe700"/>
      <path id="Path_215" data-name="Path 215" d="M489.421,368.879v-4.353h3.5a1.011,1.011,0,0,1,.7.2.846.846,0,0,1,.213.645v.973a.831.831,0,0,1-.213.637,1.022,1.022,0,0,1-.7.2h-.576l1.921,1.7h-1.1l-1.735-1.7h-1.189v1.7Zm3.139-3.716h-2.317v1.4h2.317a.554.554,0,0,0,.371-.09.482.482,0,0,0,.1-.351V365.6a.473.473,0,0,0-.1-.341A.514.514,0,0,0,492.56,365.163Z" fill="#ffe700"/>
      <path id="Path_216" data-name="Path 216" d="M496.372,365.334c0,.063,0,.15.01.26.006.181.01.3.01.346v2.939h-.677v-4.353h.677l2.167,2.824,1.991-2.824h.762v4.353h-.762V365.94c0-.107,0-.21.012-.311a2.9,2.9,0,0,1,.038-.29,3.462,3.462,0,0,1-.145.363,1.248,1.248,0,0,1-.141.238l-1.675,2.252h-.216l-1.735-2.232a1.745,1.745,0,0,1-.171-.27A2.436,2.436,0,0,1,496.372,365.334Z" fill="#ffe700"/>
      <path id="Path_217" data-name="Path 217" d="M504.136,368.879h-.818v-4.343h.818Z" fill="#ffe700"/>
      <path id="Path_218" data-name="Path 218" d="M505.42,368.879l2.517-4.353h.753l2.578,4.353h-.893l-.567-1.018H506.8l-.557,1.018Zm1.725-1.645h2.312l-1.158-2.071Z" fill="#ffe700"/>
      <path id="Path_219" data-name="Path 219" d="M516.413,365.173h-3.054V366.3h2.793a1.228,1.228,0,0,1,.836.213,1.128,1.128,0,0,1,.223.815v.521a1.14,1.14,0,0,1-.219.815,1.221,1.221,0,0,1-.84.213H513.5a1.245,1.245,0,0,1-.845-.213,1.124,1.124,0,0,1-.223-.815v-.12l.752-.156v.647h3.286V367h-2.8a1.221,1.221,0,0,1-.838-.214,1.135,1.135,0,0,1-.22-.815v-.411a1.148,1.148,0,0,1,.22-.815,1.208,1.208,0,0,1,.838-.218h2.422a1.255,1.255,0,0,1,.838.211.975.975,0,0,1,.23.742v.105l-.747.161Z" fill="#ffe700"/>
      <path id="Path_220" data-name="Path 220" d="M528.29,364.3h-4.153v3.842h4.153v-1.555h-2.147v-.677h3.029v1.715a1.422,1.422,0,0,1-.26.991,1.387,1.387,0,0,1-.983.263H524.5a1.377,1.377,0,0,1-.985-.265,1.427,1.427,0,0,1-.259-.989v-2.793a1.424,1.424,0,0,1,.259-.988,1.376,1.376,0,0,1,.985-.266h3.431a1.411,1.411,0,0,1,.978.258,1.293,1.293,0,0,1,.265.936v.13l-.882.176Z" fill="#ffe700"/>
      <path id="Path_221" data-name="Path 221" d="M531.349,368.879v-4.353h4.383v.647h-3.561v1.118h2.147v.648h-2.147v1.3h3.6v.637Z" fill="#ffe700"/>
      <path id="Path_222" data-name="Path 222" d="M538.015,365.4c.02.127.035.255.045.386s.015.261.015.391v2.7h-.758v-4.353h.627l3.2,2.844a2.7,2.7,0,0,1,.269.266,3.367,3.367,0,0,1,.253.331c-.024-.131-.041-.263-.053-.4s-.017-.272-.017-.416v-2.628h.757v4.353h-.562L538.526,366c-.114-.108-.211-.209-.293-.3A2.443,2.443,0,0,1,538.015,365.4Z" fill="#ffe700"/>
      <path id="Path_223" data-name="Path 223" d="M544.364,368.879v-4.353h4.384v.647h-3.562v1.118h2.147v.648h-2.147v1.3h3.6v.637Z" fill="#ffe700"/>
      <path id="Path_224" data-name="Path 224" d="M550.332,368.879v-4.353h3.5a1.015,1.015,0,0,1,.7.2.846.846,0,0,1,.213.645v.973a.831.831,0,0,1-.213.637,1.026,1.026,0,0,1-.7.2h-.577l1.921,1.7h-1.1l-1.736-1.7h-1.188v1.7Zm3.14-3.716h-2.317v1.4h2.317a.556.556,0,0,0,.371-.09.487.487,0,0,0,.095-.351V365.6a.473.473,0,0,0-.1-.341A.516.516,0,0,0,553.472,365.163Z" fill="#ffe700"/>
      <path id="Path_225" data-name="Path 225" d="M556.1,368.879l2.518-4.353h.752l2.578,4.353h-.893l-.567-1.018h-3.009l-.557,1.018Zm1.725-1.645h2.312l-1.158-2.071Z" fill="#ffe700"/>
      <path id="Path_226" data-name="Path 226" d="M563.257,368.879v-4.353h.822v3.7h3.386v.657Z" fill="#ffe700"/>
      <path id="Path_227" data-name="Path 227" d="M572.961,368.879v-5.3h5.106v.712h-4.218v1.475h2.578v.7h-2.578v1.685h4.258v.727Z" fill="#ffe700"/>
      <path id="Path_228" data-name="Path 228" d="M579.847,368.879v-4.353h.823v3.7h3.385v.657Z" fill="#ffe700"/>
      <path id="Path_229" data-name="Path 229" d="M585.344,368.879v-4.353h4.384v.647h-3.561v1.118h2.146v.648h-2.146v1.3h3.6v.637Z" fill="#ffe700"/>
      <path id="Path_230" data-name="Path 230" d="M595.069,365.173H592.03v3.049h3.039v-1.038l.823.156v.511a1.128,1.128,0,0,1-.224.813,1.232,1.232,0,0,1-.845.215h-2.558a1.244,1.244,0,0,1-.84-.208,1.143,1.143,0,0,1-.218-.82v-2.292a1.145,1.145,0,0,1,.221-.82,1.222,1.222,0,0,1,.837-.213h2.558a1.225,1.225,0,0,1,.845.218,1.137,1.137,0,0,1,.224.815v.411l-.823.136Z" fill="#ffe700"/>
      <path id="Path_231" data-name="Path 231" d="M599.733,365.173v3.706h-.817v-3.706H596.86v-.647h4.94v.647Z" fill="#ffe700"/>
      <path id="Path_232" data-name="Path 232" d="M603.034,368.879v-4.353h3.5a1.011,1.011,0,0,1,.7.2.846.846,0,0,1,.213.645v.973a.831.831,0,0,1-.213.637,1.022,1.022,0,0,1-.7.2h-.577l1.921,1.7h-1.1l-1.735-1.7h-1.189v1.7Zm3.139-3.716h-2.317v1.4h2.317a.554.554,0,0,0,.371-.09.482.482,0,0,0,.095-.351V365.6a.473.473,0,0,0-.1-.341A.516.516,0,0,0,606.173,365.163Z" fill="#ffe700"/>
      <path id="Path_233" data-name="Path 233" d="M609.222,365.559a1.127,1.127,0,0,1,.226-.815,1.227,1.227,0,0,1,.843-.218h3.144a1.229,1.229,0,0,1,.843.218,1.132,1.132,0,0,1,.225.815v2.292a1.128,1.128,0,0,1-.223.813,1.232,1.232,0,0,1-.845.215h-3.144a1.244,1.244,0,0,1-.848-.213,1.134,1.134,0,0,1-.221-.815Zm.823,2.663h3.636v-3.049h-3.636Z" fill="#ffe700"/>
      <path id="Path_234" data-name="Path 234" d="M483.247,376.852c.013.1.023.212.03.326s.01.264.01.451V381.2h-.752v-5.3h.722l2.578,3.45,2.4-3.45h.813v5.3h-.813v-3.576c0-.047.006-.165.018-.353s.019-.331.022-.424c-.067.137-.126.252-.178.346a2.558,2.558,0,0,1-.138.226l-2.026,2.948h-.226L483.6,377.5s-.012-.015-.025-.035A2.293,2.293,0,0,1,483.247,376.852Z" fill="#ffe700"/>
      <path id="Path_235" data-name="Path 235" d="M491.442,381.2v-4.353h4.383v.647h-3.56v1.118h2.146v.647h-2.146v1.3h3.6v.637Z" fill="#ffe700"/>
      <path id="Path_236" data-name="Path 236" d="M501.167,377.5h-3.04v3.049h3.04V379.51l.822.155v.512a1.123,1.123,0,0,1-.223.812,1.233,1.233,0,0,1-.845.216h-2.558a1.244,1.244,0,0,1-.84-.208,1.145,1.145,0,0,1-.218-.82v-2.292a1.139,1.139,0,0,1,.221-.82,1.222,1.222,0,0,1,.837-.213h2.558a1.221,1.221,0,0,1,.845.218,1.135,1.135,0,0,1,.223.815v.411l-.822.136Z" fill="#ffe700"/>
      <path id="Path_237" data-name="Path 237" d="M503.74,381.2v-4.343h.822v1.745h3.471v-1.745h.822V381.2h-.822v-1.941h-3.471V381.2Z" fill="#ffe700"/>
      <path id="Path_238" data-name="Path 238" d="M511.563,377.724c.02.128.035.256.046.386s.015.261.015.392v2.7h-.758v-4.353h.627l3.195,2.843a2.693,2.693,0,0,1,.268.266,3.188,3.188,0,0,1,.253.331c-.023-.13-.04-.262-.052-.4s-.018-.272-.018-.416v-2.628h.758V381.2h-.562l-3.26-2.884a3.841,3.841,0,0,1-.293-.3A2.577,2.577,0,0,1,511.563,377.724Z" fill="#ffe700"/>
      <path id="Path_239" data-name="Path 239" d="M518.71,381.2h-.817v-4.343h.817Z" fill="#ffe700"/>
      <path id="Path_240" data-name="Path 240" d="M524.463,377.5h-3.039v3.049h3.039V379.51l.823.155v.512a1.123,1.123,0,0,1-.224.812,1.231,1.231,0,0,1-.845.216h-2.558a1.244,1.244,0,0,1-.84-.208,1.145,1.145,0,0,1-.218-.82v-2.292a1.143,1.143,0,0,1,.221-.82,1.222,1.222,0,0,1,.837-.213h2.558a1.219,1.219,0,0,1,.845.218,1.135,1.135,0,0,1,.224.815v.411l-.823.136Z" fill="#ffe700"/>
      <path id="Path_241" data-name="Path 241" d="M526.323,381.2l2.518-4.353h.753l2.577,4.353h-.892l-.567-1.018H527.7l-.557,1.018Zm1.726-1.645h2.312l-1.159-2.071Z" fill="#ffe700"/>
      <path id="Path_242" data-name="Path 242" d="M533.476,381.2v-4.353h.822v3.7h3.385v.657Z" fill="#ffe700"/>
      <path id="Path_243" data-name="Path 243" d="M544.058,381.2l-1.921-5.3h.893l1.434,4.213,1.565-4.213h.541l1.51,4.213,1.45-4.213h.792l-1.921,5.3h-.657l-1.469-4.007-1.52,4.007Z" fill="#ffe700"/>
      <path id="Path_244" data-name="Path 244" d="M551.551,377.885a1.13,1.13,0,0,1,.225-.815,1.224,1.224,0,0,1,.843-.218h3.145a1.219,1.219,0,0,1,.842.218,1.125,1.125,0,0,1,.226.815v2.292a1.124,1.124,0,0,1-.223.812,1.233,1.233,0,0,1-.845.216h-3.145a1.239,1.239,0,0,1-.847-.213,1.131,1.131,0,0,1-.221-.815Zm.822,2.663h3.636V377.5h-3.636Z" fill="#ffe700"/>
      <path id="Path_245" data-name="Path 245" d="M558.743,381.2v-4.353h3.5a1.01,1.01,0,0,1,.7.2.845.845,0,0,1,.213.644v.973a.829.829,0,0,1-.213.637,1.015,1.015,0,0,1-.7.2h-.577l1.921,1.7h-1.1l-1.736-1.7h-1.189v1.7Zm3.139-3.716h-2.317v1.4h2.317a.557.557,0,0,0,.372-.09.487.487,0,0,0,.095-.351v-.522a.473.473,0,0,0-.1-.341A.517.517,0,0,0,561.882,377.489Z" fill="#ffe700"/>
      <path id="Path_246" data-name="Path 246" d="M565.037,381.2v-4.353h.823v1.866l2.748-1.866h1.144l-3.215,2.1,3.571,2.252h-1.344l-2.9-1.951V381.2Z" fill="#ffe700"/>
      <path id="Path_247" data-name="Path 247" d="M575.083,377.5h-3.055v1.128h2.794a1.225,1.225,0,0,1,.835.213,1.127,1.127,0,0,1,.223.815v.522a1.142,1.142,0,0,1-.218.815,1.221,1.221,0,0,1-.84.213h-2.648a1.242,1.242,0,0,1-.845-.213,1.126,1.126,0,0,1-.223-.815v-.121l.752-.155v.647h3.285v-1.224h-2.8a1.222,1.222,0,0,1-.837-.213,1.136,1.136,0,0,1-.221-.815v-.411a1.146,1.146,0,0,1,.221-.815,1.2,1.2,0,0,1,.837-.218h2.423a1.258,1.258,0,0,1,.837.21.977.977,0,0,1,.231.743v.105l-.747.16Z" fill="#ffe700"/>
    </g>
  </g>
</svg>
