<svg xmlns="http://www.w3.org/2000/svg" width="115.128" height="115.128" viewBox="0 0 115.128 115.128">
  <g id="Fkr" transform="translate(-716.896 -240.074)">
    <g id="Group_63" data-name="Group 63">
      <circle id="Ellipse_4" data-name="Ellipse 4" cx="57.564" cy="57.564" r="57.564" transform="translate(716.896 240.074)" fill="#96999c"/>
      <path id="Path_248" data-name="Path 248" d="M819.828,297.638a46.186,46.186,0,0,1-78.449,33.08A46.195,46.195,0,1,1,806.7,265.394,46.078,46.078,0,0,1,819.828,297.638Zm0,0a45.373,45.373,0,0,0-3.507-17.339,44.537,44.537,0,0,0-72.936-13.736,44.546,44.546,0,1,0,72.937,48.414A45.4,45.4,0,0,0,819.828,297.638Z" fill="#fff"/>
    </g>
    <g id="Group_64" data-name="Group 64" opacity="0.8">
      <path id="Path_249" data-name="Path 249" d="M731.815,317.964V308.79h-13.76V278.212h33.636v6.116h-27.52v6.115h13.76v12.232h13.76v6.115h-13.76v9.174Zm-7.644-21.4v6.116h7.644v-6.116Z" fill="#1a1818"/>
      <path id="Path_250" data-name="Path 250" d="M773.1,317.964V305.733H757.807V287.386H773.1V282.8H760.865v-9.143h6.115v4.556h12.232v9.174H794.5v18.347H779.212v12.231ZM763.923,293.5v6.116H773.1V293.5Zm15.289,0v6.116h9.173V293.5Z" fill="#1a1818"/>
      <path id="Path_251" data-name="Path 251" d="M806.732,311.848h18.347v6.116H800.616V279.741h24.463v6.116H806.732Z" fill="#1a1818"/>
    </g>
    <g id="Group_65" data-name="Group 65" opacity="0.77">
      <path id="Path_252" data-name="Path 252" d="M734.19,314.513v-9.174H720.43V274.761h33.636v6.116H726.545v6.116h13.761v12.231h13.76v6.115h-13.76v9.174Zm-7.645-21.4v6.116h7.645v-6.116Z" fill="#00a1ed"/>
      <path id="Path_253" data-name="Path 253" d="M775.47,314.513V302.282H760.182V283.935H775.47v-4.587H763.239V270.2h6.116v4.556h12.231v9.174h15.289v18.347H781.586v12.231ZM766.3,290.05v6.116h9.173V290.05Zm15.289,0v6.116h9.174V290.05Z" fill="#00a1ed"/>
      <path id="Path_254" data-name="Path 254" d="M809.106,308.4h18.347v6.116H802.991V276.29h24.462v6.116H809.106Z" fill="#00a1ed"/>
    </g>
    <g id="Group_66" data-name="Group 66" opacity="0.7">
      <path id="Path_255" data-name="Path 255" d="M758.326,334.473h-2.374l3.8-4.748h-3.323v-7.6h12.818v7.6h-5.716v-5.7h-1.4v5.7Zm1.9-6.647v-3.8h-1.9v3.8Zm7.121,0v-3.8h-1.9v3.8Z" fill="#1a1818"/>
      <path id="Path_256" data-name="Path 256" d="M778.741,334.473h-1.9V324.5h-1.9v2.373h-3.8V322.6h7.6Zm-6.647-9.97v1.424h1.9V324.5Z" fill="#1a1818"/>
      <path id="Path_257" data-name="Path 257" d="M780.64,330.674V328.3h3.323v-5.7h9.021v11.87h-1.9V324.5h-5.223v9.97h-1.9v-3.8Z" fill="#1a1818"/>
      <path id="Path_258" data-name="Path 258" d="M803.267,334.473h-1.9V322.6h9.021v8.071h3.323v3.8h-5.223V324.5h-5.222Zm7.122-2.849v1.9h2.373v-1.9Z" fill="#1a1818"/>
      <path id="Path_259" data-name="Path 259" d="M820.359,334.473v-6.647h-4.748v-1.9h4.748v-1.9h-3.8v-2.839h1.9V322.6h3.8v3.324h4.747v1.9h-4.747v6.647Z" fill="#1a1818"/>
    </g>
    <g id="Group_67" data-name="Group 67" opacity="0.7">
      <path id="Path_260" data-name="Path 260" d="M759.315,332.092h-2.374l3.8-4.748h-3.323v-7.6h12.818v7.6h-5.716v-5.7h-1.405v5.7Zm1.9-6.647v-3.8h-1.9v3.8Zm7.121,0v-3.8h-1.9v3.8Z" fill="#00a1ed"/>
      <path id="Path_261" data-name="Path 261" d="M779.73,332.092h-1.9v-9.97h-1.9V324.5h-3.8v-4.273h7.6Zm-6.647-9.97v1.424h1.9v-1.424Z" fill="#00a1ed"/>
      <path id="Path_262" data-name="Path 262" d="M781.629,328.294V325.92h3.323v-5.7h9.021v11.869h-1.9v-9.97h-5.222v9.97h-1.9v-3.8Z" fill="#00a1ed"/>
      <path id="Path_263" data-name="Path 263" d="M804.256,332.092h-1.9V320.223h9.02v8.071H814.7v3.8h-5.223v-9.97h-5.222Zm7.121-2.849v1.9h2.374v-1.9Z" fill="#00a1ed"/>
      <path id="Path_264" data-name="Path 264" d="M821.347,332.092v-6.647H816.6v-1.9h4.747v-1.9h-3.8v-2.839h1.9v1.415h3.8v3.323h4.748v1.9h-4.748v6.647Z" fill="#00a1ed"/>
    </g>
    <g id="Group_68" data-name="Group 68">
      <path id="Path_265" data-name="Path 265" d="M802.589,276.542a.821.821,0,0,0,.522.775,45.541,45.541,0,0,1,4.344,2.063,34.8,34.8,0,0,0,3.934,1.825,5.362,5.362,0,0,0,2.282.566,4.982,4.982,0,0,0,2.384-.591,3.97,3.97,0,0,1,1.051-.547,3.4,3.4,0,0,1,1.43-.01,12.633,12.633,0,0,1,2.334.406,7.529,7.529,0,0,1,2.02,1.045.185.185,0,0,0,.159.012c.175-.1-.031-.75-.1-.966-.674-2.122-3.435-4.266-3.435-4.266a14.829,14.829,0,0,0-5.32-2.98,13.2,13.2,0,0,0-4.347-.5,13.143,13.143,0,0,0-6.447,2.113,2.649,2.649,0,0,0-.736.8A.462.462,0,0,0,802.589,276.542Z" fill="#688e2e"/>
      <path id="Path_266" data-name="Path 266" d="M803.911,276.43a19.8,19.8,0,0,1,7.307-.477,20.186,20.186,0,0,1,10.123,4.322" fill="none" stroke="#496125" stroke-linecap="round" stroke-miterlimit="10" stroke-width="1"/>
      <path id="Path_267" data-name="Path 267" d="M804.848,276.215a5.76,5.76,0,0,1,3.709-1.938" fill="none" stroke="#496125" stroke-linecap="round" stroke-miterlimit="10" stroke-width="1"/>
      <path id="Path_268" data-name="Path 268" d="M804.995,276.214a18.235,18.235,0,0,1,6.492,3.9" fill="none" stroke="#496125" stroke-linecap="round" stroke-miterlimit="10" stroke-width="1"/>
      <path id="Path_269" data-name="Path 269" d="M808.753,275.808a6.831,6.831,0,0,1,4.069-1.377" fill="none" stroke="#496125" stroke-linecap="round" stroke-miterlimit="10" stroke-width="1"/>
      <path id="Path_270" data-name="Path 270" d="M809.045,275.809a21.173,21.173,0,0,1,6.306,3.9" fill="none" stroke="#496125" stroke-linecap="round" stroke-miterlimit="10" stroke-width="1"/>
      <path id="Path_271" data-name="Path 271" d="M813.02,276.261a9.62,9.62,0,0,1,4.929.119" fill="none" stroke="#496125" stroke-linecap="round" stroke-miterlimit="10" stroke-width="1"/>
      <path id="Path_272" data-name="Path 272" d="M813.311,276.2q.986.774,2,1.553,1.165.9,2.317,1.758" fill="none" stroke="#496125" stroke-linecap="round" stroke-miterlimit="10" stroke-width="1"/>
      <path id="Path_273" data-name="Path 273" d="M802.778,276.13a6.6,6.6,0,0,0,.9.976,7.07,7.07,0,0,0,1.861.966c.891.361,1.517.657,2.445,1.1,1.262.6,1.526.8,2.631,1.252a6.269,6.269,0,0,0,1.726.49,4.548,4.548,0,0,0,1.483-.037,9.8,9.8,0,0,0,1.321-.46,10.464,10.464,0,0,1,1.453-.434,5.769,5.769,0,0,1,2.2-.07,9.811,9.811,0,0,1,1.487.493c.733.274,1.122.465,2.072.806.256.091.466.163.6.207a1.8,1.8,0,0,1,.1.324c.044.227.106.535.005.642-.188.2-.887-.345-2.116-.836a8.541,8.541,0,0,0-1.9-.534,3.858,3.858,0,0,0-1.431-.033,5.987,5.987,0,0,0-1.25.477c-1.316.57-1.29.563-1.329.575a4.093,4.093,0,0,1-2.269.043c-.1-.03-.01-.009-1.31-.551-.571-.238-.595-.245-.918-.382-.433-.183-.9-.381-1.422-.626-.139-.065-.407-.192-1.358-.684-1.253-.647-1.121-.6-1.638-.856a18.11,18.11,0,0,0-2.065-.966,2.651,2.651,0,0,1-1.217-.589.786.786,0,0,1-.226-.431,2.169,2.169,0,0,1-.016-.445A1.051,1.051,0,0,1,802.778,276.13Z" fill="#759d2e"/>
    </g>
  </g>
</svg>
