<svg xmlns="http://www.w3.org/2000/svg" width="121.665" height="70.95" viewBox="0 0 121.665 70.95">
  <g id="GA" transform="translate(-712.711 -24.477)">
    <path id="Path_69" data-name="Path 69" d="M774.833,31.074l-57.952,42.3c-1.386-2.648-2.753-5.261-4.17-7.967l62.338-40.931,39.118,30.83V47.492h11.222v.949c0,4.98.01,9.961-.014,14.941a1.417,1.417,0,0,0,.625,1.27c2.658,2.057,5.291,4.145,7.93,6.225.14.11.263.241.446.411l-4.7,7.489Z" fill="#1a1818"/>
    <path id="Path_70" data-name="Path 70" d="M769.518,53.687l-6.867,6.855a14.661,14.661,0,0,0-11.3-4.211,14.08,14.08,0,0,0-8.461,3.379,14.636,14.636,0,1,0,23.18,16.029h-8.931V66.25h18.96V94.922h-9.424V90.686c-1.05.625-1.972,1.142-2.862,1.71a20.615,20.615,0,0,1-7.707,2.569,19.337,19.337,0,0,1-4.09.455,28.877,28.877,0,0,1-4.968-.721,24.275,24.275,0,0,1-18.868-20.2,21.486,21.486,0,0,1,.215-8.124,1.694,1.694,0,0,1,.6-.914q12.556-9.205,25.144-18.368a1.416,1.416,0,0,1,.887-.306,24.841,24.841,0,0,1,14.346,6.673A1.259,1.259,0,0,1,769.518,53.687Z" fill="#1a1818"/>
    <path id="Path_71" data-name="Path 71" d="M787.16,94.95H777.6l21.1-42.2c1.2,1.033,2.327,2,3.449,2.974,1.949,1.691,3.915,3.364,5.827,5.1a5.644,5.644,0,0,1,1.205,1.642q7.844,15.619,15.646,31.26l.6,1.191h-9.549c-1.487-2.963-3.006-5.948-4.478-8.957a1.175,1.175,0,0,0-1.253-.731q-8.649.033-17.3,0a1.162,1.162,0,0,0-1.24.744C790.167,88.96,788.668,91.923,787.16,94.95Zm19.079-19.264c-.49-.984-.9-1.84-1.348-2.672a.755.755,0,0,0-.53-.35c-.822-.038-1.647-.017-2.467-.017v3.039Zm-5.068-3.039c-.859,0-1.638-.021-2.414.013a.781.781,0,0,0-.576.3c-.465.858-.878,1.744-1.35,2.7h4.34Zm3.161-.758-2.322-4.623-.135.069v4.554Zm-3.152-4.581-.166-.034-2.29,4.6h2.456Z" fill="#1a1818"/>
  </g>
</svg>
