<svg xmlns="http://www.w3.org/2000/svg" width="160" height="160" viewBox="0 0 160 160">
  <g id="Jadugar" transform="translate(-698.741 -449.956)">
    <rect id="Rectangle_674" data-name="Rectangle 674" width="160" height="160" rx="5" transform="translate(698.741 449.956)" fill="#fff"/>
    <g id="Group_101" data-name="Group 101">
      <g id="Group_98" data-name="Group 98">
        <g id="Group_94" data-name="Group 94">
          <path id="Path_318" data-name="Path 318" d="M788.349,545.5a6.036,6.036,0,0,1-.075.976c-.032.181-.069.393-.127.632a3.916,3.916,0,0,1-.594,1.3c-.048.063-.1.127-.143.185a5.011,5.011,0,0,1-2.764,1.533l-.053.011c-2.026.483-4.965,2.223-8.747,5.177l-.324-.419c3.84-3,6.848-4.774,8.949-5.273l.058-.01a4.307,4.307,0,0,0,2.594-1.512c0-.005.005-.005.005-.011a3.925,3.925,0,0,0,.621-1.708,6.819,6.819,0,0,0-.355-3.326,6.633,6.633,0,0,0-.345-.843v-.006a12.225,12.225,0,0,0-1.905-2.737,23.857,23.857,0,0,0-3.707-3.411l-.149-.116a15.856,15.856,0,0,1-2.26-2.366l-.005-.005c-.631-.748-1.363-1.613-2.254-2.515.026-.053.058-.1.09-.154.063-.1.127-.2.2-.3.335.334.642.663.934.987.138.143.26.281.382.419.143.159.276.313.408.467.181.206.35.408.515.6.042.053.09.106.132.159.388.462.754.886,1.1,1.268a9.454,9.454,0,0,0,1.083,1.019l.148.116a24.065,24.065,0,0,1,3.782,3.48,13.86,13.86,0,0,1,1.772,2.44,8.107,8.107,0,0,1,.584,1.326c.063.181.116.361.159.531a7.787,7.787,0,0,1,.286,1.8C788.343,545.316,788.349,545.406,788.349,545.5Z" fill="#a1631d"/>
          <path id="Path_319" data-name="Path 319" d="M789.675,545.438v.058a7.779,7.779,0,0,1-.09,1.189c-.043.217-.085.461-.149.732-.043.164-.1.355-.175.562a5.5,5.5,0,0,1-.228.525,4.608,4.608,0,0,1-.4.674,4.734,4.734,0,0,1-.35.429,6.3,6.3,0,0,1-3.332,1.809l-.063.016c-1.268.308-3.724,1.411-8.223,4.928l-1.05.817-.175-.228-1.623-2.095-.149-.191.212-.165.828-.647q.652-.508,1.273-.971c3.432-2.567,6.116-4.058,8.185-4.551l.09-.016a3.015,3.015,0,0,0,1.788-.981,2.668,2.668,0,0,0,.4-1.173,5.607,5.607,0,0,0-.3-2.673,9.18,9.18,0,0,0-2-3.146,22.439,22.439,0,0,0-3.511-3.225l-.165-.133a16.642,16.642,0,0,1-2.456-2.551c-.435-.515-.912-1.082-1.464-1.676l-.005-.006c-.133-.153-.276-.3-.43-.461l.525-1c.043-.08.085-.16.128-.234.026-.053.058-.1.09-.154.063-.1.127-.2.2-.3a5.722,5.722,0,0,1,.87-1.008c.308.308.61.621.913.955.047.048.09.1.138.148.068.075.148.16.222.25a2.352,2.352,0,0,1,.165.18c.143.159.281.318.419.478.058.068.117.132.164.2.043.048.085.1.122.143.059.069.117.133.17.2l.2.239c.382.451.732.865,1.071,1.236a8.059,8.059,0,0,0,.907.859l.154.122a27.332,27.332,0,0,1,2.154,1.793,23.711,23.711,0,0,1,1.809,1.857,16.526,16.526,0,0,1,1.522,1.984,9.881,9.881,0,0,1,.737,1.326c.107.233.191.446.266.647.031.09.063.17.09.255.074.207.138.429.191.636a9.241,9.241,0,0,1,.323,2.069v.059Z" fill="#a1631d"/>
        </g>
        <g id="Group_95" data-name="Group 95">
          <path id="Path_320" data-name="Path 320" d="M813.526,544.5a16.016,16.016,0,0,1-1.072,2.936c-.219.506-.669,1.321-.741,1.456a10.746,10.746,0,0,1-1.271,1.88,22.275,22.275,0,0,0-1.726,3.118,15.991,15.991,0,0,0-.83,1.86,15.737,15.737,0,0,1-.76,1.75,19.591,19.591,0,0,1-2.5,3.75l-.64.77a1.294,1.294,0,0,1-1.33-.02,1.256,1.256,0,0,1-.51-.78c.04-.33.09-.67.13-1a8.326,8.326,0,0,0-.19-3.75,4.257,4.257,0,0,0-.51-1.2l-.44-.27c-5.11-3.08-7.79-3.88-9.13-4l-.05-.01a6.271,6.271,0,0,1-3.68-1.39,3.479,3.479,0,0,1-.47-.47,4.183,4.183,0,0,1-.4-.54,4.773,4.773,0,0,1-.28-.49v-.01c-.08-.17-.16-.36-.23-.54-.09-.24-.14-.46-.19-.64l-.02-.05a6.85,6.85,0,0,1-.19-1.37,2.728,2.728,0,0,1-.01-.29,8.371,8.371,0,0,1,.29-2.13c.06-.2.11-.39.18-.59.03-.1.06-.18.09-.27v-.01c.09-.22.17-.44.27-.64a8.523,8.523,0,0,1,.5-.95c.08-.13.16-.26.25-.38.4-.61.87-1.2,1.41-1.88l.02-.02c.87-1.08,1.55-1.93,2.07-2.59.12-.15.24-.29.33-.42.01-.01.02-.01.02-.02l.2-.25.65-.81c.11-.14.18-.23.2-.25.86-.99,1.59-1.81,2.3-2.58l.44-.45.02-.03v-.01l.06-.07c.1-.1.18-.2.28-.3a1.612,1.612,0,0,1,.13-.13l.44-.47.34-.37.02-.02c.31-.33.61-.65.92-.97a5.634,5.634,0,0,1,.94.95,2.193,2.193,0,0,1,.14.18l.01.02c.06.08.11.16.16.24a.444.444,0,0,1,.08.11l.64,1.05c-.06.07-.13.14-.2.21-.44.46-.88.93-1.33,1.41l-.83.89c-.73.81-1.46,1.63-2.16,2.43-.05.06-.19.24-.44.55l-.09.11c-.54.68-1.47,1.86-2.83,3.55l-.06.07a9.742,9.742,0,0,0-1.97,3.11,5.558,5.558,0,0,0-.31,1.69v.06l.01.21v.06a2.971,2.971,0,0,0,.08.53,2.545,2.545,0,0,0,.46,1.03,3.039,3.039,0,0,0,2,.77l.08.01c2.06.19,4.76,1.22,8.24,3.15a19.8,19.8,0,0,0,8.28-4.56c.08-.05.15-.1.23-.15a10.1,10.1,0,0,0,1.07-1.2c3.74-5,1.22-11.77.36-13.72a16.83,16.83,0,0,0-4.27-5.78,1.148,1.148,0,0,1-.12-1.57l.19-.25a1.166,1.166,0,0,1,1.71-.14,19.327,19.327,0,0,1,4.92,6.67A23.594,23.594,0,0,1,813.526,544.5Z" fill="#a1631d"/>
        </g>
        <g id="Group_96" data-name="Group 96">
          <path id="Path_321" data-name="Path 321" d="M797.929,530.511a4.81,4.81,0,0,0-.929-.95,4.7,4.7,0,0,0-2.9-.981,4.759,4.759,0,0,0-4.069,2.3,2.552,2.552,0,0,0-2.153.944,2.923,2.923,0,0,0-2.271-.944,4.769,4.769,0,0,0-6.768-.329,5.017,5.017,0,0,0-.849,1.04c-.064.106-.122.212-.18.323l.477.244c.027-.048.053-.1.085-.148a2.742,2.742,0,0,1,.18-.292,2.8,2.8,0,0,1,.181-.26c.01-.016.026-.032.037-.048s.01-.016.021-.021a2.033,2.033,0,0,1,.132-.159.153.153,0,0,1,.027-.032l.032-.032c.053-.058.106-.111.164-.164a.53.53,0,0,1,.053-.053c.122-.112.255-.218.388-.319.058-.042.122-.084.185-.127l.08-.048c.1-.063.2-.122.308-.175a3.837,3.837,0,0,1,.429-.185c.08-.032.165-.059.25-.085a.486.486,0,0,0,.058-.021c.1-.027.212-.053.318-.075l.09-.016h.011a2.812,2.812,0,0,1,.286-.042.1.1,0,0,1,.038-.005h.026a3.308,3.308,0,0,1,.4-.022,4.253,4.253,0,0,1,3.225,1.491l.127.122.154-.032a2.305,2.305,0,0,1,1.989.881.4.4,0,0,0,.324.164h.011a.38.38,0,0,0,.313-.18,1.983,1.983,0,0,1,1.8-.865,1.124,1.124,0,0,1,.143.006l.175.015.085-.153a4.237,4.237,0,0,1,3.687-2.165c.117,0,.233.006.345.016a1.679,1.679,0,0,1,.228.027c.064.005.127.016.191.026.117.022.228.048.339.08a1.666,1.666,0,0,1,.223.064h.006a4.293,4.293,0,0,1,.97.466c.064.043.128.085.186.128.016.01.026.021.042.032a4.244,4.244,0,0,1,.918.954,1.83,1.83,0,0,1,.117.17l.445-.286C798.056,530.691,797.992,530.6,797.929,530.511Z" fill="#a1631d"/>
          <path id="Path_322" data-name="Path 322" d="M799.886,531.142c-.063.069-.133.138-.2.212l-2.424,1.554-.35-.541-.292-.466-.159-.244a2.775,2.775,0,0,0-.743-.727c-.005-.005-.011-.011-.016-.011a2.874,2.874,0,0,0-1.6-.482,2.9,2.9,0,0,0-2.53,1.485l-.5.907-1.04-.1c-.546,0-.652.17-.7.25a1.688,1.688,0,0,1-1.257.785l-.138.185-.154-.18a1.724,1.724,0,0,1-1.3-.727.978.978,0,0,0-.78-.313l-.7.144-.71-.7a2.923,2.923,0,0,0-2.223-1.029,2.87,2.87,0,0,0-1.735.578,0,0,0,0,1-.005.005,2,2,0,0,0-.255.207,2.8,2.8,0,0,0-.535.7l-.239.435-.276.494-.191.344-2.281-1.161-.005-.006c-.133-.153-.276-.3-.43-.461l.525-1c.043-.08.085-.16.128-.234.026-.053.058-.1.09-.154.063-.1.127-.2.2-.3a5.722,5.722,0,0,1,.87-1.008,6.007,6.007,0,0,1,4.138-1.623,6.1,6.1,0,0,1,4.132,1.618,4.431,4.431,0,0,1,1.65.514,3.943,3.943,0,0,1,1.453-.5,6.126,6.126,0,0,1,4.8-2.35,6,6,0,0,1,3.814,1.342,5.867,5.867,0,0,1,.939.944c.048.058.1.122.143.186l.011.016.159.238c.026.037.053.075.074.112Z" fill="#a1631d"/>
        </g>
        <path id="Path_323" data-name="Path 323" d="M796.641,530.35l-.364.394a.99.99,0,0,0-.135-.068c-1.555-.59-2.794-.437-3.677.456a4.182,4.182,0,0,0-1.493,2.814,2.568,2.568,0,0,0,.038.427.549.549,0,0,0,.2.35,2.723,2.723,0,0,0,1.032.336.365.365,0,0,0,.134-.019,2.265,2.265,0,0,0,.217-.1c-.509.639-1.263,1.584-2.281,2.847l-.043.057a10.07,10.07,0,0,0-2.079,3.351c-.052.163-.1.322-.144.475-.038-.153-.086-.316-.144-.48a9.672,9.672,0,0,0-2.131-3.408,21.788,21.788,0,0,0-3.423-3.149l-.134-.106a8.381,8.381,0,0,1-.98-.922c.37.255.672.433.706.452.326.187.658.4.97.6a4.16,4.16,0,0,0,1.718.85.465.465,0,0,0,.216-.044.5.5,0,0,0,.3-.4c.178-.95-.278-1.887-1.512-3.135a3.03,3.03,0,0,0-3.519-.528.69.69,0,0,0-.423.458c-.12-.139-.273-.367-.4-.511a3.794,3.794,0,0,1,3.341-1.973,3.847,3.847,0,0,1,2.919,1.349l.115.111.14-.029a2.086,2.086,0,0,1,1.8.8.355.355,0,0,0,.293.149h.009a.347.347,0,0,0,.284-.164,1.8,1.8,0,0,1,1.632-.782,1.125,1.125,0,0,1,.129,0l.159.014.077-.139a3.833,3.833,0,0,1,3.336-1.959A3.777,3.777,0,0,1,796.641,530.35Z" fill="#a1631d"/>
        <g id="Group_97" data-name="Group 97">
          <path id="Path_324" data-name="Path 324" d="M766.289,504.345a3.958,3.958,0,0,1,1.917,3.628,3.482,3.482,0,0,1-1.15,2.45,4.484,4.484,0,0,1-2.94,1.16c-.11,0-.21,0-.32-.01a5.685,5.685,0,0,1-.97-.18c-.09-.02-.18-.04-.26-.06a3,3,0,0,1-.82-.29l-.28-.14a9.925,9.925,0,0,1-3.95-2.92l-.03-.04a.211.211,0,0,0-.08-.06c-.157-.172-.41-.06-.7-.035-.736-.022-.862.012-.906-.045-.3-.393.475-1.771,2.855-2.716a10.638,10.638,0,0,1,4.832-1.377A6.969,6.969,0,0,1,766.289,504.345Z" fill="#a1631d"/>
        </g>
        <path id="Path_325" data-name="Path 325" d="M763.7,510.859c-1.871-.106-4.5-1.359-4.9-2.652-.55-1.77,2.811-2.991,4.9-2.652,1.912.31,4.051.8,3.981,2.215C767.621,509,765.627,510.968,763.7,510.859Z" fill="#0e1014"/>
        <path id="Path_326" data-name="Path 326" d="M806.685,505.031a4.034,4.034,0,0,1-4.281,4.445,5.487,5.487,0,0,1-.849-.138,5.58,5.58,0,0,1-1.406-.552,5.663,5.663,0,0,1-2.143-2.1,5.792,5.792,0,0,1,.361-1.332,5.627,5.627,0,0,1,1.761-2.307,0,0,0,0,1,.005-.005,3.085,3.085,0,0,1,.345-.25,5.622,5.622,0,0,1,3.114-.939,2.479,2.479,0,0,1,3.093,3.178Z" fill="#0e1014"/>
        <path id="Path_327" data-name="Path 327" d="M808.9,504.442a4.848,4.848,0,0,1-.085.923c-.4,2.3-2.473,3.23-4.551,4.387-.005,0-.061.037-.061.037a9.109,9.109,0,0,1-2.114.785h-.006a5.2,5.2,0,0,1-1.045.1,5.671,5.671,0,0,1-2.45-.557,5.564,5.564,0,0,1-.632-2.233c-.005-.128-.01-.255-.01-.382a5.942,5.942,0,0,1,.058-.817,5.663,5.663,0,0,0,2.143,2.1,5.58,5.58,0,0,0,1.406.552,5.487,5.487,0,0,0,.849.138,4.7,4.7,0,0,0,3.639-7.066,5.679,5.679,0,0,0-2.451-.557,5.622,5.622,0,0,0-3.114.939c-.122.074-.731.591-.842.682.008-.1.213-.8.384-.895a7,7,0,0,1,3.609-1.9,5.793,5.793,0,0,1,.9-.09h.074a5.3,5.3,0,0,1,2.228.488v.005a5.1,5.1,0,0,1,1.406.944c.053.053.106.1.159.154v.006A5.245,5.245,0,0,1,808.9,504.442Z" fill="#a1631d"/>
        <path id="Path_328" data-name="Path 328" d="M778.455,554.355l-1.384,1.289c-.117.112-.3.281-.536.478-.52.435-.955.726-1.093.822a0,0,0,0,0-.005.005l-1.623-2.095a1,1,0,0,1,.106-.085l.117-.08a1.69,1.69,0,0,1-.16-.191l.828-.647q.652-.508,1.273-.971a2.54,2.54,0,0,0,.8.616l.355.18.531.271Z" fill="#a1631d"/>
        <path id="Path_329" data-name="Path 329" d="M799.037,517.137a12.835,12.835,0,0,1-2.636-4.753,14.956,14.956,0,0,1,.483-9.072,13.872,13.872,0,0,1,1.181-2.714,5.677,5.677,0,0,0,.685-1.68,9.209,9.209,0,0,0-.519-5.4,1.542,1.542,0,0,1,.748-1.939l.434.867c1.467,2.982,2.534,4.438,1.919,7.073a8.279,8.279,0,0,1-.942,2.353,11.265,11.265,0,0,0-.981,2.252,12.542,12.542,0,0,0-.465,7.5,9.812,9.812,0,0,0,1.048,2.338,2.182,2.182,0,0,1-.49,2.767Z" fill="#a1631d"/>
        <path id="Path_330" data-name="Path 330" d="M766.966,518.583h0a6.619,6.619,0,0,0,2.188-3.353,7.54,7.54,0,0,0-.241-3.862c-.681-2.849-1.277-4.631-1.8-6.2a34.606,34.606,0,0,1-1.043-3.522,11.12,11.12,0,0,1-.307-5.555c.307-1.385,2.647-3.639,2.145-2.674l-.222,1.562c-.388,2.655.438,3.717.972,6.085a32.137,32.137,0,0,0,.97,3.263c.517,1.544,1.16,3.466,1.867,6.429a9.912,9.912,0,0,1,.232,5.138,8.58,8.58,0,0,1-1.01,2.356A2.329,2.329,0,0,1,766.966,518.583Z" fill="#a1631d"/>
        <path id="Path_331" data-name="Path 331" d="M760.095,546.592a25.883,25.883,0,0,1-.632-2.675,24.145,24.145,0,0,1-.321-3.254,31.22,31.22,0,0,1,.054-3.71,27.592,27.592,0,0,1,2.638-8.564,1.272,1.272,0,0,1,1.836-.534h0a1.26,1.26,0,0,1,.428,1.683,17.462,17.462,0,0,0-2.252,7.595c-.131,2.331-.289,5.157,1.39,7.64,2.269,3.355,6.439,6.75,9.75,7.511a29.9,29.9,0,0,0,5.261-1.017c.509-.157-2.569,2.367-3.281,2.756l-.83.64-.21.17.15.19,1.62,2.09c-.61.42-1.52,1.48-1.46,1.94a2.174,2.174,0,0,0,.46.41,3.737,3.737,0,0,1,1.64,2.5,1.346,1.346,0,0,1-.147,1.147c-.578.675-2.219.113-2.859-.106C767.682,561.071,761.318,550.675,760.095,546.592Z" fill="#a1631d"/>
        <path id="Path_332" data-name="Path 332" d="M788.495,568.9h-.164c-.219,0-5.4-.1-7.722-2.2a2.648,2.648,0,0,0-1.128-.656,2.557,2.557,0,0,0-1.223.008,1.326,1.326,0,0,1-.6-2.584,5.037,5.037,0,0,1,4.708,1.245c1.115,1.006,4.237,1.5,6,1.529h.122c4.176,0,7.482-3.043,8.4-3.983l.115-.118.141-.086a6.649,6.649,0,0,1,3.92-.978,1.326,1.326,0,0,1-.165,2.647,4.107,4.107,0,0,0-.888.042,4.019,4.019,0,0,0-1.354.476C797.157,565.752,793.414,568.9,788.495,568.9Z" fill="#a1631d"/>
        <path id="Path_333" data-name="Path 333" d="M821.239,504.951c-3.022-5.917-6.879-10.314-11.312-15.706a4.917,4.917,0,0,0-.424-.454l-.816-.771a1.61,1.61,0,0,1,2.295-.232c5.515,4.719,10.308,12.78,13.409,19.276a.157.157,0,0,1-.209.207l-.978-.432A4.076,4.076,0,0,1,821.239,504.951Z" fill="#a1631d"/>
        <path id="Path_334" data-name="Path 334" d="M828.951,510.467l-1.77-1.976a13.072,13.072,0,0,0,3.5-14.416l-.327-.859a.584.584,0,0,1,.457-.785l.908-.14a4.187,4.187,0,0,0,1.809-.708c.586-.415,1.221-1.1,1.9-3.28a18.857,18.857,0,0,0,.883-7.792,20.109,20.109,0,0,0-1.966-6.8,9.528,9.528,0,0,0-3.278-4.269,7.5,7.5,0,0,0-2.143-.947,16.055,16.055,0,0,0-4.406.623,19.508,19.508,0,0,0-7.662,4.633,30.451,30.451,0,0,0-3.862,4.03,2.941,2.941,0,0,0-.622,1.749l-.052,1.936a.9.9,0,0,1-.927.879h0a1.748,1.748,0,0,1-1.7-1.8l.029-1.09a5.612,5.612,0,0,1,1.2-3.332,33.139,33.139,0,0,1,4.2-4.382,22.013,22.013,0,0,1,8.663-5.177,18.736,18.736,0,0,1,5.319-.726h.158l.153.038a10.182,10.182,0,0,1,3.1,1.335,12.136,12.136,0,0,1,4.21,5.317,22.489,22.489,0,0,1,2.229,7.725,21.641,21.641,0,0,1-.99,8.834c-.735,2.371-1.574,3.72-2.9,4.657a6.533,6.533,0,0,1-1.45.775,15.709,15.709,0,0,1-4.66,15.946Z" fill="#a1631d"/>
        <path id="Path_335" data-name="Path 335" d="M821.039,492.421c.248.231,1.416-1.036,5.56-4.156a11.162,11.162,0,0,0,3.09-2.864c.4-.609,1.65-2.5,1.011-4.325-.053-.149-.487-1.388-1.348-1.517-.189-.028-.92-.082-2.247,1.741a13.96,13.96,0,0,0-2.022,4.213C823.607,489.952,820.683,492.09,821.039,492.421Z" fill="#a1631d"/>
        <path id="Path_336" data-name="Path 336" d="M742.347,497.658c-.157.3-3.28,1.569-8.223,0-1.828-.581-4.765-3.841-5.541-5.471a11.862,11.862,0,0,1-1.112-5.47,3.217,3.217,0,0,1,.741-2.542,2.5,2.5,0,0,1,1.482-.582,6.664,6.664,0,0,1,4.567,1.077,34.845,34.845,0,0,1,4.831,3.876C741.956,492.244,742.574,497.227,742.347,497.658Z" fill="#a1631d"/>
        <path id="Path_337" data-name="Path 337" d="M732.115,513.375a19.147,19.147,0,0,1-4.223-5.008c-.3-.51-.571-1.036-.82-1.573a24.3,24.3,0,0,0-1.391-2.328c-.364-.6-.592-1.337-1.013-2.057a14.635,14.635,0,0,0-.768-1.392c-.135-.184-.338-.328-.51-.519a9.058,9.058,0,0,1-1.959-3.727,18.3,18.3,0,0,0-1.311-3.454,12.332,12.332,0,0,1-1.14-3.254,20.165,20.165,0,0,1-.172-8.466,19.346,19.346,0,0,1,4.9-9.3,2.311,2.311,0,0,1,1.452-.726,34.249,34.249,0,0,1,17.1,2.613,33.07,33.07,0,0,1,7.117,4.257,2.351,2.351,0,0,1,.835,1.276,1.959,1.959,0,0,0,.783,1.146l.176.115a2.557,2.557,0,0,1,1.153,1.93h0a.8.8,0,0,1-.889.867,4.447,4.447,0,0,1-1.9-.7,4.5,4.5,0,0,1-1.673-2.046,2.453,2.453,0,0,0-.81-1.026,30.349,30.349,0,0,0-5.858-3.392,31.577,31.577,0,0,0-15.638-2.417,16.672,16.672,0,0,0-4.154,7.926,17.609,17.609,0,0,0,.165,7.373,9.723,9.723,0,0,0,.932,2.654,20.639,20.639,0,0,1,1.461,3.832l.015.051a6.531,6.531,0,0,0,1.383,2.688l.013.014a9.891,9.891,0,0,1,1.824,2.733,6.736,6.736,0,0,0,.826,1.493,11.383,11.383,0,0,1,1.317,2.414,16.206,16.206,0,0,0,.841,1.652,16.473,16.473,0,0,0,3.64,4.315Z" fill="#a1631d"/>
      </g>
      <g id="Group_99" data-name="Group 99">
        <circle id="Ellipse_7" data-name="Ellipse 7" cx="0.464" cy="0.464" r="0.464" transform="translate(774.029 535.492)" fill="#a1631d"/>
        <circle id="Ellipse_8" data-name="Ellipse 8" cx="0.6" cy="0.6" r="0.6" transform="translate(771.363 535.782)" fill="#a1631d"/>
        <circle id="Ellipse_9" data-name="Ellipse 9" cx="0.524" cy="0.524" r="0.524" transform="translate(769.244 536.133)" fill="#a1631d"/>
        <circle id="Ellipse_10" data-name="Ellipse 10" cx="0.176" cy="0.176" r="0.176" transform="translate(767.633 536.381)" fill="#a1631d"/>
        <circle id="Ellipse_11" data-name="Ellipse 11" cx="0.212" cy="0.212" r="0.212" transform="translate(766.379 536.133)" fill="#a1631d"/>
        <circle id="Ellipse_12" data-name="Ellipse 12" cx="0.565" cy="0.565" r="0.565" transform="translate(779.005 538.942)" fill="#a1631d"/>
        <circle id="Ellipse_13" data-name="Ellipse 13" cx="0.711" cy="0.711" r="0.711" transform="translate(776.6 539.085)" fill="#a1631d"/>
        <circle id="Ellipse_14" data-name="Ellipse 14" cx="0.801" cy="0.801" r="0.801" transform="translate(774.029 539.507)" fill="#a1631d"/>
        <circle id="Ellipse_15" data-name="Ellipse 15" cx="0.657" cy="0.657" r="0.657" transform="translate(771.363 539.795)" fill="#a1631d"/>
        <circle id="Ellipse_16" data-name="Ellipse 16" cx="0.393" cy="0.393" r="0.393" transform="translate(769.244 539.99)" fill="#a1631d"/>
        <circle id="Ellipse_17" data-name="Ellipse 17" cx="0.336" cy="0.336" r="0.336" transform="translate(767.633 539.555)" fill="#a1631d"/>
        <circle id="Ellipse_18" data-name="Ellipse 18" cx="0.237" cy="0.237" r="0.237" transform="translate(766.591 539.418)" fill="#a1631d"/>
        <circle id="Ellipse_19" data-name="Ellipse 19" cx="0.383" cy="0.383" r="0.383" transform="translate(781.434 542.91)" fill="#a1631d"/>
        <circle id="Ellipse_20" data-name="Ellipse 20" cx="0.427" cy="0.427" r="0.427" transform="translate(779.005 542.91)" fill="#a1631d"/>
        <circle id="Ellipse_21" data-name="Ellipse 21" cx="0.468" cy="0.468" r="0.468" transform="translate(776.417 543.894)" fill="#a1631d"/>
        <circle id="Ellipse_22" data-name="Ellipse 22" cx="0.536" cy="0.536" r="0.536" transform="translate(773.91 544.037)" fill="#a1631d"/>
        <circle id="Ellipse_23" data-name="Ellipse 23" cx="0.397" cy="0.397" r="0.397" transform="translate(771.626 544.037)" fill="#a1631d"/>
        <circle id="Ellipse_24" data-name="Ellipse 24" cx="0.327" cy="0.327" r="0.327" transform="translate(769.636 543.763)" fill="#a1631d"/>
        <circle id="Ellipse_25" data-name="Ellipse 25" cx="0.214" cy="0.214" r="0.214" transform="translate(768.505 543.489)" fill="#a1631d"/>
        <circle id="Ellipse_26" data-name="Ellipse 26" cx="0.14" cy="0.14" r="0.14" transform="translate(767.529 543.132)" fill="#a1631d"/>
      </g>
      <g id="Group_100" data-name="Group 100">
        <circle id="Ellipse_27" data-name="Ellipse 27" cx="0.635" cy="0.635" r="0.635" transform="translate(800.409 533.812)" fill="#a1631d"/>
        <circle id="Ellipse_28" data-name="Ellipse 28" cx="0.618" cy="0.618" r="0.618" transform="translate(803.681 533.812)" fill="#a1631d"/>
        <circle id="Ellipse_29" data-name="Ellipse 29" cx="0.435" cy="0.435" r="0.435" transform="translate(806.221 533.577)" fill="#a1631d"/>
        <circle id="Ellipse_30" data-name="Ellipse 30" cx="0.218" cy="0.218" r="0.218" transform="translate(807.838 533.575)" fill="#a1631d"/>
        <circle id="Ellipse_31" data-name="Ellipse 31" cx="0.366" cy="0.366" r="0.366" transform="translate(795.097 539.278)" fill="#a1631d"/>
        <circle id="Ellipse_32" data-name="Ellipse 32" cx="0.712" cy="0.712" r="0.712" transform="translate(797.637 538.585)" fill="#a1631d"/>
        <circle id="Ellipse_33" data-name="Ellipse 33" cx="0.808" cy="0.808" r="0.808" transform="translate(800.178 538.854)" fill="#a1631d"/>
        <circle id="Ellipse_34" data-name="Ellipse 34" cx="0.699" cy="0.699" r="0.699" transform="translate(803.065 539.278)" fill="#a1631d"/>
        <circle id="Ellipse_35" data-name="Ellipse 35" cx="0.577" cy="0.577" r="0.577" transform="translate(805.836 538.854)" fill="#a1631d"/>
        <circle id="Ellipse_36" data-name="Ellipse 36" cx="0.366" cy="0.366" r="0.366" transform="translate(793.134 543.474)" fill="#a1631d"/>
        <circle id="Ellipse_37" data-name="Ellipse 37" cx="0.617" cy="0.617" r="0.617" transform="translate(795.407 543.974)" fill="#a1631d"/>
        <circle id="Ellipse_38" data-name="Ellipse 38" cx="0.674" cy="0.674" r="0.674" transform="translate(798.215 544.205)" fill="#a1631d"/>
        <circle id="Ellipse_39" data-name="Ellipse 39" cx="0.442" cy="0.442" r="0.442" transform="translate(801.795 544.591)" fill="#a1631d"/>
        <circle id="Ellipse_40" data-name="Ellipse 40" cx="0.414" cy="0.414" r="0.414" transform="translate(804.143 544.205)" fill="#a1631d"/>
      </g>
    </g>
    <g id="Group_104" data-name="Group 104">
      <g id="Group_102" data-name="Group 102">
        <path id="Path_338" data-name="Path 338" d="M752.957,587.714a1.921,1.921,0,0,1-2.16,2.186h-4.4v-3.644h2.943V571.864h3.618Z" fill="#0e1014"/>
        <path id="Path_339" data-name="Path 339" d="M762.541,589.9h-3.617v-4.805h-1.189V589.9h-3.618V574.159q0-2.293,2.16-2.295h4.105q2.158,0,2.159,2.323Zm-3.617-8.451V575.51h-1.189v5.939Z" fill="#0e1014"/>
        <path id="Path_340" data-name="Path 340" d="M772.153,587.714a1.92,1.92,0,0,1-2.159,2.186h-6.265V571.864h6.265q2.16,0,2.159,2.241Zm-3.617-1.458V575.51h-1.188v10.746Z" fill="#0e1014"/>
        <path id="Path_341" data-name="Path 341" d="M781.765,587.714a1.921,1.921,0,0,1-2.16,2.186h-4.1a1.921,1.921,0,0,1-2.16-2.186v-15.85h3.618v14.392h1.188V571.864h3.618Z" fill="#0e1014"/>
        <path id="Path_342" data-name="Path 342" d="M791.376,587.714a1.92,1.92,0,0,1-2.159,2.186h-4.1a1.921,1.921,0,0,1-2.16-2.186V574.1q0-2.241,2.16-2.241h6.264v3.646H786.57v10.746h1.189v-9.585h3.617Z" fill="#0e1014"/>
        <path id="Path_343" data-name="Path 343" d="M800.988,589.9h-3.617v-4.805h-1.188V589.9h-3.619V574.159q0-2.293,2.161-2.295h4.1q2.16,0,2.159,2.323Zm-3.617-8.451V575.51h-1.188v5.939Z" fill="#0e1014"/>
        <path id="Path_344" data-name="Path 344" d="M810.6,589.9h-3.618v-7.209h-1.188V589.9h-3.618V571.864h6.264q2.16,0,2.16,2.241v4.509a1.973,1.973,0,0,1-2.16,2.269q2.16,0,2.16,2.241Zm-3.618-10.853V575.51h-1.188v3.537Z" fill="#0e1014"/>
      </g>
      <g id="Group_103" data-name="Group 103">
        <path id="Path_345" data-name="Path 345" d="M747.188,594.073v-3.1h3.131v.542h-2.411v.814h1.3v.565h-1.3v1.175Z" fill="#0e1014"/>
        <path id="Path_346" data-name="Path 346" d="M751.213,594.073v-3.1h.721v3.1Z" fill="#0e1014"/>
        <path id="Path_347" data-name="Path 347" d="M753.516,594.073v-3.1h.72v2.513h2.324v.583Z" fill="#0e1014"/>
        <path id="Path_348" data-name="Path 348" d="M757.608,594.073v-3.1h.583l1.459,1.872,1.427-1.872h.577v3.1h-.668V592.16c0-.037,0-.084.007-.14s.012-.121.02-.191c-.039.08-.074.147-.1.2a1.386,1.386,0,0,1-.079.128l-1.163,1.547h-.144l-1.166-1.553a1.556,1.556,0,0,1-.109-.165.958.958,0,0,1-.075-.151c.006.064.011.123.013.176s0,.1,0,.152v1.913Z" fill="#0e1014"/>
        <path id="Path_349" data-name="Path 349" d="M765.492,594.073v-3.1h2.649a.824.824,0,0,1,.535.141.581.581,0,0,1,.165.459v.692a.572.572,0,0,1-.165.455.818.818,0,0,1-.535.142H766.2v1.207Zm2.329-2.56H766.2v.82h1.62a.433.433,0,0,0,.257-.055.23.23,0,0,0,.068-.191v-.331a.231.231,0,0,0-.068-.189A.441.441,0,0,0,767.821,591.513Z" fill="#0e1014"/>
        <path id="Path_350" data-name="Path 350" d="M769.951,594.073v-3.1H772.6a.824.824,0,0,1,.535.141.581.581,0,0,1,.165.459v.727a.579.579,0,0,1-.165.457.817.817,0,0,1-.535.143h-.4l1.43,1.169h-1.034l-1.248-1.169h-.683v1.169Zm2.329-2.56h-1.62v.861h1.62a.432.432,0,0,0,.257-.055.23.23,0,0,0,.068-.191v-.372a.231.231,0,0,0-.068-.189A.441.441,0,0,0,772.28,591.513Z" fill="#0e1014"/>
        <path id="Path_351" data-name="Path 351" d="M774.7,591.709a.808.808,0,0,1,.158-.577.884.884,0,0,1,.61-.155h2.279a.884.884,0,0,1,.61.155.808.808,0,0,1,.158.577v1.632a.806.806,0,0,1-.158.578.89.89,0,0,1-.61.154h-2.279a.89.89,0,0,1-.61-.154.806.806,0,0,1-.158-.578Zm.721,1.781h2.376v-1.96h-2.376Z" fill="#0e1014"/>
        <path id="Path_352" data-name="Path 352" d="M780.029,594.073v-3.1h1.992a1.937,1.937,0,0,1,1.311.4,1.418,1.418,0,0,1,.459,1.131,1.675,1.675,0,0,1-.179.78,1.345,1.345,0,0,1-.5.547,1.47,1.47,0,0,1-.5.184,4.348,4.348,0,0,1-.768.056Zm.721-.583h.932a1.815,1.815,0,0,0,1.054-.231.892.892,0,0,0,.311-.765.949.949,0,0,0-.258-.72,1.073,1.073,0,0,0-.762-.244H780.75Z" fill="#0e1014"/>
        <path id="Path_353" data-name="Path 353" d="M785.833,590.977v2.513h2.054v-2.513h.717v2.364a.8.8,0,0,1-.158.578.885.885,0,0,1-.609.154H785.88a.887.887,0,0,1-.608-.154.8.8,0,0,1-.16-.578v-2.364Z" fill="#0e1014"/>
        <path id="Path_354" data-name="Path 354" d="M792.788,591.53h-1.942v1.96h1.942v-.665l.721.15v.366a.805.805,0,0,1-.159.578.894.894,0,0,1-.609.154h-1.848a.89.89,0,0,1-.61-.154.806.806,0,0,1-.158-.578v-1.632a.808.808,0,0,1,.158-.577.883.883,0,0,1,.61-.155h1.848a.887.887,0,0,1,.609.155.807.807,0,0,1,.159.577V592l-.721.114Z" fill="#0e1014"/>
        <path id="Path_355" data-name="Path 355" d="M796.436,591.53v2.543h-.721V591.53h-1.421v-.553h3.568v.553Z" fill="#0e1014"/>
        <path id="Path_356" data-name="Path 356" d="M798.744,594.073v-3.1h.721v3.1Z" fill="#0e1014"/>
        <path id="Path_357" data-name="Path 357" d="M800.982,591.709a.8.8,0,0,1,.159-.577.879.879,0,0,1,.609-.155h2.279a.883.883,0,0,1,.61.155.808.808,0,0,1,.158.577v1.632a.806.806,0,0,1-.158.578.89.89,0,0,1-.61.154H801.75a.885.885,0,0,1-.609-.154.8.8,0,0,1-.159-.578Zm.721,1.781h2.376v-1.96H801.7Z" fill="#0e1014"/>
        <path id="Path_358" data-name="Path 358" d="M806.309,594.073v-3.1h.492l2.179,1.825c.075.06.14.118.2.172a1.838,1.838,0,0,1,.155.165c-.012-.174-.019-.3-.023-.369s-.006-.128-.006-.167v-1.626h.647v3.1h-.492l-2.273-1.913q-.082-.073-.144-.132a1.6,1.6,0,0,1-.114-.12c.01.1.016.187.022.271s.007.159.007.221v1.673Z" fill="#0e1014"/>
      </g>
    </g>
  </g>
</svg>
