<svg xmlns="http://www.w3.org/2000/svg" xmlns:xlink="http://www.w3.org/1999/xlink" width="160" height="160" viewBox="0 0 160 160">
  <defs>
    <linearGradient id="linear-gradient" x1="0.075" y1="0.156" x2="0.899" y2="1.282" gradientUnits="objectBoundingBox">
      <stop offset="0" stop-color="#e50019"/>
      <stop offset="1" stop-color="#ffd500"/>
    </linearGradient>
  </defs>
  <g id="Jo-Ride" transform="translate(2.016 11.5)">
    <rect id="Rectangle_675" data-name="Rectangle 675" width="160" height="160" transform="translate(-2.016 -11.5)" fill="#fff"/>
    <g id="Group_1" data-name="Group 1">
      <path id="Path_1" data-name="Path 1" d="M40.878,112.6H25.5V89.51H40.878ZM30.429,94.344v13.374h5.492V94.344Z"/>
      <path id="Path_2" data-name="Path 2" d="M112.751,89.5v4.792H102.582V98.5H107.7v4.882h-5.12v4.347h10.13v4.858H97.665V89.5Z"/>
      <path id="Path_3" data-name="Path 3" d="M64.3,114.73v4.063H8.533V114.73Z"/>
      <path id="Path_4" data-name="Path 4" d="M22.88,112.612H8.972v-6.644H13.5v1.757H17.99V89.5h4.89Z"/>
      <path id="Path_5" data-name="Path 5" d="M69.621,94.322H67.744V89.49h8.789V94.3H74.645v13.454h1.892v4.813h-8.8v-4.8h1.879Z"/>
      <path id="Path_6" data-name="Path 6" d="M88.283,101.028c-3.2,2.6-6.264,5.076-9.427,7.638V93.392Z" fill="#5b5f62"/>
      <path id="Path_7" data-name="Path 7" d="M76.679,119.835H75.7v-6.177h2.825c.84,0,1.681-.013,2.521.008.239.006.579.03.7.182a3.335,3.335,0,0,1,.276,2.814c-.125.713-.795.764-1.417.735a5.785,5.785,0,0,0-.7.077l2.59,2.295a1.745,1.745,0,0,1-1.981-.447,15.4,15.4,0,0,0-1.555-1.531,1.456,1.456,0,0,0-.708-.38c-1.459-.207-1.575-.093-1.572,1.372C76.68,119.114,76.679,119.444,76.679,119.835Zm2.1-3.222c.5,0,1.007,0,1.511,0,.894.009.742-.65.752-1.189s.058-1.112-.765-1.1a25.349,25.349,0,0,1-2.6-.013c-.834-.069-1.058.242-1.014,1.039.072,1.325-.181,1.259,1.277,1.259Z"/>
      <path id="Path_8" data-name="Path 8" d="M107.5,119.835h-.962v-6.168c1.874,0,3.744-.019,5.612.024.23.006.51.3.66.534a1.494,1.494,0,0,1,.119.73c.055,2.166.052,2.166-2.163,2.574l1.285,1.128,1.287,1.133a1.918,1.918,0,0,1-2.15-.606,10.2,10.2,0,0,0-1.439-1.408,1.537,1.537,0,0,0-.8-.366c-1.452-.132-1.453-.116-1.452,1.326C107.5,119.069,107.5,119.4,107.5,119.835Zm2.211-5.5c-.224,0-.448,0-.671,0-1.726.037-1.515-.354-1.547,1.653-.008.48.192.641.648.632.894-.017,1.792-.048,2.683.008.83.052,1.086-.3,1.061-1.081-.034-1.123-.083-1.21-1.168-1.213Z"/>
      <path id="Path_9" data-name="Path 9" d="M65.611,113.681c1.659,0,3.251-.044,4.839.027a2.487,2.487,0,0,1,1.338.587,3.38,3.38,0,0,1,.773,3.777,2.718,2.718,0,0,1-2.822,1.793c-1.362.006-2.725,0-4.128,0Zm.946,3.01.045,0c0,.614.016,1.229-.006,1.842-.015.43.152.612.584.6.7-.015,1.4.009,2.1-.007,1.8-.041,2.6-.918,2.5-2.7-.083-1.425-.964-2.108-2.76-2.094-.77.006-1.778-.2-2.238.2C66.378,114.884,66.605,115.947,66.557,116.691Z"/>
      <path id="Path_10" data-name="Path 10" d="M103.829,119.826H97.846v-6.108h5.994l.115.235c-.236.126-.469.354-.709.361-1.231.037-2.465.047-3.7.006-.655-.021-.723.306-.711.828.012.507-.034.966.71.917a15.176,15.176,0,0,1,1.931.01c.161.011.309.222.463.342-.156.144-.3.4-.469.413a16.809,16.809,0,0,1-1.931.017c-.486-.018-.714.126-.7.661.044,1.9-.222,1.6,1.582,1.625.98.012,1.962-.024,2.94.022.229.011.446.267.668.411Z"/>
      <path id="Path_11" data-name="Path 11" d="M92.086,118.9c.842-1.667,1.593-3.07,2.261-4.511.283-.611.612-.9,1.342-.65-1,1.937-1.98,3.873-2.994,5.792a.75.75,0,0,1-1.285.026c-1.053-1.929-2.083-3.87-3.127-5.817a1.057,1.057,0,0,1,1.48.681C90.439,115.874,91.235,117.274,92.086,118.9Z"/>
      <path id="Path_12" data-name="Path 12" d="M84.958,113.7h.974v6.131h-.974Z"/>
      <path id="Path_13" data-name="Path 13" d="M94.809,89.578v23.06H77.97v-1.669l4.243-3.612,2.918-2.3v2.721h4.678V94.438H85.131v2.721l-2.918-2.3L77.97,91.247V89.578Z"/>
      <path id="Path_14" data-name="Path 14" d="M62.087,104.9h2.9v-.035h.063V89.492H49.681v23.074h4.881V104.9h1.866q2.061,3.83,4.117,7.665h5.617Q64.122,108.736,62.087,104.9Zm-7.511-4.924V94.444h5.513v5.533Z"/>
    </g>
    <g id="Group_105" data-name="Group 105">
      <path id="Path_15" data-name="Path 15" d="M7.514,87.9C8.57,61.251,19.776,40.35,42.845,27.147c24.757-14.168,50-13.259,74.07,2.1C140.568,44.335,149.184,70,148.374,87.987h-1.381c-13.31,0-26.62-.013-39.93.026a1.979,1.979,0,0,1-2.082-1.244c-1.978-3.874-4.054-7.7-6.234-11.8H103.9V49.559H77.949V87.887H73.387V49.534H65.14V79.819H57.566l-.156-2.628H49.772V87.9Z" fill="#fe0"/>
      <path id="Path_16" data-name="Path 16" d="M86.3,75.371c1.132,0,2.222-.044,3.305.028a1.219,1.219,0,0,1,.834.6c1.921,3.894,3.8,7.805,5.774,11.871H86.3Z" fill="#fe0"/>
      <path id="Path_17" data-name="Path 17" d="M95.6,57.966V66.88h-9.28V57.966Z" fill="#fe0"/>
    </g>
    <path id="Intersection_1" data-name="Intersection 1" d="M99.945,87.923q-.126,0-.242-.006a1.952,1.952,0,0,1-1.236-1.149c-1.978-3.875-4.054-7.7-6.234-11.8H97.39V49.559H96.8V49.47H85.984l0,0Q74.421,33.593,62.859,17.723a63.372,63.372,0,0,1,7.749-.617Q79.148,32.05,87.7,46.991c.386.677.817,1.328,1.259,2.041l2.174-1.109c-.173-.439-.3-.788-.446-1.123Q84.523,33.008,78.36,19.219l-.827-1.854c1.141.106,2.277.242,3.416.411q1.938.3,3.872.729Q89.162,31.712,93.5,44.923c.688,2.1.884,2.177,2.932,1.084-.023-.166-.032-.35-.071-.529q-2.8-12.691-5.6-25.382,2.97.94,5.929,2.165.841,8.043,1.686,16.087c.258,2.46.534,4.918.81,7.465l2.514-.17c0-3.977.017-7.788,0-11.6q-.027-4.764-.059-9.527,2.438,1.212,4.863,2.619-.61,5.427-1.219,10.853c-.293,2.6-.578,5.2-.874,7.885l2.551.387c.1-.412.175-.674.232-.941q1.636-7.872,3.278-15.742,2.051,1.342,3.955,2.789-1.535,4.622-3.07,9.245c-.587,1.768-1.153,3.542-1.719,5.285,2.336,1.2,2.361,1.2,3.007-.225q2.6-5.765,5.2-11.527,1.571,1.365,3.028,2.795-1.049,1.787-2.1,3.574c-1.468,2.5-2.909,5.021-4.4,7.6a11.343,11.343,0,0,1,1.273.862c.876.793,1.461.636,2.117-.347,1.119-1.684,2.374-3.278,3.572-4.909l2.612-3.553q1.235,1.385,2.372,2.81l-3.53,3.686c-1.391,1.454-2.776,2.914-3.922,4.118l2.029,2.7c2.433-2.192,4.694-4.241,6.97-6.276q.483-.435.969-.868,1.03,1.466,1.967,2.962l-4.955,3.643-3.4,2.507,1.368,2.049,8.877-5.008q.871,1.567,1.646,3.152-4.051,1.867-8.1,3.746c-.392.182-.938.484-1.01.816a1.71,1.71,0,0,0,2.258,1.909l8.572-2.677c.507,1.21.976,2.425,1.4,3.634q-5,1.349-10,2.721c-.229.062-.37.435-.553.663.261.2.523.583.781.581,1.032-.006,2.064-.13,3.1-.212l7.7-.613c.534,1.762.988,3.518,1.366,5.25l-12.548-1.514c-.089,1.722-.09,1.727,1.184,2.05,2.044.518,4.084,1.049,6.136,1.534,1.953.461,3.915.885,5.875,1.317a61.68,61.68,0,0,1,.776,7.512q-4.979-2.082-9.958-4.163c-1.506-.632-3.007-1.279-4.623-1.967-.464,1.323-.846,2.52-1.3,3.687a25.3,25.3,0,0,1-4.12,6.985q-10.657,0-21.316.027Zm-76.468-.112,19.2-4.021v4.021ZM81.9,87.783a24.866,24.866,0,0,1-2.116-2.916v-9.5c1.017,0,2-.036,2.974.009a1.3,1.3,0,0,1,.582.531c1.921,3.893,3.8,7.8,5.773,11.872ZM66.873,78.721l3.978-.834v3.763l-3.978,1.323ZM3.121,71.462h54.92v4.312L46.809,77.1H42.674v.489L1.363,82.479A85.575,85.575,0,0,1,3.121,71.462Zm63.752,0h3.978v2.8l-3.978.471Zm0-3.658V64.161l3.978.879v3.175ZM6.139,61.515a66.02,66.02,0,0,1,4.679-9.739L58.041,62.21v4.679ZM79.8,66.791V57.966H88.5v8.825ZM66.893,60.143l-.02-.006V55.969l3.978,1.8v3.62Q68.868,60.764,66.893,60.143ZM16.059,44.169a65.59,65.59,0,0,1,7.44-7.838L58.041,51.971v5.394Q37.05,50.772,16.059,44.169Zm50.813,6.913V49.534H66.29v-.089H64L30.886,30.554q2.6-1.781,5.445-3.408,1.262-.722,2.528-1.393L71.339,49.47h-.489v3.882Zm10.44-1.612Q62.09,35.752,46.87,22.034a72.5,72.5,0,0,1,8.067-2.689Q67.4,33.221,79.866,47.1q1.071,1.191,2.155,2.375Z" transform="translate(7.17 -0.01)" fill="url(#linear-gradient)"/>
  </g>
</svg>
