<svg xmlns="http://www.w3.org/2000/svg" width="256.08" height="71.108" viewBox="0 0 256.08 71.108">
  <g id="Liben-Dish" transform="translate(-182.26 -24.398)">
    <g id="Group_6" data-name="Group 6">
      <path id="Path_22" data-name="Path 22" d="M236.639,47.66a29.785,29.785,0,0,0-3.351-12.072c-.352-.664-.671-1.209-.907-1.59Q212.095,54.348,191.8,74.7a29.682,29.682,0,0,0,23.918,2.984q.774-5.658,1.547-11.313,3.072-.021,6.147-.04.6,3.442,1.2,6.884a30.691,30.691,0,0,0,8.764-10.246,28.869,28.869,0,0,0,1.71-4A29.709,29.709,0,0,0,236.639,47.66Zm-2.41,5.184a23.9,23.9,0,0,1-1.05,4.491,23.576,23.576,0,0,1-1.343,3.181.773.773,0,0,1-1.292-.8,21.086,21.086,0,0,0,1.165-2.723,21.619,21.619,0,0,0,1.013-4.2,23.929,23.929,0,0,0,.076-5.29,25.666,25.666,0,0,0-1.478-6.535.779.779,0,0,1,.6-.7.769.769,0,0,1,.759.294,24.5,24.5,0,0,1,1.634,6.68A24.142,24.142,0,0,1,234.229,52.844Z" fill="#38959f"/>
      <path id="Path_23" data-name="Path 23" d="M225.45,86.606l-7.8.032a.624.624,0,0,1-.407-.7.652.652,0,0,1,.407-.411H225.3q-1.252-9.012-2.509-18.029h-4.665q-1.6,10.913-3.192,21.823h10.892C225.7,88.417,225.577,87.51,225.45,86.606ZM220.381,68.54a1.915,1.915,0,1,1-1.913,1.917A1.917,1.917,0,0,1,220.381,68.54Z" fill="#38959f"/>
      <circle id="Ellipse_1" data-name="Ellipse 1" cx="0.85" cy="0.85" r="0.85" transform="translate(219.532 69.605)" fill="#38959f"/>
      <path id="Path_24" data-name="Path 24" d="M229.86,30.464c-.425-.505-.84-.973-1.254-1.409q-6.434,6.409-12.861,12.824l-14.88-.277a1.361,1.361,0,1,0-1.36,1.4.6.6,0,0,0,.1-.005l-.138,15.114q-6.369,6.353-12.743,12.706c.451.431.877.808,1.265,1.137.313.266.744.617,1.259,1.01.457.346.887.654,1.286.919q20.494-20.606,40.994-41.222C231.04,31.962,230.487,31.224,229.86,30.464Zm-29.3,26.555.128-13.557,6.632,6.819Q203.942,53.644,200.562,57.019Zm7.531-7.509-6.622-6.8,13.206.239Q211.384,46.223,208.093,49.51Z" fill="#38959f"/>
      <path id="Path_25" data-name="Path 25" d="M183.233,44.82l5.952-2.45.855,4.434,7.547-3.734L191.6,44.081l-1.4-4.512-7.936,2.645Z" fill="#37949e"/>
      <path id="Path_26" data-name="Path 26" d="M185.528,31.711l6.146,2.645-2.023,3.735,7.78,1.711-5.212-3.19,1.867-3.967-7.547-2.879Z" fill="#37949e"/>
      <path id="Path_27" data-name="Path 27" d="M196.653,31.322h4.435l-1.79-6.691,2.723-.233,1.712,7.469-4.59.778.233,5.446Z" fill="#37949e"/>
      <rect id="Rectangle_1" data-name="Rectangle 1" width="16.221" height="2.217" transform="translate(212.252 90.255)" fill="#37949e"/>
      <path id="Rectangle_2" data-name="Rectangle 2" d="M.938,0H22.256a.938.938,0,0,1,.938.938v.886a.219.219,0,0,1-.219.219H.219A.219.219,0,0,1,0,1.823V.938A.938.938,0,0,1,.938,0Z" transform="translate(208.809 93.464)" fill="#37949e"/>
    </g>
    <g id="Group_7" data-name="Group 7">
      <path id="Path_28" data-name="Path 28" d="M246.891,49.608h2.745V68.957h10.716v2.349H246.891Z" fill="#909090"/>
      <path id="Path_29" data-name="Path 29" d="M265.45,68.957h5.392v-17H265.45V49.608h13.562v2.348h-5.391v17h5.391v2.349H265.45Z" fill="#909090"/>
      <path id="Path_30" data-name="Path 30" d="M285.434,49.608h6.151c4.433,0,7.443,1.488,7.443,5.292a4.715,4.715,0,0,1-3.8,4.73v.132c3.176.5,5.028,2.216,5.028,5.193,0,4.267-3.309,6.351-8.17,6.351h-6.648Zm5.689,9.129c3.7,0,5.192-1.191,5.192-3.606,0-2.348-1.72-3.208-5.061-3.208h-3.075v6.814Zm.562,10.253c3.7,0,5.854-1.223,5.854-4.167,0-2.679-2.051-3.771-5.854-3.771h-3.506V68.99Z" fill="#909090"/>
      <path id="Path_31" data-name="Path 31" d="M305.779,49.608h13.429v2.348h-10.65v6.781h8.995v2.348h-8.995v7.872h10.98v2.349H305.779Z" fill="#909090"/>
      <path id="Path_32" data-name="Path 32" d="M324.571,49.608h3.042l6.946,13.627,2.084,4.5h.067c-.1-2.15-.365-4.6-.365-6.88V49.608h2.647v21.7h-3.043L329,57.679l-2.083-4.5h-.066c.1,2.216.363,4.531.363,6.781V71.306h-2.645Z" fill="#909090"/>
      <path id="Path_33" data-name="Path 33" d="M364.437,49.608H369.8c6.516,0,10.054,3.87,10.054,10.75,0,6.912-3.538,10.948-9.922,10.948h-5.49ZM369.6,69.023c4.929,0,7.376-3.175,7.376-8.665,0-5.458-2.447-8.468-7.376-8.468h-2.381V69.023Z" fill="#909090"/>
      <path id="Path_34" data-name="Path 34" d="M384.549,68.957h5.392v-17h-5.392V49.608h13.562v2.348H392.72v17h5.391v2.349H384.549Z" fill="#909090"/>
      <path id="Path_35" data-name="Path 35" d="M403.474,68.494l1.653-1.918a9.131,9.131,0,0,0,6.351,2.679c2.977,0,4.7-1.423,4.7-3.407,0-2.315-1.687-2.977-3.87-3.9l-3.142-1.389c-2.15-.86-4.664-2.381-4.664-5.59,0-3.307,2.978-5.755,7.112-5.755a9.466,9.466,0,0,1,6.681,2.679l-1.455,1.786a7.627,7.627,0,0,0-5.326-2.017c-2.513,0-4.2,1.19-4.2,3.142,0,2.083,2.018,2.845,3.87,3.572l3.043,1.356c2.679,1.058,4.8,2.58,4.8,5.788,0,3.44-2.91,6.185-7.674,6.185A11.028,11.028,0,0,1,403.474,68.494Z" fill="#909090"/>
      <path id="Path_36" data-name="Path 36" d="M423.721,49.608h2.811V58.67h9V49.608h2.811v21.7h-2.811V61.118h-9V71.306h-2.811Z" fill="#909090"/>
    </g>
    <g id="Group_8" data-name="Group 8">
      <path id="Path_37" data-name="Path 37" d="M289.2,78.085h1.27l2.922,8.677h-1.19l-1.494-4.841c-.305-.966-.6-1.918-.859-2.923H289.8c-.278,1-.556,1.957-.861,2.923l-1.521,4.841h-1.137Zm-1.375,5.146h3.98v.9h-3.98Z" fill="#909090"/>
      <path id="Path_38" data-name="Path 38" d="M294.9,78.085h1.218l2.777,5.45.833,1.8h.026c-.039-.859-.144-1.838-.144-2.751v-4.5h1.057v8.677h-1.216l-2.778-5.449-.833-1.8h-.027c.04.886.146,1.812.146,2.711v4.537H294.9Z" fill="#909090"/>
      <path id="Path_39" data-name="Path 39" d="M302.9,78.085h2.143c2.607,0,4.022,1.548,4.022,4.3s-1.415,4.378-3.969,4.378h-2.2Zm2.064,7.765c1.971,0,2.949-1.27,2.949-3.466S306.937,79,304.966,79h-.952V85.85Z" fill="#909090"/>
      <path id="Path_40" data-name="Path 40" d="M319.14,78.085h5.37v.94h-4.259v2.711h3.6v.939h-3.6v3.148h4.391v.939h-5.5Z" fill="#909090"/>
      <path id="Path_41" data-name="Path 41" d="M327.344,78.085h1.1v7.738h4.285v.939h-5.384Z" fill="#909090"/>
      <path id="Path_42" data-name="Path 42" d="M335.019,78.085h5.37v.94h-4.26v2.711h3.6v.939h-3.6v3.148h4.392v.939h-5.5Z" fill="#909090"/>
      <path id="Path_43" data-name="Path 43" d="M342.311,82.424c0-2.791,1.627-4.5,3.888-4.5a3.252,3.252,0,0,1,2.381,1.058l-.635.7a2.321,2.321,0,0,0-1.746-.78c-1.653,0-2.737,1.335-2.737,3.491,0,2.183,1.084,3.545,2.737,3.545a2.5,2.5,0,0,0,1.945-.953l.635.675a3.353,3.353,0,0,1-2.686,1.257C343.951,86.921,342.311,85.254,342.311,82.424Z" fill="#909090"/>
      <path id="Path_44" data-name="Path 44" d="M352.8,79.025h-2.869v-.94h6.851v.94h-2.87v7.737H352.8Z" fill="#909090"/>
      <path id="Path_45" data-name="Path 45" d="M358.641,78.085h2.711c1.759,0,3.042.635,3.042,2.447,0,1.733-1.283,2.566-3.042,2.566h-1.587v3.664h-1.124Zm2.552,4.114c1.349,0,2.09-.555,2.09-1.667,0-1.137-.741-1.547-2.09-1.547h-1.428V82.2Zm.808.013,2.645,4.55h-1.257l-2.262-3.968Z" fill="#909090"/>
      <path id="Path_46" data-name="Path 46" d="M366.528,85.823h2.155v-6.8h-2.155v-.94h5.422v.94H369.8v6.8h2.155v.939h-5.422Z" fill="#909090"/>
      <path id="Path_47" data-name="Path 47" d="M374.071,82.424c0-2.791,1.627-4.5,3.889-4.5a3.25,3.25,0,0,1,2.38,1.058l-.634.7a2.324,2.324,0,0,0-1.746-.78c-1.653,0-2.737,1.335-2.737,3.491,0,2.183,1.084,3.545,2.737,3.545a2.5,2.5,0,0,0,1.945-.953l.634.675a3.351,3.351,0,0,1-2.685,1.257C375.711,86.921,374.071,85.254,374.071,82.424Z" fill="#909090"/>
      <path id="Path_48" data-name="Path 48" d="M382.408,85.823h2.156v-6.8h-2.156v-.94h5.423v.94h-2.156v6.8h2.156v.939h-5.423Z" fill="#909090"/>
      <path id="Path_49" data-name="Path 49" d="M392.5,79.025h-2.869v-.94h6.85v.94h-2.87v7.737H392.5Z" fill="#909090"/>
      <path id="Path_50" data-name="Path 50" d="M400.444,83.667l-2.909-5.582h1.177l1.3,2.566c.331.675.635,1.336.992,2.024h.053c.343-.688.687-1.349,1.018-2.024l1.257-2.566h1.138l-2.911,5.582v3.1h-1.111Z" fill="#909090"/>
    </g>
  </g>
</svg>
