<svg xmlns="http://www.w3.org/2000/svg" width="96.287" height="107.032" viewBox="0 0 96.287 107.032">
  <g id="Nati" transform="translate(-483.194 -488.244)">
    <g id="Group_89" data-name="Group 89">
      <path id="Path_289" data-name="Path 289" d="M485.187,522.5v38.519a12.791,12.791,0,0,0,6.4,11.078l33.358,19.26a12.792,12.792,0,0,0,12.792,0l33.359-19.26a12.793,12.793,0,0,0,6.4-11.078V522.5a12.793,12.793,0,0,0-6.4-11.078l-33.359-19.259a12.792,12.792,0,0,0-12.792,0l-33.358,19.259A12.791,12.791,0,0,0,485.187,522.5Z" fill="#e0e0df"/>
      <path id="Path_290" data-name="Path 290" d="M531.337,595.276a13.375,13.375,0,0,1-6.691-1.788l-34.762-20.069a13.42,13.42,0,0,1-6.69-11.59V521.69a13.419,13.419,0,0,1,6.69-11.589l34.762-20.07a13.418,13.418,0,0,1,13.382,0L572.79,510.1a13.419,13.419,0,0,1,6.691,11.589v40.139a13.421,13.421,0,0,1-6.691,11.59l-34.762,20.069A13.382,13.382,0,0,1,531.337,595.276Zm0-103.047a9.4,9.4,0,0,0-4.7,1.255l-34.762,20.069a9.422,9.422,0,0,0-4.7,8.137v40.139a9.422,9.422,0,0,0,4.7,8.137l34.762,20.069a9.416,9.416,0,0,0,9.395,0L570.8,569.966a9.422,9.422,0,0,0,4.7-8.137V521.69a9.422,9.422,0,0,0-4.7-8.137l-34.761-20.069A9.4,9.4,0,0,0,531.337,492.229Z" fill="#202020"/>
    </g>
    <g id="Group_90" data-name="Group 90">
      <path id="Path_291" data-name="Path 291" d="M534.251,541.923V553.66L510.72,534.838v37.684H498.94V513.679ZM546,513.679h11.78v58.839L546,563.1Z" fill="#202020"/>
    </g>
  </g>
</svg>
