<svg xmlns="http://www.w3.org/2000/svg" xmlns:xlink="http://www.w3.org/1999/xlink" width="140.336" height="86.934" viewBox="0 0 140.336 86.934">
  <defs>
    <linearGradient id="linear-gradient" x1="0.5" y1="-1.05" x2="0.5" y2="1.598" gradientUnits="objectBoundingBox">
      <stop offset="0" stop-color="#0e1318"/>
      <stop offset="0.475" stop-color="#0f1419"/>
      <stop offset="0.646" stop-color="#161b1f"/>
      <stop offset="0.768" stop-color="#22262a"/>
      <stop offset="0.867" stop-color="#33363a"/>
      <stop offset="0.951" stop-color="#494a4e"/>
      <stop offset="1" stop-color="#5a5b5e"/>
    </linearGradient>
  </defs>
  <g id="Yesak" transform="translate(-471.754 -16.485)">
    <path id="Path_51" data-name="Path 51" d="M501.936,25.075c-.184.339-.363.658-.534.948-2.153,3.671-6.927,7.809-10.431,9.7V25.075h1.714l3.541,3.047.878-1.3-3.027-1.744Z" fill="#0e1318"/>
    <path id="Path_52" data-name="Path 52" d="M503.284,25.075c-.339.552-.881,1.369-1.717,2.482a40.107,40.107,0,0,1-3.488,4.155,29.981,29.981,0,0,1-7.108,5.28v-.838c3.584-1.891,8.547-6.158,10.765-9.941.133-.225.362-.625.64-1.138Z" fill="#0e1318"/>
    <path id="Path_53" data-name="Path 53" d="M593.388,25.075v43.9H490.971V37.2c.19-.023.407-.056.644-.1a13.2,13.2,0,0,0,2.366-.69,19.657,19.657,0,0,0,5.483-3.26,18.829,18.829,0,0,0,2.257-2.514,19.455,19.455,0,0,0,2.774-5.559Z" fill="url(#linear-gradient)"/>
    <g id="Group_9" data-name="Group 9">
      <path id="Path_54" data-name="Path 54" d="M515.82,56.194l-6.591-7.688h10.983V30.932H503.737V48.506l7.689,8.786-7.689,2.2v4.394l19.771-5.492V54Zm-7.689-20.868h7.689v8.786h-7.689Z" fill="#f49837"/>
      <path id="Path_55" data-name="Path 55" d="M541.08,40.817V33.129h-4.392v7.688H527.9V49.6h4.394V45.211h13.18V60.588h4.394V40.817Z" fill="#f49837"/>
      <path id="Path_56" data-name="Path 56" d="M569.639,38.62V32.029h-8.788V28.758h-4.392v6.568h8.786V38.62H554.262V51.8h10.983v8.788h4.394V51.8h10.983V38.62Zm-4.394,8.786h-6.591V43.014h6.591Zm10.983,0h-6.589V43.014h6.589Z" fill="#f49837"/>
    </g>
    <path id="Path_57" data-name="Path 57" d="M491.849,24.565a26.617,26.617,0,0,1,7.262-3.892c3.478-1.2,4.365.062,4.626.888a17.9,17.9,0,0,0,.826-3.219,2.233,2.233,0,0,0-.115-.973c-.166-.439-.791-.6-1.164-.587s-.725.106-1.7.247a6.068,6.068,0,0,0-1.715.633,10.22,10.22,0,0,0-2.394,1.467c-.774.62-1.373,1.194-2.031,1.793A49.293,49.293,0,0,0,491.849,24.565Z" fill="#e0e1e3"/>
    <g id="Group_10" data-name="Group 10">
      <path id="Path_58" data-name="Path 58" d="M504.564,17.131a1.52,1.52,0,0,0-1.522-.64c-3.585.229-7.087,3.051-11.07,7.371-.1.11-.2.221-.307.335q-.74.81-1.5,1.687c-2.819,3.232-4.363,6.739-4.032,9.156a2.606,2.606,0,0,0,1.072,1.912,1.426,1.426,0,0,0,.79.2,3.415,3.415,0,0,0,.762-.1,9.747,9.747,0,0,0,2.218-.9v-.428a9.8,9.8,0,0,1-2.307.953,1.69,1.69,0,0,1-1.251-.05,2.238,2.238,0,0,1-.9-1.643c-.248-1.809.658-5.084,3.943-8.85q.26-.3.519-.588v-.473h.419c.19-.213.378-.423.567-.628l.355-.389c3.894-4.215,7.308-6.963,10.755-7.184.057,0,.111-.006.163-.006a1.08,1.08,0,0,1,1.007.465c.809,1.315-.873,5.13-2.3,7.742h.44C503.545,22.913,505.55,18.73,504.564,17.131Z" fill="#f49837"/>
      <path id="Path_59" data-name="Path 59" d="M497.1,22.838" fill="#f49837"/>
      <path id="Path_60" data-name="Path 60" d="M494.077,25.075h-1.392l-.728-.629-.292-.25L490,22.765l-.133-.113.154.088,1.949,1.123.34.2Z" fill="#f49837"/>
      <circle id="Ellipse_2" data-name="Ellipse 2" cx="0.718" cy="0.718" r="0.718" transform="translate(488.754 21.561)" fill="#f49837"/>
      <path id="Path_61" data-name="Path 61" d="M490.486,37.252c.164-.087.327-.171.485-.26V37.2C490.782,37.223,490.619,37.24,490.486,37.252Z" fill="#f49837"/>
      <path id="Path_62" data-name="Path 62" d="M504.495,25.075h-1.211c.225-.363.361-.611.438-.749a29.582,29.582,0,0,0,1.538-3.591A11.732,11.732,0,0,1,504.495,25.075Z" fill="#f49837"/>
    </g>
    <g id="Group_11" data-name="Group 11">
      <path id="Path_63" data-name="Path 63" d="M491.2,66.164,471.754,85.61v8.668a13.415,13.415,0,0,0,8.434,8.2c.576.172,6.193,1.742,11.012-1.874a12.441,12.441,0,0,0,4.217-5.857l.234-9.84,12.417-18.743Z" fill="#0e1318"/>
      <path id="Path_64" data-name="Path 64" d="M495.417,94.747c.285.709,2.682,6.4,8.668,7.965a12.322,12.322,0,0,0,7.5-.468,13.5,13.5,0,0,0,7.5-7.966V85.141c2.031-6.248,4.061-12.729,6.092-18.977-5.7-.078-11.4.078-17.1,0L495.651,84.907Z" fill="#f49837"/>
      <path id="Path_65" data-name="Path 65" d="M519.079,94.044c0,1.64,1.875,6.794,7.5,8.2a12.329,12.329,0,0,0,7.263.468c6.228-1.786,8.1-8.726,8.2-9.137V66.164H525.171l-6.092,18.743Z" fill="#4e2a0e"/>
      <path id="Path_66" data-name="Path 66" d="M542.039,66.164V84.907c0,3.24-.131,6.442-.234,9.605.144.4,2.742,7.309,9.606,8.669a11.851,11.851,0,0,0,9.839-2.343A11.478,11.478,0,0,0,565,94.044V84.672c-2.03-6.169-3.827-12.339-5.857-18.508Z" fill="#0e1318"/>
      <path id="Path_67" data-name="Path 67" d="M565,84.672l-5.857-18.508h17.1q5.856,9.372,11.714,18.743l.234,9.605c-.142.44-2.259,6.624-8.434,8.2a12.243,12.243,0,0,1-9.371-1.64A13,13,0,0,1,565,94.044Z" fill="#f49837"/>
      <path id="Path_68" data-name="Path 68" d="M587.959,84.907l.234,9.605c.338.781,2.837,6.3,8.9,7.966a12.71,12.71,0,0,0,9.371-.937,12.22,12.22,0,0,0,4.452-4.217q.585-5.974,1.171-11.949-9.489-9.6-18.977-19.211H576.245Q582.1,75.536,587.959,84.907Z" fill="#4e2a0e"/>
    </g>
  </g>
</svg>
