<svg xmlns="http://www.w3.org/2000/svg" width="98.605" height="112.968" viewBox="0 0 98.605 112.968">
  <g id="Yetebeb-Mead" transform="translate(-30.511 -244.699)">
    <g id="Group_12" data-name="Group 12">
      <path id="Path_73" data-name="Path 73" d="M125.865,315.381c-.631.031-.989.072-1.344.062q-14.708-.414-29.413-.838Q90.051,314.459,85,314.3a1.263,1.263,0,0,0-1.269.632,2.53,2.53,0,0,1-1.672.932,24.237,24.237,0,0,1-4.475,0c-.625-.061-1.2-.639-1.8-.979-.346-.2-.7-.562-1.043-.553-6.358.158-12.715.369-19.073.552q-10.455.3-20.911.568a1.415,1.415,0,0,1-.96-.316,11.509,11.509,0,0,1,1.545-.977,3.974,3.974,0,0,0,2.452-2.671c.4-1.511,1.328-1.87,2.853-1.8a30.049,30.049,0,0,0,15.039-3.341c6.744-3.372,13.235-2.471,19.179,1.932,1.607,1.19,2.712,3.078,3.983,4.7.712.908,1.156.986,1.736,0a17.041,17.041,0,0,1,13.079-8.476,15.7,15.7,0,0,1,9.688,1.642,31.394,31.394,0,0,0,16.485,3.579c.542-.024,1.072-.093,1.28.622a6.447,6.447,0,0,0,4,4.37C125.328,314.789,125.477,315.022,125.865,315.381Zm-51.137-1.648.053-.313a13.434,13.434,0,0,0-1.978-.26c-3.026.043-6.051.135-9.077.215q-13.212.351-26.424.722a6.767,6.767,0,0,0-1.527.408l.068.328Zm48.892,1.1.068-.4a10.781,10.781,0,0,0-1.762-.346c-4.518-.151-9.038-.271-13.558-.39q-10.8-.283-21.6-.54a14.218,14.218,0,0,0-2.079.253l.019.317Zm-47.251-.505-.071.42c1.79,1.146,3.866.37,5.8.518.4.031.844-.422,1.267-.651l-.155-.287Z" fill="#141414"/>
      <path id="Path_74" data-name="Path 74" d="M87.128,306.046a19.3,19.3,0,0,1,9.82-5.14c1.959-.318,4.154.39,6.166.924,2.756.731,5.446,1.718,8.152,2.634a17.018,17.018,0,0,1,2.912,1.2c1.9,1.066,3.731,2.244,5.812,3.51-1.909,0-3.592.1-5.259-.021a27.379,27.379,0,0,1-10.574-3.117,18,18,0,0,0-16.538-.192C87.458,305.915,87.291,305.978,87.128,306.046Z" fill="#141414"/>
      <path id="Path_75" data-name="Path 75" d="M72.441,305.858c-2.036-.57-4.01-1.255-6.039-1.661a16.229,16.229,0,0,0-10.462,1.547,28.711,28.711,0,0,1-9.155,3.131c-2.334.269-4.687.373-7.031.551l-.1-.369c2.39-1.45,4.632-3.292,7.2-4.262,4.078-1.539,8.365-2.534,12.585-3.682a8.375,8.375,0,0,1,5.473.423A29.337,29.337,0,0,1,72.441,305.858Z" fill="#141414"/>
      <path id="Path_76" data-name="Path 76" d="M74.728,313.733l-38.885,1.1-.068-.328A6.767,6.767,0,0,1,37.3,314.1q13.212-.387,26.424-.722c3.026-.08,6.051-.172,9.077-.215a13.434,13.434,0,0,1,1.978.26Z" fill="#141414"/>
      <path id="Path_77" data-name="Path 77" d="M123.62,314.832l-38.915-1.1-.019-.317a14.218,14.218,0,0,1,2.079-.253q10.8.243,21.6.54c4.52.119,9.04.239,13.558.39a10.781,10.781,0,0,1,1.762.346Z" fill="#141414"/>
      <path id="Path_78" data-name="Path 78" d="M76.369,314.327h6.838l.155.287c-.423.229-.864.682-1.267.651-1.931-.148-4.007.628-5.8-.518Z" fill="#141414"/>
      <path id="Path_79" data-name="Path 79" d="M61.218,300.839c.506-.058,9.961-1.038,14.079,3.714a19.417,19.417,0,0,1,3.532,6.229,23.692,23.692,0,0,1,.9,2.895c.037.137.03.23-.02.279-.233.227-1.367-.589-1.742-.859a32.489,32.489,0,0,1-4.932-4.837c-1.233-1.487-3.439-3.253-7.7-4.236Z" fill="#141414"/>
      <path id="Path_80" data-name="Path 80" d="M98.459,300.842c-.506-.059-10.052-1.2-14.169,3.551a19.439,19.439,0,0,0-3.533,6.229,23.713,23.713,0,0,0-.9,2.9c-.037.137-.03.23.019.279.234.227,1.367-.589,1.743-.86a32.453,32.453,0,0,0,4.932-4.836c1.233-1.487,3.439-3.254,7.7-4.236C95.625,302.8,97.087,301.9,98.459,300.842Z" fill="#141414"/>
    </g>
    <path id="Path_81" data-name="Path 81" d="M79.814,343.3a49.3,49.3,0,1,1,49.3-49.3A49.359,49.359,0,0,1,79.814,343.3Zm0-95.635A46.333,46.333,0,1,0,126.146,294,46.385,46.385,0,0,0,79.814,247.669Z" fill="#ffb000"/>
    <g id="Group_17" data-name="Group 17">
      <g id="Group_16" data-name="Group 16">
        <g id="Group_13" data-name="Group 13">
          <path id="Path_82" data-name="Path 82" d="M72.512,295.731v8.022h.006v-8.022Zm0-11.906v8.446h.006v-8.446Z" fill="#ffb000"/>
          <path id="Path_83" data-name="Path 83" d="M72.666,303.9h-.3l-.006-.148v-8.17h.3Zm0-11.481h-.3l-.006-.149v-8.6h.3Z" fill="#040505"/>
        </g>
        <g id="Group_14" data-name="Group 14">
          <rect id="Rectangle_4" data-name="Rectangle 4" width="0.006" height="19.504" transform="translate(69.055 283.825)" fill="#ffb000"/>
          <path id="Path_84" data-name="Path 84" d="M69.209,303.477h-.3l-.006-.148V283.676h.3l.006.148Z" fill="#040505"/>
        </g>
        <g id="Group_15" data-name="Group 15">
          <path id="Path_85" data-name="Path 85" d="M110.192,316.292a10.505,10.505,0,0,0-5.676-9.323H106.6v-26.42H102.39a10.5,10.5,0,0,0,1.194-19.9h3.362V257.19H87.136v23.177H81.552V257.523H78.1v22.844H72.512V257.19H52.7v3.457h4.25a10.5,10.5,0,0,0,.585,19.72H52.355v26.418h3.587a10.5,10.5,0,0,0,.5,19.139H52.7v3.46h19.81V307.21H78.1v22.138h3.457V307.21h5.584v22.129h19.81v-3.457h-2.979A10.514,10.514,0,0,0,110.192,316.292ZM69.055,260.647v3.208a10.544,10.544,0,0,0-4.31-3.208ZM53.115,270.4a7.734,7.734,0,0,1,15.227-1.912H61.413a1.734,1.734,0,0,0-1.728,1.728,1.729,1.729,0,0,0,1.728,1.729h7.015A7.734,7.734,0,0,1,53.115,270.4Zm15.94,6.543v3.424H64.16A10.527,10.527,0,0,0,69.055,276.943Zm-13.24,26.385v-19.5h5.236v19.5Zm-3.044,12.917a7.734,7.734,0,0,1,15.2-2.029H61.413a1.73,1.73,0,0,0,0,3.46H68.1a7.733,7.733,0,0,1-15.333-1.431Zm16.284,9.679H64.567a10.535,10.535,0,0,0,4.488-3.594Zm0-15.768a10.572,10.572,0,0,0-3.992-3.371h3.992Zm.006-6.828h-4.55v-19.5h4.55Zm34.083-19.319v19.5h-4.2v-19.5Zm4.081-15.337H99.654a1.729,1.729,0,0,0,0,3.457h7.571a7.734,7.734,0,1,1,0-3.457Zm-16.632-8.025h5.2a10.589,10.589,0,0,0-5.2,4.508Zm0,14.995a10.547,10.547,0,0,0,6.394,4.907H90.593Zm0,8.367h4.892v19.5H90.593Zm0,22.96h4.271a10.582,10.582,0,0,0-4.271,4.087Zm-3.457-3.216H72.512v-8.022H87.136Zm0-11.482H72.512v-8.446H87.136Zm3.457,33.611v-4.351a10.578,10.578,0,0,0,4.82,4.351Zm9.1-1.856a7.734,7.734,0,1,1,7.5-9.626H99.654a1.734,1.734,0,0,0-1.728,1.729,1.73,1.73,0,0,0,1.728,1.731h7.612A7.748,7.748,0,0,1,99.69,324.026Z" fill="#ffb000"/>
          <path id="Path_86" data-name="Path 86" d="M72.66,329.532H52.554v-3.757h3.207a10.645,10.645,0,0,1-.425-18.841h-3.13V280.219h4.515a10.652,10.652,0,0,1-.475-19.424H52.554v-3.754H72.66v23.178h5.287V257.374H81.7v22.845h5.287V257.041h20.106V260.8h-2.8a10.651,10.651,0,0,1-.937,19.6h3.4v26.718h-1.659a10.645,10.645,0,0,1-.477,18.616h2.48v3.754H86.988V307.359H81.7V329.5H77.947V307.359H72.66Zm-19.809-.3H72.363V307.062h5.881V329.2H81.4V307.062h5.881v22.129H106.8v-3.16h-3.526l.635-.284a10.349,10.349,0,0,0,.542-18.646l-.54-.28h2.545V280.7h-5.2l1.1-.292a10.354,10.354,0,0,0,1.176-19.62l-.712-.287H106.8v-3.16H87.285v23.178H81.4V257.671h-3.16v22.845H72.363V257.338H52.851v3.16H57.72l-.712.287a10.355,10.355,0,0,0,.576,19.442l.869.289H52.5v26.121H56.59l-.583.282a10.35,10.35,0,0,0,.492,18.868l.679.285H52.851ZM69.2,326.072H63.831l.679-.285a10.361,10.361,0,0,0,4.424-3.543l.269-.378Zm-3.956-.3h3.659v-3A10.65,10.65,0,0,1,65.247,325.775Zm30.861.256H90.444v-5.053l.277.479a10.5,10.5,0,0,0,4.753,4.29Zm-5.367-.3h4.027a10.826,10.826,0,0,1-4.027-3.676Zm8.949-1.56a7.882,7.882,0,1,1,7.646-9.81l.047.185H99.655a1.586,1.586,0,0,0-1.581,1.58,1.584,1.584,0,0,0,1.581,1.583h7.794l-.037.178A7.914,7.914,0,0,1,99.69,324.174Zm0-15.467a7.585,7.585,0,1,0,7.392,9.3H99.655a1.881,1.881,0,0,1-1.878-1.88,1.883,1.883,0,0,1,1.878-1.877H107A7.579,7.579,0,0,0,99.69,308.707ZM60.5,324.127a7.883,7.883,0,1,1,7.607-9.95l.051.188H61.413a1.581,1.581,0,0,0-1.58,1.583,1.582,1.582,0,0,0,1.58,1.58h6.871l-.034.176A7.885,7.885,0,0,1,60.5,324.127Zm0-15.468a7.585,7.585,0,1,0,7.419,9.166h-6.51a1.879,1.879,0,0,1-1.328-3.206,1.854,1.854,0,0,1,1.328-.551h6.358A7.6,7.6,0,0,0,60.5,308.659Zm29.94,2.951v-4.789h5.027l-.539.28a10.4,10.4,0,0,0-4.211,4.029Zm.3-4.492v3.41a10.694,10.694,0,0,1,3.549-3.41ZM69.2,310.62l-.269-.378A10.433,10.433,0,0,0,65,306.919l-.584-.282H69.2Zm-3.532-3.686a10.73,10.73,0,0,1,3.235,2.775v-2.775ZM87.285,303.9H72.363v-8.318H87.285Zm-14.625-.3H86.988V295.88H72.66Zm30.633.057H98.8v-19.8h4.5Zm-4.2-.3H103V284.157h-3.9Zm-3.46.3H90.444v-19.8h5.189Zm-4.892-.3h4.6V284.157h-4.6Zm-21.532.113H64.362v-19.8h4.847Zm-4.55-.3h4.253V283.973H64.659Zm-3.46.3H55.666v-19.8H61.2Zm-5.236-.3H60.9V283.973H55.963Zm31.322-10.76H72.363v-8.744H87.285Zm-14.625-.3H86.988v-8.15H72.66ZM98.123,280.7H90.444v-5.608l.277.479a10.448,10.448,0,0,0,6.305,4.837Zm-7.382-.3h5.287a10.781,10.781,0,0,1-5.287-4.232Zm-21.538.116H63.247l.866-.289a10.359,10.359,0,0,0,4.826-3.377l.264-.331Zm-4.228-.3h3.931v-2.864A10.648,10.648,0,0,1,64.975,280.219Zm34.712-1.936a7.882,7.882,0,1,1,7.682-9.644l.042.181H99.655a1.583,1.583,0,0,0-1.581,1.58,1.582,1.582,0,0,0,1.581,1.58h7.756l-.042.182A7.941,7.941,0,0,1,99.687,278.283Zm0-15.468a7.585,7.585,0,1,0,7.349,9.462H99.655a1.876,1.876,0,0,1-1.326-3.205,1.86,1.86,0,0,1,1.326-.549h7.381A7.643,7.643,0,0,0,99.687,262.815ZM60.849,278.283a7.882,7.882,0,1,1,7.637-9.832l.047.185h-7.12a1.586,1.586,0,0,0-1.58,1.58,1.582,1.582,0,0,0,1.58,1.58h7.2l-.036.178A7.91,7.91,0,0,1,60.849,278.283Zm0-15.468a7.585,7.585,0,1,0,7.4,9.278H61.413a1.879,1.879,0,0,1-1.877-1.877,1.883,1.883,0,0,1,1.877-1.877h6.736A7.579,7.579,0,0,0,60.849,262.815Zm29.6,2.893V260.5h6.117l-.712.287a10.462,10.462,0,0,0-5.128,4.445Zm.3-4.913v3.834A10.788,10.788,0,0,1,95.09,260.8ZM69.2,264.279l-.264-.332a10.4,10.4,0,0,0-4.249-3.162l-.713-.287H69.2ZM65.45,260.8a10.713,10.713,0,0,1,3.456,2.648V260.8Z" fill="#040505"/>
        </g>
      </g>
    </g>
    <g id="Group_18" data-name="Group 18">
      <path id="Path_87" data-name="Path 87" d="M40,357.658V345.912h6.526v6.961H41.741v4.785Zm4.786-6.525v-3.481H41.741v3.481Z" fill="#c1c1c0"/>
      <path id="Path_88" data-name="Path 88" d="M48.267,352.873v-6.091h9.571v6.091H56.1v-4.351H53.922v3.046h.87v6.09h-1.74v-4.785h-.87v-4.351H50.007v4.351Z" fill="#c1c1c0"/>
      <path id="Path_89" data-name="Path 89" d="M59.578,357.658V346.782h8.266v10.876H66.1v-9.136H61.318v9.136Z" fill="#c1c1c0"/>
      <path id="Path_90" data-name="Path 90" d="M69.584,354.178V352H72.63v-5.221H80.9v10.876H79.155v-9.136H74.37v9.136H72.63v-3.48Z" fill="#c1c1c0"/>
      <path id="Path_91" data-name="Path 91" d="M93.8,353.308h-5.22v-6.961h11.746v11.311H98.15v-4.35H95.087v-5.221H93.8Zm-1.74-1.74v-3.481h-1.74v3.481Zm4.786,0h1.74v-3.481h-1.74Z" fill="#c1c1c0"/>
      <path id="Path_92" data-name="Path 92" d="M107.286,357.667h-1.74v-6.534h-1.74v-1.741h-1.741v-3.48h1.741v1.74h1.74v1.74h1.74v2.176h6.091v6.1h-1.741v-4.359h-4.35Z" fill="#c1c1c0"/>
      <path id="Path_93" data-name="Path 93" d="M116.857,357.658h-1.74v-5.22h3.045v-1.3h-2.175v-5.221h6.091v1.74h3.045v2.175h-3.045v1.306H119.9v1.3h3.045v5.22h-1.74v-3.48h-4.351Zm.87-10.006v1.74h2.611v-1.74Z" fill="#c1c1c0"/>
    </g>
  </g>
</svg>
