<svg xmlns="http://www.w3.org/2000/svg" width="415.745" height="479.655" viewBox="0 0 415.745 479.655">
  <path id="bg-pattern" d="M356.354,467.631l10.556-10.607,10.556,10.607L366.91,478.238Zm-147.408,0L219.5,457.025l10.556,10.607L219.5,478.238Zm-147.409,0,10.555-10.607,10.556,10.607L72.092,478.238Zm319.4-.013,10.556-10.607,10.556,10.607-10.556,10.606Zm-98.277,0,.028-.027-.025-.025,10.556-10.607,10.556,10.607-.028.028.025.024-10.556,10.606Zm-24.565,0,.014-.014-.025-.024,10.556-10.606,10.556,10.606-.014.014.024.024-10.555,10.606Zm-24.566,0,10.556-10.607,10.556,10.607L244.08,478.224Zm-98.276,0,.027-.027-.025-.025,10.556-10.607,10.556,10.607-.028.028.025.024L145.8,478.224Zm-24.565,0,.014-.014-.024-.024,10.555-10.606,10.556,10.606-.014.014.024.024-10.555,10.606Zm-24.567,0,10.556-10.607,10.556,10.607L96.671,478.224Zm245.676-.052,10.556-10.607L352.9,467.565l-10.556,10.607Zm-24.565,0,10.556-10.607,10.555,10.607-10.555,10.607Zm-122.844,0,10.556-10.607,10.556,10.607-10.556,10.607Zm-24.566,0,10.556-10.607,10.555,10.607-10.555,10.607Zm-122.842,0,10.555-10.607,10.556,10.607L47.529,478.172Zm-24.566,0,10.554-10.607,10.556,10.607L22.963,478.172Zm294.354-49.108,47.554-47.781,47.552,47.781L354.316,466.24Zm14.41,0,33.144,33.3,33.143-33.3-33.143-33.3Zm-161.819,0,47.554-47.781,47.552,47.781L206.907,466.24Zm14.411,0,33.143,33.3,33.143-33.3-33.143-33.3Zm-161.818,0L59.5,370.677l47.553,47.781L59.5,466.24Zm14.41,0,33.143,33.3,33.143-33.3L59.5,385.156Zm342.282,36.832,10.555-10.607,10.556,10.607L379.193,465.9Zm-147.408,0,10.554-10.607,10.556,10.607L231.783,465.9Zm-147.409,0,10.554-10.607L94.93,455.289,84.374,465.9Zm319.4-.013,10.556-10.607,10.556,10.607-10.556,10.607Zm-122.843,0,.014-.014-.025-.024,10.555-10.607,10.556,10.607-.014.013.025.025-10.556,10.607Zm-24.566,0,10.556-10.607,10.556,10.607-10.556,10.607Zm-122.843,0,.014-.014-.024-.024,10.554-10.607,10.556,10.607-.014.013.025.025L133.52,465.882Zm-24.565,0,10.555-10.607,10.556,10.607-10.556,10.607Zm221.109-.052,10.555-10.607,10.556,10.607L330.063,465.83Zm-24.566,0L305.5,444.617l10.556,10.607L305.5,465.83Zm-122.843,0,10.555-10.607,10.556,10.607L182.654,465.83Zm-24.566,0,10.556-10.607,10.556,10.607L158.089,465.83Zm-122.842,0,10.555-10.607L45.8,455.224,35.246,465.83Zm-24.566,0L10.68,444.617l10.555,10.607L10.68,465.83ZM380.92,442.948l10.556-10.606,10.556,10.606-10.556,10.607Zm-147.408,0,10.555-10.606,10.556,10.606-10.556,10.607Zm-147.409,0,10.555-10.606,10.556,10.606L96.657,453.554Zm171.988-.013,10.556-10.607L279.2,442.934l-10.555,10.607Zm-147.408,0,10.555-10.607,10.555,10.607-10.555,10.607Zm171.963-.039L293.2,432.289,303.757,442.9,293.2,453.5Zm-147.408,0,10.555-10.607L156.348,442.9,145.792,453.5Zm171.988-.014,10.556-10.606,10.555,10.606-10.555,10.607Zm-147.409,0,10.556-10.606,10.555,10.606-10.555,10.607Zm-147.407,0,10.554-10.606,10.556,10.606L22.963,453.488Zm311.447-24.424,30.461-30.608,30.462,30.608-30.462,30.608Zm9.606,0,20.856,20.955,20.855-20.955L354.316,397.5Zm-157.015,0,30.461-30.608,30.462,30.608-30.462,30.608Zm9.607,0,20.855,20.955,20.855-20.955L206.907,397.5Zm-157.015,0L59.5,387.85l30.462,30.608L59.5,449.066Zm9.607,0L59.5,439.412l20.855-20.955L59.5,397.5Zm219.422,0,22.87-22.981,22.87,22.981-22.87,22.98Zm7.826,0,15.044,15.115,15.043-15.115-15.043-15.116Zm-155.235,0,22.87-22.981,22.87,22.981-22.87,22.98Zm7.826,0,15.044,15.115,15.044-15.115-15.044-15.116ZM393.2,430.606,403.759,420l10.556,10.606-10.556,10.607Zm-147.408,0L256.35,420l10.556,10.606L256.35,441.212Zm-147.409,0L108.941,420,119.5,430.606l-10.556,10.607Zm196.543-.053,10.556-10.606,10.556,10.606-10.556,10.607Zm-147.408,0,10.555-10.606,10.556,10.606-10.556,10.607Zm-147.408,0,10.556-10.606,10.555,10.606L10.668,441.159ZM337.6,418.459l16.719-16.8,16.719,16.8-16.719,16.8Zm-147.409,0,16.719-16.8,16.719,16.8-16.719,16.8Zm-147.408,0,16.719-16.8,16.719,16.8L59.5,435.257Zm224.041,0,14.115-14.182,14.114,14.182L280.936,432.64Zm3.913,0,10.2,10.249,10.2-10.249-10.2-10.25Zm-151.322,0,14.115-14.182,14.114,14.182L133.527,432.64Zm3.913,0,10.2,10.249,10.2-10.249-10.2-10.25Zm149.88,0,7.731-7.768,7.73,7.768-7.73,7.767Zm-147.409,0,7.731-7.768,7.73,7.768-7.73,7.767Zm169.14-12.1,10.556-10.607,10.556,10.607-10.556,10.607Zm-147.408,0,10.555-10.607,10.556,10.607-10.556,10.607Zm-147.408,0,10.555-10.607,10.555,10.607L10.674,416.969Zm393.09-.052L403.765,395.7l10.556,10.607-10.556,10.606Zm-147.409,0L256.356,395.7l10.556,10.607-10.556,10.606Zm-147.407,0L108.948,395.7,119.5,406.31l-10.556,10.606Zm208.84-12.276,10.556-10.607,10.555,10.607-10.555,10.606Zm-147.409,0,10.556-10.607,10.555,10.607-10.555,10.606Zm-147.407,0L22.97,383.428l10.556,10.607L22.97,404.641Zm270.237-.014,10.556-10.607,10.556,10.607-10.556,10.607Zm-147.408,0L145.8,383.414l10.556,10.607L145.8,404.627Zm122.853-.04,10.556-10.607,10.555,10.607-10.555,10.606Zm-147.408,0,10.556-10.607L131.8,393.981l-10.555,10.606Zm270.238-.013,10.556-10.607,10.556,10.607-10.556,10.606Zm-147.409,0,10.556-10.607,10.556,10.607-10.556,10.606Zm-147.407,0,10.555-10.607,10.556,10.607L96.665,404.574Zm233.406-12.277,10.555-10.607,10.556,10.607L330.07,392.3Zm-24.566,0,10.556-10.607,10.556,10.607L305.505,392.3Zm-122.843,0,10.555-10.607,10.556,10.607L182.661,392.3Zm-24.566,0L158.1,371.085l10.556,10.607L158.1,392.3Zm-122.842,0,10.555-10.607,10.556,10.607L35.253,392.3Zm-24.565,0,10.555-10.607,10.555,10.607L10.688,392.3Zm270.238-.013.024-.025-.014-.014,10.555-10.607,10.556,10.607-.024.024.014.015-10.556,10.607Zm-147.408,0,.024-.025-.014-.014,10.555-10.607,10.556,10.607-.025.025.014.014-10.556,10.607Zm270.261-.04,10.556-10.607,10.555,10.607-10.555,10.607Zm-147.409,0,10.556-10.607,10.556,10.607L256.37,392.246Zm-147.408,0,10.556-10.607,10.556,10.607-10.556,10.607Zm270.239-.014L379.2,371.02l10.556,10.606L379.2,392.233Zm-147.409,0L231.79,371.02l10.556,10.606L231.79,392.233Zm-147.407,0L84.381,371.02l10.556,10.606L84.381,392.233ZM331.8,369.35l10.556-10.606L352.91,369.35l-10.556,10.607Zm-24.565,0,10.556-10.606,10.555,10.606-10.555,10.607Zm-24.566,0,.024-.024-.028-.028,10.556-10.607L303.774,369.3l-.024.024.028.028-10.556,10.607Zm-98.277,0,10.556-10.606L205.5,369.35l-10.556,10.607Zm-24.565,0,10.556-10.606,10.555,10.606-10.555,10.607Zm-24.566,0,.025-.024-.028-.028,10.556-10.607L156.366,369.3l-.025.025.028.027-10.556,10.607Zm-98.275,0,10.555-10.606L58.092,369.35,47.536,379.957Zm-24.566,0L22.97,358.744,33.526,369.35,22.97,379.957Zm245.671-.013.024-.024-.014-.014,10.556-10.607L279.208,369.3l-.024.024.014.014-10.555,10.607Zm-147.408,0,.024-.024-.014-.014,10.556-10.607L131.8,369.3l-.025.025.014.013-10.555,10.607Zm270.261-.039L391.5,358.691,402.052,369.3,391.5,379.9Zm-147.409,0,10.556-10.607L254.642,369.3,244.086,379.9Zm-147.408,0,10.556-10.607L107.234,369.3,96.678,379.9Zm270.239-.013,10.556-10.607,10.555,10.607-10.555,10.606Zm-147.409,0,10.556-10.607,10.555,10.607-10.555,10.606Zm-147.407,0L72.1,358.678l10.555,10.607L72.1,379.891Zm294.81-21.213,10.556-10.607,10.556,10.607L366.91,358.678Zm-147.408,0L219.5,337.465l10.556,10.607L219.5,358.678Zm-147.409,0,10.555-10.607,10.556,10.607L72.092,358.678Zm319.4-.013,10.556-10.607,10.556,10.607-10.556,10.606Zm-98.277,0,.028-.027-.025-.025L293.215,337.4l10.556,10.607-.028.028.025.024-10.556,10.606Zm-24.565,0,.014-.014-.025-.025,10.556-10.606,10.556,10.606-.014.014.024.024-10.555,10.606Zm-24.566,0,10.556-10.607,10.556,10.607L244.08,358.664Zm-98.276,0,.027-.027-.025-.025L145.805,337.4l10.556,10.607-.028.028.025.024L145.8,358.664Zm-24.565,0,.014-.014-.024-.025,10.555-10.606,10.556,10.606-.014.014.024.024-10.555,10.606Zm-24.567,0,10.556-10.607,10.556,10.607L96.671,358.664Zm245.676-.052L342.346,337.4,352.9,348.006l-10.556,10.607Zm-24.565,0L317.781,337.4l10.555,10.607-10.555,10.607Zm-122.844,0L194.937,337.4l10.556,10.607-10.556,10.607Zm-24.566,0L170.372,337.4l10.555,10.607-10.555,10.607Zm-122.842,0L47.529,337.4l10.556,10.607L47.529,358.612Zm-24.566,0L22.963,337.4l10.556,10.607L22.963,358.612ZM306.762,298.9l47.554-47.781L401.869,298.9,354.316,346.68Zm14.41,0,33.144,33.3,33.143-33.3-33.143-33.3Zm-161.819,0,47.554-47.781L254.46,298.9,206.907,346.68Zm14.411,0,33.143,33.3,33.143-33.3-33.143-33.3Zm-161.818,0L59.5,251.117,107.052,298.9,59.5,346.68Zm14.41,0L59.5,332.2l33.143-33.3L59.5,265.6ZM368.637,335.73l10.555-10.607,10.556,10.607-10.556,10.607Zm-147.408,0,10.554-10.607,10.556,10.607-10.556,10.607Zm-147.409,0,10.554-10.607L94.93,335.73,84.374,346.336Zm319.4-.013,10.556-10.607,10.556,10.607-10.556,10.607Zm-122.843,0,.014-.014-.025-.025,10.555-10.607,10.556,10.607-.014.014.025.024-10.556,10.607Zm-24.566,0,10.556-10.607,10.556,10.607-10.556,10.607Zm-122.843,0,.014-.014-.024-.025,10.554-10.607,10.556,10.607-.014.014.025.024L133.52,346.323Zm-24.565,0,10.555-10.607,10.556,10.607-10.556,10.607Zm221.109-.052,10.555-10.607,10.556,10.607-10.556,10.607Zm-24.566,0L305.5,325.057l10.556,10.607L305.5,346.271Zm-122.843,0,10.555-10.607,10.556,10.607-10.556,10.607Zm-24.566,0,10.556-10.607,10.556,10.607-10.556,10.607Zm-122.842,0,10.555-10.607L45.8,335.664,35.246,346.271Zm-24.566,0L10.68,325.057l10.555,10.607L10.68,346.271ZM380.92,323.388l10.556-10.607,10.556,10.607-10.556,10.607Zm-147.408,0,10.555-10.607,10.556,10.607-10.556,10.607Zm-147.409,0,10.555-10.607,10.556,10.607L96.657,333.995Zm171.988-.013,10.556-10.607L279.2,323.375l-10.555,10.607Zm-147.408,0,10.555-10.607,10.555,10.607-10.555,10.607Zm171.963-.039L293.2,312.729l10.556,10.607L293.2,333.942Zm-147.408,0,10.555-10.607,10.556,10.607-10.556,10.607Zm171.988-.014,10.556-10.606,10.555,10.606-10.555,10.607Zm-147.409,0,10.556-10.606,10.555,10.606-10.555,10.607Zm-147.407,0,10.554-10.606,10.556,10.606L22.963,333.929ZM323.855,298.9l30.461-30.608L384.779,298.9l-30.462,30.608Zm9.606,0,20.856,20.956L375.171,298.9l-20.855-20.956Zm-157.015,0,30.461-30.608L237.37,298.9l-30.462,30.608Zm9.607,0,20.855,20.956L227.762,298.9l-20.855-20.956Zm-157.015,0L59.5,268.29,89.961,298.9,59.5,329.506Zm9.607,0L59.5,319.854,80.354,298.9,59.5,277.943Zm219.422,0,22.87-22.981,22.87,22.981-22.87,22.98Zm7.826,0,15.044,15.115L295.979,298.9l-15.043-15.116Zm-155.235,0,22.87-22.981L156.4,298.9l-22.87,22.98Zm7.826,0,15.044,15.115L148.57,298.9l-15.044-15.116ZM393.2,311.046l10.556-10.606,10.556,10.606-10.556,10.607Zm-147.408,0L256.35,300.44l10.556,10.606L256.35,321.653Zm-147.409,0,10.555-10.606L119.5,311.046l-10.556,10.607Zm196.543-.052,10.556-10.607,10.556,10.607L305.484,321.6Zm-147.408,0,10.555-10.607,10.556,10.607L158.075,321.6Zm-147.408,0,10.556-10.607,10.555,10.607L10.668,321.6ZM337.6,298.9l16.719-16.8,16.719,16.8-16.719,16.8Zm-147.409,0,16.719-16.8,16.719,16.8-16.719,16.8Zm-147.408,0L59.5,282.1l16.719,16.8L59.5,315.7Zm224.041,0,14.115-14.182L295.05,298.9l-14.114,14.182Zm3.913,0,10.2,10.249,10.2-10.249-10.2-10.249Zm-151.322,0,14.115-14.182L147.641,298.9l-14.114,14.182Zm3.913,0,10.2,10.249,10.2-10.249-10.2-10.249Zm149.88,0,7.731-7.767,7.73,7.767-7.73,7.767Zm-147.409,0,7.731-7.767,7.73,7.767-7.73,7.767Zm169.14-12.1L305.492,276.2,316.048,286.8,305.492,297.41Zm-147.408,0L158.082,276.2,168.638,286.8,158.082,297.41ZM.119,286.8,10.674,276.2,21.229,286.8,10.674,297.41Zm393.09-.052,10.556-10.606,10.556,10.606-10.556,10.607Zm-147.409,0,10.556-10.606,10.556,10.606-10.556,10.607Zm-147.407,0,10.555-10.606L119.5,286.751l-10.556,10.607Zm208.84-12.276,10.556-10.606,10.555,10.606-10.555,10.607Zm-147.409,0,10.556-10.606,10.555,10.606-10.555,10.607Zm-147.407,0L22.97,263.868l10.556,10.606L22.97,285.081Zm270.237-.013,10.556-10.607,10.556,10.607-10.556,10.607Zm-147.408,0L145.8,263.855l10.556,10.607L145.8,285.068Zm122.853-.039,10.556-10.607,10.555,10.607-10.555,10.607Zm-147.408,0,10.556-10.607L131.8,274.423l-10.555,10.607Zm270.238-.013L391.482,263.8l10.556,10.607-10.556,10.606Zm-147.409,0L244.073,263.8l10.556,10.607-10.556,10.606Zm-147.407,0L96.665,263.8l10.556,10.607L96.665,285.016Zm233.406-12.276,10.555-10.607,10.556,10.607L330.07,272.74Zm-24.566,0,10.556-10.607,10.556,10.607L305.505,272.74Zm-122.843,0,10.555-10.607,10.556,10.607L182.661,272.74Zm-24.566,0L158.1,251.527l10.556,10.607L158.1,272.74Zm-122.842,0,10.555-10.607,10.556,10.607L35.253,272.74Zm-24.565,0,10.555-10.607,10.555,10.607L10.688,272.74Zm270.238-.014.024-.024-.014-.015,10.555-10.607,10.556,10.607-.024.025.014.014-10.556,10.607Zm-147.408,0,.024-.025-.014-.014,10.555-10.607,10.556,10.607-.025.025.014.014-10.556,10.607Zm270.261-.04,10.556-10.607,10.555,10.607-10.555,10.606Zm-147.409,0,10.556-10.607,10.556,10.607L256.37,272.686Zm-147.408,0,10.556-10.607,10.556,10.607-10.556,10.606Zm270.239-.013L379.2,251.461l10.556,10.607L379.2,272.674Zm-147.409,0,10.555-10.607,10.556,10.607L231.79,272.674Zm-147.407,0,10.554-10.607,10.556,10.607L84.381,272.674ZM331.8,249.791l10.556-10.607,10.556,10.607L342.354,260.4Zm-24.565,0,10.556-10.607,10.555,10.607L317.788,260.4Zm-24.566,0,.024-.025-.028-.028,10.556-10.607,10.556,10.607-.024.024.028.029L293.222,260.4Zm-98.277,0,10.556-10.607L205.5,249.791,194.945,260.4Zm-24.565,0,10.556-10.607,10.555,10.607L170.379,260.4Zm-24.566,0,.025-.025-.028-.028,10.556-10.607,10.556,10.607-.025.025.028.028L145.813,260.4Zm-98.275,0,10.555-10.607,10.556,10.607L47.536,260.4Zm-24.566,0L22.97,239.185l10.556,10.607L22.97,260.4Zm245.671-.014.024-.024-.014-.015,10.556-10.607,10.555,10.607-.024.024.014.015-10.555,10.606Zm-147.408,0,.024-.025-.014-.014,10.556-10.607L131.8,249.738l-.025.025.014.014-10.555,10.606Zm270.261-.04L391.5,239.132l10.556,10.607L391.5,260.345Zm-147.409,0,10.556-10.607,10.556,10.607-10.556,10.607Zm-147.408,0,10.556-10.607,10.556,10.607L96.678,260.345Zm270.239-.014,10.556-10.606,10.555,10.606-10.555,10.606Zm-147.409,0,10.556-10.606,10.555,10.606-10.555,10.606Zm-147.407,0L72.1,239.119l10.555,10.606L72.1,260.331Zm294.81-21.212,10.556-10.607,10.556,10.607L366.91,239.119Zm-147.408,0L219.5,217.906l10.556,10.607L219.5,239.119Zm-147.409,0,10.555-10.607,10.556,10.607L72.092,239.119Zm319.4-.014,10.556-10.607L402.045,228.5l-10.556,10.607Zm-98.277,0,.028-.028-.025-.024,10.556-10.607,10.556,10.607-.028.027.025.025-10.556,10.607Zm-24.565,0,.014-.014-.025-.025,10.556-10.607,10.556,10.607-.014.015.024.024-10.555,10.607Zm-24.566,0,10.556-10.607L254.636,228.5,244.08,239.106Zm-98.276,0,.027-.028-.025-.024,10.556-10.607,10.556,10.607-.028.027.025.025L145.8,239.106Zm-24.565,0,.014-.014-.024-.025,10.555-10.607,10.556,10.607-.014.015.024.024-10.555,10.607Zm-24.567,0,10.556-10.607L107.227,228.5,96.671,239.106Zm245.676-.052,10.556-10.607L352.9,228.447l-10.556,10.606Zm-24.565,0,10.556-10.607,10.555,10.607-10.555,10.606Zm-122.844,0,10.556-10.607,10.556,10.607-10.556,10.606Zm-24.566,0,10.556-10.607,10.555,10.607-10.555,10.606Zm-122.842,0L47.529,217.84l10.556,10.607L47.529,239.053Zm-24.566,0L22.963,217.84l10.556,10.607L22.963,239.053Zm294.354-49.109,47.554-47.781,47.552,47.781L354.316,227.12Zm14.41,0,33.144,33.3,33.143-33.3-33.143-33.3Zm-161.819,0,47.554-47.781,47.552,47.781L206.907,227.12Zm14.411,0,33.143,33.3,33.143-33.3-33.143-33.3Zm-161.818,0L59.5,131.558l47.553,47.781L59.5,227.12Zm14.41,0,33.143,33.3,33.143-33.3L59.5,146.037ZM368.637,216.17l10.555-10.607,10.556,10.607-10.556,10.607Zm-147.408,0,10.554-10.607,10.556,10.607-10.556,10.607Zm-147.409,0,10.554-10.607L94.93,216.17,84.374,226.777Zm319.4-.013,10.556-10.606,10.556,10.606-10.556,10.607Zm-122.843,0,.014-.014-.025-.025,10.555-10.607,10.556,10.607-.014.014.025.025-10.556,10.607Zm-24.566,0,10.556-10.606,10.556,10.606-10.556,10.607Zm-122.843,0,.014-.014-.024-.025,10.554-10.607,10.556,10.607-.014.014.025.025L133.52,226.764Zm-24.565,0,10.555-10.606,10.556,10.606-10.556,10.607Zm221.109-.053L330.063,205.5,340.619,216.1l-10.556,10.607Zm-24.566,0L305.5,205.5,316.054,216.1,305.5,226.711Zm-122.843,0L182.654,205.5,193.21,216.1l-10.556,10.607Zm-24.566,0L158.089,205.5,168.645,216.1l-10.556,10.607Zm-122.842,0L35.246,205.5,45.8,216.1,35.246,226.711Zm-24.566,0L10.68,205.5,21.236,216.1,10.68,226.711ZM380.92,203.828l10.556-10.606,10.556,10.606-10.556,10.607Zm-147.408,0,10.555-10.606,10.556,10.606-10.556,10.607Zm-147.409,0,10.555-10.606,10.556,10.606L96.657,214.435Zm171.988-.013,10.556-10.607L279.2,203.815l-10.555,10.606Zm-147.408,0,10.555-10.607,10.555,10.607-10.555,10.606Zm171.963-.039L293.2,193.17l10.556,10.606L293.2,214.383Zm-147.408,0,10.555-10.606,10.556,10.606-10.556,10.607Zm171.988-.013,10.556-10.607,10.555,10.607-10.555,10.606Zm-147.409,0,10.556-10.607,10.555,10.607-10.555,10.606Zm-147.407,0,10.554-10.607,10.556,10.607L22.963,214.369Zm311.447-24.424,30.461-30.608,30.462,30.608-30.462,30.608Zm9.606,0,20.856,20.956,20.855-20.956-20.855-20.956Zm-157.015,0,30.461-30.608,30.462,30.608-30.462,30.608Zm9.607,0,20.855,20.956,20.855-20.956-20.855-20.956Zm-157.015,0L59.5,148.73l30.462,30.608L59.5,209.947Zm9.607,0L59.5,200.294l20.855-20.956L59.5,158.383Zm219.422,0,22.87-22.981,22.87,22.981-22.87,22.981Zm7.826,0,15.044,15.116,15.043-15.116-15.043-15.116Zm-155.235,0,22.87-22.981,22.87,22.981-22.87,22.981Zm7.826,0,15.044,15.116,15.044-15.116-15.044-15.116ZM393.2,191.487l10.556-10.607,10.556,10.607-10.556,10.606Zm-147.408,0L256.35,180.88l10.556,10.607L256.35,202.093Zm-147.409,0,10.555-10.607L119.5,191.487l-10.556,10.606Zm196.543-.052,10.556-10.607,10.556,10.607-10.556,10.606Zm-147.408,0,10.555-10.607,10.556,10.607-10.556,10.606Zm-147.408,0,10.556-10.607,10.555,10.607L10.668,202.041Zm337.486-12.1,16.719-16.8,16.719,16.8-16.719,16.8Zm-147.409,0,16.719-16.8,16.719,16.8-16.719,16.8Zm-147.408,0,16.719-16.8,16.719,16.8L59.5,196.139Zm224.041,0,14.115-14.182,14.114,14.182-14.114,14.182Zm3.913,0,10.2,10.249,10.2-10.249-10.2-10.249Zm-151.322,0,14.115-14.182,14.114,14.182-14.114,14.182Zm3.913,0,10.2,10.249,10.2-10.249-10.2-10.249Zm149.88,0,7.731-7.767,7.73,7.767-7.73,7.767Zm-147.409,0,7.731-7.767,7.73,7.767-7.73,7.767Zm169.14-12.1,10.556-10.607,10.556,10.607L305.492,177.85Zm-147.408,0,10.555-10.607,10.556,10.607L158.082,177.85Zm-147.408,0,10.555-10.607,10.555,10.607L10.674,177.85Zm393.09-.052,10.556-10.607,10.556,10.607L403.765,177.8Zm-147.409,0,10.556-10.607,10.556,10.607L256.356,177.8Zm-147.407,0,10.555-10.607L119.5,167.191,108.948,177.8Zm208.84-12.276,10.556-10.607,10.555,10.607-10.555,10.606Zm-147.409,0,10.556-10.607,10.555,10.607-10.555,10.606Zm-147.407,0L22.97,144.309l10.556,10.607L22.97,165.522Zm270.237-.014L293.208,144.3,303.764,154.9l-10.556,10.607Zm-147.408,0L145.8,144.3,156.355,154.9,145.8,165.508Zm122.853-.039,10.556-10.607,10.555,10.607-10.555,10.606Zm-147.408,0,10.556-10.607L131.8,154.863l-10.555,10.606Zm270.238-.014,10.556-10.607,10.556,10.607-10.556,10.607Zm-147.409,0,10.556-10.607,10.556,10.607-10.556,10.607Zm-147.407,0,10.555-10.607,10.556,10.607L96.665,165.456Zm233.406-12.276,10.555-10.606,10.556,10.606L330.07,153.18Zm-24.566,0,10.556-10.606,10.556,10.606L305.505,153.18Zm-122.843,0,10.555-10.606,10.556,10.606L182.661,153.18Zm-24.566,0L158.1,131.967l10.556,10.606L158.1,153.18Zm-122.842,0,10.555-10.606,10.556,10.606L35.253,153.18Zm-24.565,0,10.555-10.606,10.555,10.606L10.688,153.18Zm270.238-.014.024-.024-.014-.014,10.555-10.606,10.556,10.606-.024.024.014.014-10.556,10.607Zm-147.408,0,.024-.025-.014-.014,10.555-10.606,10.556,10.606-.025.024.014.014-10.556,10.607Zm270.261-.039,10.556-10.606,10.555,10.606-10.555,10.607Zm-147.409,0,10.556-10.606,10.556,10.606L256.37,153.128Zm-147.408,0,10.556-10.606,10.556,10.606-10.556,10.607Zm270.239-.014L379.2,131.9l10.556,10.606L379.2,153.114Zm-147.409,0L231.79,131.9l10.556,10.606L231.79,153.114Zm-147.407,0L84.381,131.9l10.556,10.606L84.381,153.114ZM331.8,130.232l10.556-10.606,10.556,10.606-10.556,10.607Zm-24.565,0,10.556-10.606,10.555,10.606-10.555,10.607Zm-24.566,0,.024-.024-.028-.028,10.556-10.606,10.556,10.606-.024.024.028.028-10.556,10.607Zm-98.277,0,10.556-10.606L205.5,130.232l-10.556,10.607Zm-24.565,0,10.556-10.606,10.555,10.606-10.555,10.607Zm-24.566,0,.025-.025-.028-.027,10.556-10.606,10.556,10.606-.025.024.028.028-10.556,10.607Zm-98.275,0,10.555-10.606,10.556,10.606L47.536,140.838Zm-24.566,0L22.97,119.625l10.556,10.606L22.97,140.838Zm245.671-.013.024-.024-.014-.014,10.556-10.606,10.555,10.606-.024.024.014.014-10.555,10.606Zm-147.408,0,.024-.025-.014-.014,10.556-10.606L131.8,130.18l-.025.024.014.014-10.555,10.606Zm270.261-.039L391.5,119.573l10.556,10.606L391.5,140.786Zm-147.409,0,10.556-10.606,10.556,10.606-10.556,10.607Zm-147.408,0,10.556-10.606,10.556,10.606L96.678,140.786Zm270.239-.013,10.556-10.607,10.555,10.607-10.555,10.606Zm-147.409,0,10.556-10.607,10.555,10.607-10.555,10.606Zm-147.407,0L72.1,119.56l10.555,10.607L72.1,140.773Zm294.7-21.213L366.8,98.347l10.556,10.606L366.8,119.56Zm-147.408,0,10.555-10.606,10.556,10.606L219.389,119.56Zm-147.409,0L71.981,98.347l10.555,10.606L71.981,119.56Zm319.4-.013,10.556-10.607,10.556,10.607-10.556,10.606Zm-98.276,0,.027-.028-.025-.024L293.1,98.281l10.556,10.607-.028.027.025.025L293.1,119.546Zm-24.566,0,.014-.014-.024-.024,10.555-10.606L279.08,108.9l-.014.014.024.024-10.555,10.606Zm-24.566,0,10.556-10.607,10.556,10.607-10.556,10.606Zm-98.276,0,.027-.028-.024-.024,10.555-10.607,10.556,10.607-.027.027.024.025-10.556,10.606Zm-24.566,0,.013-.014-.024-.024,10.556-10.606L131.671,108.9l-.014.014.024.024-10.555,10.606ZM86,108.94,96.559,98.333l10.556,10.607L96.559,119.546Zm245.675-.052,10.556-10.607,10.556,10.607-10.556,10.606Zm-24.565,0,10.556-10.607,10.555,10.607-10.555,10.606Zm-122.843,0,10.555-10.607,10.556,10.607-10.556,10.606Zm-24.566,0L170.26,98.281l10.555,10.607L170.26,119.494Zm-122.843,0L47.418,98.281l10.555,10.607L47.418,119.494Zm-24.566,0L22.852,98.281l10.555,10.607L22.852,119.494ZM306.651,59.779,354.2,12l47.552,47.781L354.2,107.561Zm14.411,0,33.143,33.3,33.143-33.3L354.2,26.478Zm-161.819,0L206.8,12l47.553,47.781L206.8,107.561Zm14.41,0,33.143,33.3,33.143-33.3L206.8,26.478Zm-161.818,0L59.387,12l47.553,47.781L59.387,107.561Zm14.41,0,33.143,33.3,33.143-33.3-33.143-33.3ZM368.526,96.611,379.081,86l10.556,10.606-10.556,10.606Zm-147.408,0L231.672,86l10.556,10.606-10.556,10.606Zm-147.409,0L84.263,86,94.819,96.611,84.263,107.218ZM393.1,96.6l10.556-10.606L414.217,96.6,403.661,107.2Zm-122.843,0,.014-.014-.024-.025,10.554-10.606,10.556,10.606-.014.014.025.025L280.817,107.2Zm-24.566,0,10.556-10.606L266.808,96.6,256.252,107.2Zm-122.842,0,.014-.014-.024-.025L133.4,85.952l10.555,10.606-.014.014.024.025L133.408,107.2Zm-24.566,0,10.555-10.606L119.4,96.6,108.842,107.2ZM319.4,96.546l10.555-10.606,10.556,10.606-10.556,10.607Zm-24.566,0,10.556-10.606,10.556,10.606-10.556,10.607Zm-122.842,0,10.554-10.606L193.1,96.546l-10.556,10.607Zm-24.566,0,10.555-10.606,10.556,10.606-10.556,10.607Zm-122.843,0L35.135,85.939,45.69,96.546,35.135,107.152Zm-24.566,0L10.57,85.939,21.124,96.546,10.57,107.152Zm380.8-12.276,10.555-10.606L401.92,84.27,391.364,94.875Zm-147.409,0,10.555-10.606L254.511,84.27,243.955,94.875Zm-147.409,0L96.547,73.663,107.1,84.27,96.547,94.875Zm171.988-.013L268.535,73.65,279.09,84.256,268.535,94.863Zm-147.408,0L121.126,73.65l10.555,10.606L121.126,94.863Zm171.964-.04L293.09,73.61l10.556,10.606L293.09,94.823Zm-147.409,0L145.681,73.61l10.555,10.606L145.681,94.823ZM307.113,84.2,317.669,73.6,328.225,84.2,317.669,94.81Zm-147.408,0L170.26,73.6,180.815,84.2,170.26,94.81ZM12.3,84.2,22.852,73.6,33.407,84.2,22.852,94.81ZM323.743,59.779,354.2,29.171l30.462,30.608L354.2,90.387Zm9.607,0L354.2,80.735,375.06,59.779,354.2,38.824Zm-157.016,0L206.8,29.171l30.462,30.608L206.8,90.387Zm9.607,0L206.8,80.735l20.855-20.956L206.8,38.824Zm-157.015,0L59.387,29.171,89.85,59.779,59.387,90.387Zm9.607,0L59.387,80.735,80.243,59.779,59.387,38.824Zm219.422,0,22.87-22.98,22.87,22.98L280.824,82.76Zm7.826,0L280.824,74.9,295.868,59.78,280.824,44.664Zm-155.235,0,22.87-22.98,22.871,22.98L133.415,82.76Zm7.826,0L133.415,74.9,148.459,59.78,133.415,44.664ZM393.092,71.927l10.555-10.606L414.2,71.927,403.647,82.534Zm-147.409,0,10.555-10.606,10.556,10.606L256.238,82.534Zm-147.409,0L108.83,61.321l10.555,10.606L108.83,82.534Zm196.544-.052,10.555-10.606,10.556,10.606L305.373,82.481Zm-147.409,0,10.556-10.606L168.52,71.875,157.964,82.481ZM0,71.875,10.556,61.268,21.111,71.875,10.556,82.481Zm337.486-12.1L354.2,42.98l16.719,16.8L354.2,76.579Zm-147.409,0L206.8,42.98l16.719,16.8L206.8,76.579Zm-147.408,0,16.719-16.8,16.719,16.8-16.719,16.8Zm224.041,0L280.824,45.6,294.938,59.78,280.824,73.962Zm3.913,0,10.2,10.25,10.2-10.25-10.2-10.249Zm-151.322,0L133.415,45.6,147.529,59.78,133.415,73.962Zm3.912,0,10.2,10.25,10.2-10.25-10.2-10.249Zm149.88,0,7.731-7.767,7.73,7.767-7.73,7.768Zm-147.409,0,7.731-7.767,7.73,7.767-7.73,7.768Zm169.141-12.1L305.38,37.078l10.556,10.606L305.38,58.291Zm-147.409,0,10.555-10.606,10.556,10.606L157.971,58.291Zm-147.408,0L10.563,37.078,21.118,47.685,10.563,58.291Zm393.09-.053,10.556-10.606L414.21,47.632,403.654,58.238Zm-147.408,0,10.555-10.606L266.8,47.632,256.244,58.238Zm-147.408,0,10.555-10.606,10.556,10.606L108.836,58.238Zm208.84-12.276,10.556-10.607,10.555,10.607L317.677,45.962Zm-147.408,0,10.555-10.607,10.555,10.607L170.267,45.962Zm-147.408,0L22.858,24.749,33.414,35.356,22.858,45.962Zm270.238-.014L293.1,24.736l10.556,10.607L293.1,45.949Zm-147.409,0,10.555-10.607,10.556,10.607L145.688,45.949ZM257.985,35.3,268.541,24.7,279.1,35.3,268.541,45.91Zm-147.407,0L121.133,24.7,131.688,35.3,121.133,45.91Zm270.237-.014L391.37,24.683,401.927,35.29,391.37,45.9Zm-147.408,0,10.555-10.607L254.517,35.29,243.961,45.9ZM86,35.29,96.553,24.683,107.109,35.29,96.553,45.9ZM319.4,23.014l10.555-10.607,10.556,10.607L329.959,33.62Zm-24.566,0,10.556-10.607,10.556,10.607L305.393,33.62ZM172,23.014,182.55,12.407l10.556,10.607L182.55,33.62Zm-24.566,0,10.555-10.607L168.54,23.014,157.984,33.62Zm-122.843,0L35.141,12.407,45.7,23.014,35.141,33.62Zm-24.566,0L10.576,12.407,21.131,23.014,10.576,33.62ZM270.259,23l.024-.024-.015-.014,10.555-10.606L291.38,22.962l-.024.024.014.014L280.814,33.607ZM122.85,23l.024-.024-.014-.014,10.554-10.606,10.556,10.606-.024.025.014.014L133.4,33.607Zm270.261-.039,10.556-10.606,10.556,10.606L403.667,33.568Zm-147.409,0,10.556-10.606,10.556,10.606L256.258,33.568Zm-147.407,0L108.85,12.355l10.556,10.606L108.85,33.568Zm270.238-.014,10.555-10.606,10.556,10.606L379.087,33.555Zm-147.408,0,10.554-10.606,10.556,10.606L231.678,33.555Zm-147.408,0L84.27,12.342,94.826,22.948,84.27,33.555ZM331.686,10.672,342.242.066,352.8,10.672,342.242,21.279Zm-24.565,0L317.677.066l10.555,10.607L317.677,21.279Zm-24.566,0,.024-.024-.028-.028L293.107.014,303.663,10.62l-.024.024.028.028L293.11,21.279Zm-98.276,0L194.833.066l10.556,10.607L194.833,21.279Zm-24.566,0L170.267.066l10.555,10.607L170.267,21.279Zm-24.566,0,.024-.025-.027-.027L145.7.014,156.254,10.62l-.024.024.027.028L145.7,21.279Zm-98.276,0L47.425.066,57.981,10.672,47.425,21.279Zm-24.565,0L22.858.066,33.414,10.672,22.858,21.279Zm245.672-.014.024-.024-.015-.014L268.541.014,279.1,10.62l-.024.024.014.014L268.531,21.265Zm-147.409,0,.024-.024-.013-.014L121.133.014,131.688,10.62l-.024.024.014.014L121.122,21.265Zm270.261-.039L391.384.014,401.94,10.62,391.384,21.227Zm-147.409,0L243.975.014,254.531,10.62,243.975,21.227Zm-147.407,0L96.566.014,107.123,10.62,96.566,21.227Zm270.238-.013L366.8,0,377.36,10.607,366.8,21.213Zm-147.408,0L219.4,0l10.555,10.607L219.4,21.213Zm-147.408,0L71.987,0,82.543,10.607,71.987,21.213Z" transform="translate(0.705 0.709)" fill="#c1c7c9" stroke="rgba(0,0,0,0)" stroke-miterlimit="10" stroke-width="1"/>
</svg>
