<svg xmlns="http://www.w3.org/2000/svg" width="413.999" height="478" viewBox="0 0 413.999 478">
  <path id="Subtraction_4" data-name="Subtraction 4" d="M403.5,477H13.329l69.405-69.393,87.451-87.468-81.5-81.5,81.923-81.924L83.146,69.249,13.895,0H403.5A9.511,9.511,0,0,1,413,9.5v458A9.51,9.51,0,0,1,403.5,477ZM3.263,474.666h0A9.5,9.5,0,0,1,0,467.5v-.787l.8.8L65.931,402.39.8,337.261l-.8.8V327.984l1.556-1.556,74.961,74.977ZM.8,461.318h0l-.8-.8V448.1l.8.8L47.318,402.39.8,355.874l-.8.8V344.261l.8-.8L59.731,402.39Zm0-18.613h0l-.8-.8V429.5l.8.8,27.91-27.913L.8,374.482l-.8.8V362.874l.8-.8,40.315,40.32Zm81.93-47.511h0L7.756,320.23,82.81,245.162l74.977,74.977L82.734,395.195Zm.153-140.017L17.771,320.305l65.117,65.128,65.128-65.128Zm0,124.045h0L23.972,320.305l58.916-58.929,58.927,58.929L82.887,379.222Zm0-105.431-46.52,46.514,46.52,46.515,46.528-46.515Zm0,86.833h0L42.568,320.305l40.319-40.316L123.2,320.305,82.887,360.625Zm0-68.229-27.91,27.913,27.91,27.91,27.913-27.91ZM1.894,313.026h0L0,311.131v-8.412l1.137,1.137L66.27,238.724l-.509-.509.082-.082L.713,173,0,173.716v-8.43l1.467-1.467L76.29,238.643l-74.4,74.382ZM.713,297.047h0L0,296.334V284.1l1.137,1.137,46.52-46.516-.5-.5.089-.089L.713,191.616,0,192.329V180.945l1.137-1.137,58.415,58.415Zm0-18.593h0L0,277.741V265.495l1.139,1.139,27.913-27.91-.509-.509.082-.082L.713,210.224,0,210.937V199.544l1.137-1.137,39.811,39.808Zm82.523-46.759h0L8.184,156.628,83.146,81.666,158.2,156.719,83.237,231.694Zm.076-140.272-65.13,65.13,65.13,65.13,65.129-65.13Zm0,124.06h0l-58.93-58.929,58.93-58.913,58.913,58.913L83.312,215.482Zm0-105.447L36.795,156.552,83.312,203.07l46.516-46.517Zm0,86.835h0L42.995,156.552l40.317-40.316,40.319,40.316L83.312,196.87Zm0-68.23L55.4,156.552l27.913,27.91,27.909-27.91L83.315,128.64ZM1.967,150.427h0L0,148.46V138.368L1.231,139.6,66.345,74.471,1.231,9.341,0,10.572V9.5A9.461,9.461,0,0,1,3.572,2.076L76.945,75.45ZM1.231,133.4h0L0,132.168V119.756l1.231,1.231L47.745,74.471,1.231,27.954,0,29.185V16.771l1.231-1.231L60.144,74.471,1.231,133.4Zm0-18.614h0L0,113.555v-12.4l1.229,1.229L29.141,74.466,1.229,46.556,0,47.785v-12.4l1.231-1.231L41.548,74.471Z" transform="translate(0.5 0.5)" fill="#8c979a" stroke="#707070" stroke-width="1"/>
</svg>
